<?xml version="1.0" encoding="UTF-8" standalone="no"?>
<!-- Created with Inkscape (http://www.inkscape.org/) -->
<!-- Extracted from PDF "Université de Namur - Charte graphique" by Jules Dejaeghere :) -->

<svg
   version="1.1"
   id="svg2"
   width="132.22798"
   height="208.96129"
   viewBox="0 0 132.22798 208.96128"
   xmlns="http://www.w3.org/2000/svg"
   xmlns:svg="http://www.w3.org/2000/svg">
  <defs
     id="defs6">
    <clipPath
       clipPathUnits="userSpaceOnUse"
       id="clipPath356">
      <path
         d="m 107.192,473.145 h 28.142 v -36.587 h -28.142 z"
         id="path354" />
    </clipPath>
    <clipPath
       clipPathUnits="userSpaceOnUse"
       id="clipPath362">
      <path
         d="M 107.192,470.818 V 456.8 c 0.953,4.364 4.439,7.792 9.219,7.792 5.886,0 9.542,-4.525 9.542,-10.225 v -17.809 h 4.781 c 2.641,0.02 4.6,1.759 4.6,4.838 v 13.465 c 0,10.537 -8.575,18.284 -18.923,18.284 -3.332,0 -6.482,-0.841 -9.219,-2.327"
         id="path360" />
    </clipPath>
    <clipPath
       clipPathUnits="userSpaceOnUse"
       id="clipPath370">
      <path
         d="m 107.19148,473.14409 h 28.14187 v -36.58624 h -28.14187 z"
         id="path368" />
    </clipPath>
    <linearGradient
       x1="0"
       y1="0"
       x2="1"
       y2="0"
       gradientUnits="userSpaceOnUse"
       gradientTransform="matrix(28.143,0,0,-28.143,107.191,454.851)"
       spreadMethod="pad"
       id="linearGradient378">
      <stop
         style="stop-opacity:1;stop-color:#898b8e"
         offset="0"
         id="stop372" />
      <stop
         style="stop-opacity:1;stop-color:#ffffff"
         offset="0.225006"
         id="stop374" />
      <stop
         style="stop-opacity:1;stop-color:#ffffff"
         offset="1"
         id="stop376" />
    </linearGradient>
    <clipPath
       clipPathUnits="userSpaceOnUse"
       id="clipPath388">
      <path
         d="m 77.173,473.144 h 28.142 V 436.559 H 77.173 Z"
         id="path386" />
    </clipPath>
    <clipPath
       clipPathUnits="userSpaceOnUse"
       id="clipPath394">
      <path
         d="m 81.773,473.145 c -2.641,-0.02 -4.6,-1.759 -4.6,-4.838 V 454.84 c 0,-10.535 8.574,-18.281 18.923,-18.281 3.33,0 6.482,0.839 9.219,2.325 v 14.019 c -0.954,-4.365 -4.439,-7.791 -9.219,-7.791 -5.888,0 -9.542,4.524 -9.542,10.224 v 17.809"
         id="path392" />
    </clipPath>
    <clipPath
       clipPathUnits="userSpaceOnUse"
       id="clipPath402">
      <path
         d="M 77.172675,473.14478 H 105.31458 V 436.55967 H 77.172675 Z"
         id="path400" />
    </clipPath>
    <linearGradient
       x1="0"
       y1="0"
       x2="1"
       y2="0"
       gradientUnits="userSpaceOnUse"
       gradientTransform="matrix(28.143,0,0,-28.143,77.172,454.852)"
       spreadMethod="pad"
       id="linearGradient410">
      <stop
         style="stop-opacity:1;stop-color:#ffffff"
         offset="0"
         id="stop404" />
      <stop
         style="stop-opacity:1;stop-color:#ffffff"
         offset="0.774994"
         id="stop406" />
      <stop
         style="stop-opacity:1;stop-color:#898b8e"
         offset="1"
         id="stop408" />
    </linearGradient>
  </defs>
  <g
     id="g10"
     transform="matrix(1.3333333,0,0,-1.3333333,-75.558662,655.87331)">
    <g
       id="g252"
       transform="translate(105.315,470.74)">
      <path
         d="m 0,0 c 0,6.509 -5.277,11.785 -11.785,11.785 h -27.481 v -40.659 c 0,-6.509 5.258,-11.786 11.767,-11.786 h 15.714 c 0,0 9.549,0.499 11.785,-7.592"
         style="fill:#58ab46;fill-opacity:1;fill-rule:nonzero;stroke:none"
         id="path254" />
    </g>
    <g
       id="g256"
       transform="translate(107.191,470.74)">
      <path
         d="m 0,0 c 0,6.509 5.277,11.785 11.785,11.785 h 27.481 v -40.659 c 0,-6.509 -5.257,-11.786 -11.766,-11.786 H 11.785 c 0,0 -9.549,0.499 -11.785,-7.592"
         style="fill:#4a4a52;fill-opacity:1;fill-rule:nonzero;stroke:none"
         id="path258" />
    </g>
    <g
       id="g260"
       transform="translate(101.302,414.982)">
      <path
         d="M 0,0 H 6.238 V -1.836 H 2.379 V -4.185 H 6.25 V -6.023 H 2.379 v -2.648 h 3.869 v -1.837 H 0"
         style="fill:#4a4a52;fill-opacity:1;fill-rule:nonzero;stroke:none"
         id="path262" />
    </g>
    <g
       id="g264"
       transform="translate(66.049,414.982)">
      <path
         d="m 0,0 h 2.469 v -7.091 c 0,-1.054 0.391,-1.7 1.385,-1.7 0.994,0 1.385,0.646 1.385,1.7 V 0 H 7.708 V -6.699 C 7.708,-9.304 6.217,-10.69 3.854,-10.69 1.49,-10.69 0,-9.304 0,-6.699"
         style="fill:#4a4a52;fill-opacity:1;fill-rule:nonzero;stroke:none"
         id="path266" />
    </g>
    <g
       id="g268"
       transform="translate(76.045,414.982)">
      <path
         d="m 0,0 h 2.89 l 3.056,-7.287 h 0.03 V 0 h 2.169 v -10.508 h -2.92 l -3.027,7.602 h -0.03 v -7.602 H 0"
         style="fill:#4a4a52;fill-opacity:1;fill-rule:nonzero;stroke:none"
         id="path270" />
    </g>
    <path
       d="m 86.583,404.474 h 2.469 v 10.508 h -2.469 z"
       style="fill:#4a4a52;fill-opacity:1;fill-rule:nonzero;stroke:none"
       id="path272" />
    <g
       id="g274"
       transform="translate(90.618,414.982)">
      <path
         d="m 0,0 h 2.65 l 1.852,-7.664 h 0.03 L 6.428,0 h 2.53 L 5.781,-10.508 H 3.132"
         style="fill:#4a4a52;fill-opacity:1;fill-rule:nonzero;stroke:none"
         id="path276" />
    </g>
    <g
       id="g278"
       transform="translate(112.105,410.496)">
      <path
         d="m 0,0 h 0.768 c 0.95,0 1.446,0.632 1.446,1.384 0,0.437 -0.136,1.326 -1.461,1.326 H 0 Z m -2.378,4.486 h 3.855 c 1.731,0 3.206,-0.768 3.206,-2.71 0,-0.437 -0.061,-2.168 -2.093,-2.575 v -0.03 C 3.359,-0.919 3.66,-1.34 4.051,-2.59 L 5.134,-6.022 H 2.545 l -0.812,2.814 c -0.407,1.431 -0.738,1.431 -1.642,1.431 v -4.245 h -2.469"
         style="fill:#4a4a52;fill-opacity:1;fill-rule:nonzero;stroke:none"
         id="path280" />
    </g>
    <g
       id="g282"
       transform="translate(124.826,412.844)">
      <path
         d="m 0,0 c -0.587,0.302 -1.414,0.542 -2.077,0.542 -0.798,0 -1.4,-0.361 -1.4,-1.143 0,-1.913 4.14,-1.025 4.14,-4.758 0,-1.988 -1.58,-3.192 -3.674,-3.192 -1.279,0 -2.378,0.301 -2.829,0.437 l 0.135,2.047 c 0.737,-0.286 1.385,-0.648 2.304,-0.648 0.782,0 1.535,0.392 1.535,1.251 0,2.032 -4.14,1.038 -4.14,4.787 0,0.317 0.12,2.995 3.643,2.995 0.964,0 1.567,-0.165 2.469,-0.36"
         style="fill:#4a4a52;fill-opacity:1;fill-rule:nonzero;stroke:none"
         id="path284" />
    </g>
    <path
       d="m 127.481,404.474 h 2.469 v 10.508 h -2.469 z"
       style="fill:#4a4a52;fill-opacity:1;fill-rule:nonzero;stroke:none"
       id="path286" />
    <g
       id="g288"
       transform="translate(133.924,413.085)">
      <path
         d="M 0,0 H -2.289 V 1.896 H 4.757 V 0 H 2.469 V -8.611 H 0"
         style="fill:#4a4a52;fill-opacity:1;fill-rule:nonzero;stroke:none"
         id="path290" />
    </g>
    <g
       id="g292"
       transform="translate(140.207,414.982)">
      <path
         d="M 0,0 H 6.239 V -1.836 H 2.379 V -4.185 H 6.25 V -6.023 H 2.379 v -2.648 h 3.869 v -1.837 H 0"
         style="fill:#4a4a52;fill-opacity:1;fill-rule:nonzero;stroke:none"
         id="path294" />
    </g>
    <g
       id="g296"
       transform="translate(68.518,393.215)">
      <path
         d="m 0,0 h 0.784 c 1.791,0 2.589,1.415 2.589,3.328 0,2.168 -0.829,3.507 -2.74,3.507 H 0 Z m -2.469,8.672 h 3.734 c 2.363,0 4.697,-1.385 4.697,-5.344 0,-3.63 -2.363,-5.165 -5.013,-5.165 h -3.418"
         style="fill:#58ab46;fill-opacity:1;fill-rule:nonzero;stroke:none"
         id="path298" />
    </g>
    <g
       id="g300"
       transform="translate(76.046,401.887)">
      <path
         d="M 0,0 H 6.067 V -1.837 H 2.379 V -4.185 H 5.886 V -6.022 H 2.379 v -2.65 h 3.869 v -1.836 H 0"
         style="fill:#58ab46;fill-opacity:1;fill-rule:nonzero;stroke:none"
         id="path302" />
    </g>
    <g
       id="g304"
       transform="translate(93.774,401.887)">
      <path
         d="m 0,0 h 2.891 l 3.056,-7.287 h 0.03 V 0 H 8.145 V -10.508 H 5.224 l -3.026,7.602 h -0.03 v -7.602 H 0"
         style="fill:#4a4a52;fill-opacity:1;fill-rule:nonzero;stroke:none"
         id="path306" />
    </g>
    <g
       id="g308"
       transform="translate(108.644,399.869)">
      <path
         d="M 0,0 H -0.03 L -1.279,-4.366 H 1.085 Z M 1.566,-6.142 H -1.731 L -2.454,-8.491 H -4.831 L -1.339,2.018 H 1.372 L 4.742,-8.491 H 2.213"
         style="fill:#4a4a52;fill-opacity:1;fill-rule:nonzero;stroke:none"
         id="path310" />
    </g>
    <g
       id="g312"
       transform="translate(123.907,399.689)">
      <path
         d="M 0,0 H -0.031 L -2.394,-8.311 H -4.02 L -6.293,0 H -6.324 V -8.311 H -8.582 V 2.198 h 3.718 l 1.702,-6.76 h 0.03 l 1.837,6.76 H 2.258 V -8.311 H 0"
         style="fill:#4a4a52;fill-opacity:1;fill-rule:nonzero;stroke:none"
         id="path314" />
    </g>
    <g
       id="g316"
       transform="translate(128.66,401.887)">
      <path
         d="m 0,0 h 2.469 v -7.091 c 0,-1.054 0.391,-1.701 1.385,-1.701 0.994,0 1.384,0.647 1.384,1.701 V 0 h 2.47 v -6.7 c 0,-2.604 -1.49,-3.989 -3.854,-3.989 C 1.49,-10.689 0,-9.304 0,-6.7"
         style="fill:#4a4a52;fill-opacity:1;fill-rule:nonzero;stroke:none"
         id="path318" />
    </g>
    <g
       id="g320"
       transform="translate(141.322,397.401)">
      <path
         d="m 0,0 h 0.767 c 0.949,0 1.446,0.632 1.446,1.385 0,0.436 -0.136,1.324 -1.461,1.324 H 0 Z m -2.379,4.486 h 3.855 c 1.731,0 3.207,-0.768 3.207,-2.71 0,-0.437 -0.061,-2.168 -2.093,-2.575 v -0.03 C 3.357,-0.919 3.659,-1.341 4.05,-2.59 L 5.134,-6.023 H 2.545 l -0.814,2.816 c -0.406,1.429 -0.737,1.429 -1.64,1.429 v -4.245 h -2.47"
         style="fill:#4a4a52;fill-opacity:1;fill-rule:nonzero;stroke:none"
         id="path322" />
    </g>
    <path
       d="m 140.215,416.858 h 6.242 v 1.876 h -6.242 z"
       style="fill:#58ab46;fill-opacity:1;fill-rule:nonzero;stroke:none"
       id="path324" />
    <g
       id="g326"
       transform="translate(146.457,442.713)">
      <path
         d="m 0,0 c -3.099,3.783 -4.961,8.62 -4.961,13.891 0,5.272 1.862,10.108 4.961,13.89 v 3.55 C -4.542,26.91 -7.364,20.73 -7.364,13.891 -7.364,7.181 -4.648,1.108 -0.255,-3.295 -0.089,-2.505 0,-1.687 0,-0.847"
         style="fill:#67696c;fill-opacity:1;fill-rule:nonzero;stroke:none"
         id="path328" />
    </g>
    <g
       id="g330"
       transform="translate(127.871,478.695)">
      <path
         d="m 0,0 c 1.62,-1.916 3.942,-1.231 6.63,-2.431 1.92,-0.859 1.913,-2.689 3.122,-4.751 0.632,-1.075 1.443,-1.998 2.326,-2.825 0.272,0.525 0.56,1.039 0.865,1.543 -1.874,2.379 -1.879,5.403 -4.56,7.29 -1.114,0.785 -2.124,0.888 -3.835,1.956 3.059,-0.644 5.516,-0.318 7.854,-2.383 1.244,-1.101 1.755,-2.811 2.628,-3.9 0.412,0.508 0.842,1 1.29,1.476 -1.482,2.434 -2.647,5.304 -5.074,6.468 C 9.104,3.472 5.933,1.882 3.25,2.879 2.77,3.057 2.407,3.398 2.098,3.83 H -1.906 C -1.428,2.502 -0.967,1.146 0,0"
         style="fill:#67696c;fill-opacity:1;fill-rule:nonzero;stroke:none"
         id="path332" />
    </g>
    <g
       id="g334"
       transform="translate(129.149,457.549)">
      <path
         d="M 0,0 3.504,2.017 C 5.149,1.859 6.561,0.787 7.9,0.411 7.934,1.071 7.992,1.725 8.074,2.37 5.453,3.465 2.831,5.092 0.191,4.609 -2.146,4.182 -3.777,1.032 -6.535,0.261 c -1.806,-0.503 -3.635,1.676 -5.905,1.917 -3.165,0.337 -5.001,-1.642 -7.911,-3.123 2.052,0.169 2.948,0.763 4.334,0.789 3.5,0.066 5.32,-3.028 8.546,-3.822 2.438,-0.599 3.913,1.321 6.795,1.93 2.058,0.433 3.127,-1.05 5.316,-2.007 C 5.779,-4.553 6.971,-4.82 8.168,-4.972 8.079,-4.392 8.011,-3.805 7.962,-3.213 5.057,-2.389 3.275,0.05 0,0"
         style="fill:#67696c;fill-opacity:1;fill-rule:nonzero;stroke:none"
         id="path336" />
    </g>
    <g
       id="g338"
       transform="translate(111.411,439.7)">
      <path
         d="m 0,0 27.719,6.519 c -0.616,1.439 -1.106,2.943 -1.46,4.5"
         style="fill:#67696c;fill-opacity:1;fill-rule:nonzero;stroke:none"
         id="path340" />
    </g>
    <g
       id="g342"
       transform="translate(135.14,437.217)">
      <path
         d="m 0,0 c -1.086,-0.816 -1.499,-1.747 -3.042,-3.045 1.557,2.71 2.008,5.147 4.693,6.734 C 3.074,4.526 4.843,4.49 6.147,4.973 5.79,5.522 5.451,6.083 5.134,6.659 2.37,6.007 -0.704,5.779 -2.553,3.841 -4.193,2.122 -3.66,-1.386 -5.437,-3.632 c -1.166,-1.469 -3.927,-0.781 -5.905,-1.922 -0.778,-0.447 -1.362,-0.981 -1.833,-1.583 h 10.316 c 1.532,1.142 1.818,3.196 3.517,5.081 1.409,1.56 3.147,0.987 5.481,1.5 1.216,0.269 2.34,0.753 3.399,1.336 C 9.121,1.199 8.718,1.632 8.331,2.079 5.496,1.038 2.621,1.961 0,0"
         style="fill:#67696c;fill-opacity:1;fill-rule:nonzero;stroke:none"
         id="path344" />
    </g>
    <g
       id="g346"
       transform="translate(125.984,470.081)">
      <path
         d="m 0,0 v -2.688 l 11.693,-4.906 c 0.356,1.556 0.85,3.061 1.468,4.498"
         style="fill:#67696c;fill-opacity:1;fill-rule:nonzero;stroke:none"
         id="path348" />
    </g>
    <g
       id="g350">
      <g
         id="g352"
         clip-path="url(#clipPath356)">
        <g
           id="g358"
           clip-path="url(#clipPath362)">
          <g
             id="g364">
            <g
               id="g366"
               clip-path="url(#clipPath370)">
              <path
                 d="M 107.192,470.818 V 456.8 c 0.953,4.364 4.439,7.792 9.219,7.792 5.886,0 9.542,-4.525 9.542,-10.225 v -17.809 h 4.781 c 2.641,0.02 4.6,1.759 4.6,4.838 v 13.465 c 0,10.537 -8.575,18.284 -18.923,18.284 -3.332,0 -6.482,-0.841 -9.219,-2.327"
                 style="fill:url(#linearGradient378);stroke:none"
                 id="path380" />
            </g>
          </g>
        </g>
      </g>
    </g>
    <g
       id="g382">
      <g
         id="g384"
         clip-path="url(#clipPath388)">
        <g
           id="g390"
           clip-path="url(#clipPath394)">
          <g
             id="g396">
            <g
               id="g398"
               clip-path="url(#clipPath402)">
              <path
                 d="m 81.773,473.145 c -2.641,-0.02 -4.6,-1.759 -4.6,-4.838 V 454.84 c 0,-10.535 8.574,-18.281 18.923,-18.281 3.33,0 6.482,0.839 9.219,2.325 v 14.019 c -0.954,-4.365 -4.439,-7.791 -9.219,-7.791 -5.888,0 -9.542,4.524 -9.542,10.224 v 17.809"
                 style="fill:url(#linearGradient410);stroke:none"
                 id="path412" />
            </g>
          </g>
        </g>
      </g>
    </g>
    <g
       id="g414"
       transform="translate(66.39,367.005)">
      <path
         d="M 0,0 H 3.508 V -0.831 H 0.946 v -1.93 H 3.395 V -3.593 H 0.946 V -6.6 H 0"
         style="fill:#4a4a52;fill-opacity:1;fill-rule:nonzero;stroke:none"
         id="path416" />
    </g>
    <g
       id="g418"
       transform="translate(73.111,366.117)">
      <path
         d="M 0,0 -1.314,-3.272 H 1.314 Z M -0.464,0.888 H 0.53 l 2.789,-6.6 H 2.288 l -0.671,1.664 h -3.234 l -0.671,-1.664 h -0.994"
         style="fill:#4a4a52;fill-opacity:1;fill-rule:nonzero;stroke:none"
         id="path420" />
    </g>
    <g
       id="g422"
       transform="translate(81.502,365.918)">
      <path
         d="m 0,0 c -0.416,0.246 -0.88,0.369 -1.361,0.369 -1.523,0 -2.534,-1.097 -2.534,-2.582 0,-1.55 1.115,-2.581 2.486,-2.581 0.473,0 1.106,0.123 1.437,0.321 L 0.085,-5.39 c -0.501,-0.208 -1.115,-0.237 -1.503,-0.237 -2.091,0 -3.48,1.344 -3.48,3.443 0,2.033 1.475,3.385 3.489,3.385 0.51,0 1.012,-0.076 1.485,-0.283"
         style="fill:#4a4a52;fill-opacity:1;fill-rule:nonzero;stroke:none"
         id="path424" />
    </g>
    <g
       id="g426"
       transform="translate(87.649,363.138)">
      <path
         d="m 0,0 c 0,-1.853 -0.937,-2.846 -2.563,-2.846 -1.626,0 -2.562,0.993 -2.562,2.846 v 3.867 h 0.946 V 0.123 c 0,-1.268 0.397,-2.137 1.616,-2.137 1.22,0 1.617,0.869 1.617,2.137 V 3.867 H 0"
         style="fill:#4a4a52;fill-opacity:1;fill-rule:nonzero;stroke:none"
         id="path428" />
    </g>
    <g
       id="g430"
       transform="translate(89.189,367.005)">
      <path
         d="m 0,0 h 0.946 v -5.768 h 2.76 V -6.6 H 0"
         style="fill:#4a4a52;fill-opacity:1;fill-rule:nonzero;stroke:none"
         id="path432" />
    </g>
    <g
       id="g434"
       transform="translate(94.389,366.173)">
      <path
         d="m 0,0 h -2.052 v 0.832 h 5.05 V 0 H 0.946 V -5.768 H 0"
         style="fill:#4a4a52;fill-opacity:1;fill-rule:nonzero;stroke:none"
         id="path436" />
    </g>
    <g
       id="g438"
       transform="translate(100.208,368.849)">
      <path
         d="M 0,0 H 1.031 L -0.207,-1.361 H -0.841 Z M -1.957,-1.844 H 1.741 V -2.676 H -1.011 V -4.605 H 1.495 V -5.436 H -1.011 V -7.612 H 1.741 V -8.444 H -1.957"
         style="fill:#4a4a52;fill-opacity:1;fill-rule:nonzero;stroke:none"
         id="path440" />
    </g>
    <g
       id="g442"
       transform="translate(67.335,351.026)">
      <path
         d="m 0,0 h 0.993 c 1.626,0 2.525,0.784 2.525,2.486 0,1.542 -1.05,2.449 -2.411,2.449 L 0,4.935 Z m -0.946,5.768 h 1.949 c 1.957,0 3.517,-1.21 3.517,-3.244 0,-2.213 -1.342,-3.356 -3.517,-3.356 h -1.949"
         style="fill:#4a4a52;fill-opacity:1;fill-rule:nonzero;stroke:none"
         id="path444" />
    </g>
    <g
       id="g446"
       transform="translate(73.111,356.794)">
      <path
         d="M 0,0 H 3.697 V -0.832 H 0.946 v -1.93 H 3.452 V -3.594 H 0.946 V -5.769 H 3.697 V -6.601 H 0"
         style="fill:#4a4a52;fill-opacity:1;fill-rule:nonzero;stroke:none"
         id="path448" />
    </g>
    <g
       id="g450"
       transform="translate(81.839,351.026)">
      <path
         d="m 0,0 h 0.993 c 1.626,0 2.525,0.784 2.525,2.486 0,1.542 -1.05,2.449 -2.411,2.449 L 0,4.935 Z m -0.946,5.768 h 1.949 c 1.957,0 3.517,-1.21 3.517,-3.244 0,-2.213 -1.342,-3.356 -3.517,-3.356 h -1.949"
         style="fill:#4a4a52;fill-opacity:1;fill-rule:nonzero;stroke:none"
         id="path452" />
    </g>
    <g
       id="g454"
       transform="translate(88.512,353.957)">
      <path
         d="m 0,0 h 0.804 c 0.898,0 1.428,0.397 1.428,1.03 0,0.596 -0.454,0.975 -1.324,0.975 H 0 Z m -0.946,2.837 h 1.618 c 1.304,0 2.562,-0.208 2.562,-1.788 0,-0.803 -0.596,-1.371 -1.362,-1.503 V -0.473 C 2.165,-0.587 2.307,-0.729 2.515,-1.135 L 3.763,-3.764 H 2.686 L 1.674,-1.476 C 1.38,-0.832 1.068,-0.832 0.568,-0.832 H 0 v -2.932 h -0.946"
         style="fill:#4a4a52;fill-opacity:1;fill-rule:nonzero;stroke:none"
         id="path456" />
    </g>
    <g
       id="g458"
       transform="translate(95.939,350.912)">
      <path
         d="M 0,0 C 1.522,0 2.175,1.267 2.175,2.582 2.175,3.924 1.456,5.173 0,5.163 -1.456,5.173 -2.175,3.924 -2.175,2.582 -2.175,1.267 -1.522,0 0,0 m 0,5.995 c 2.005,0 3.178,-1.456 3.178,-3.413 0,-2.005 -1.164,-3.414 -3.178,-3.414 -2.014,0 -3.178,1.409 -3.178,3.414 0,1.957 1.173,3.413 3.178,3.413"
         style="fill:#4a4a52;fill-opacity:1;fill-rule:nonzero;stroke:none"
         id="path460" />
    </g>
    <path
       d="m 100.353,350.193 h 0.94499 v 6.601 H 100.353 Z"
       style="fill:#4a4a52;fill-opacity:1;fill-rule:nonzero;stroke:none"
       id="path462" />
    <g
       id="g464"
       transform="translate(104.183,355.962)">
      <path
         d="m 0,0 h -2.052 v 0.831 h 5.05 V 0 H 0.946 V -5.769 H 0"
         style="fill:#4a4a52;fill-opacity:1;fill-rule:nonzero;stroke:none"
         id="path466" />
    </g>
    <path
       d="m 66.05,372.633 h 80.409 v 0.93799 H 66.05 Z"
       style="fill:#58ab46;fill-opacity:1;fill-rule:nonzero;stroke:none"
       id="path468" />
    <path
       d="m 66.05,372.634 h 80.409 v 1.876 H 66.05 Z"
       style="fill:#58ab46;fill-opacity:1;fill-rule:nonzero;stroke:none"
       id="path470" />
    <path
       d="M 56.669,279.398 H 425.015 M 56.669,506.073 h 368.346"
       style="fill:none;stroke:#9b9da0;stroke-width:0.5;stroke-linecap:butt;stroke-linejoin:miter;stroke-miterlimit:4;stroke-dasharray:1.9911, 1.9911;stroke-dashoffset:0;stroke-opacity:1"
       id="path1464" />
  </g>
</svg>
