<?xml version="1.0" encoding="UTF-8" standalone="no"?>
<!-- Created with Inkscape (http://www.inkscape.org/) -->
<!-- Extracted from PDF "Université de Namur - Charte graphique" by Jules Dejaeghere :) -->

<svg
   version="1.1"
   id="svg2"
   width="132.228"
   height="208.96129"
   viewBox="0 0 132.228 208.96128"
   xmlns="http://www.w3.org/2000/svg"
   xmlns:svg="http://www.w3.org/2000/svg">
  <defs
     id="defs6">
    <clipPath
       clipPathUnits="userSpaceOnUse"
       id="clipPath1064">
      <path
         d="m 305.533,473.145 h 28.142 v -36.587 h -28.142 z"
         id="path1062" />
    </clipPath>
    <clipPath
       clipPathUnits="userSpaceOnUse"
       id="clipPath1070">
      <path
         d="M 305.533,470.818 V 456.8 c 0.952,4.364 4.439,7.792 9.219,7.792 5.886,0 9.542,-4.525 9.542,-10.225 v -17.809 h 4.78 c 2.642,0.02 4.601,1.759 4.601,4.838 v 13.465 c 0,10.537 -8.575,18.284 -18.923,18.284 -3.331,0 -6.483,-0.841 -9.219,-2.327"
         id="path1068" />
    </clipPath>
    <clipPath
       clipPathUnits="userSpaceOnUse"
       id="clipPath1078">
      <path
         d="M 305.53228,473.14409 H 333.675 v -36.58624 h -28.14272 z"
         id="path1076" />
    </clipPath>
    <linearGradient
       x1="0"
       y1="0"
       x2="1"
       y2="0"
       gradientUnits="userSpaceOnUse"
       gradientTransform="matrix(28.143,0,0,-28.143,305.532,454.851)"
       spreadMethod="pad"
       id="linearGradient1086">
      <stop
         style="stop-opacity:1;stop-color:#898b8e"
         offset="0"
         id="stop1080" />
      <stop
         style="stop-opacity:1;stop-color:#ffffff"
         offset="0.225006"
         id="stop1082" />
      <stop
         style="stop-opacity:1;stop-color:#ffffff"
         offset="1"
         id="stop1084" />
    </linearGradient>
    <clipPath
       clipPathUnits="userSpaceOnUse"
       id="clipPath1096">
      <path
         d="m 275.513,473.144 h 28.143 v -36.585 h -28.143 z"
         id="path1094" />
    </clipPath>
    <clipPath
       clipPathUnits="userSpaceOnUse"
       id="clipPath1102">
      <path
         d="m 280.113,473.145 c -2.64,-0.02 -4.601,-1.759 -4.601,-4.838 V 454.84 c 0,-10.535 8.575,-18.281 18.925,-18.281 3.331,0 6.481,0.839 9.219,2.325 v 14.019 c -0.954,-4.365 -4.44,-7.791 -9.219,-7.791 -5.887,0 -9.543,4.524 -9.543,10.224 v 17.809"
         id="path1100" />
    </clipPath>
    <clipPath
       clipPathUnits="userSpaceOnUse"
       id="clipPath1110">
      <path
         d="m 275.513,473.14478 h 28.143 v -36.58511 h -28.143 z"
         id="path1108" />
    </clipPath>
    <linearGradient
       x1="0"
       y1="0"
       x2="1"
       y2="0"
       gradientUnits="userSpaceOnUse"
       gradientTransform="matrix(28.143,0,0,-28.143,275.513,454.852)"
       spreadMethod="pad"
       id="linearGradient1118">
      <stop
         style="stop-opacity:1;stop-color:#ffffff"
         offset="0"
         id="stop1112" />
      <stop
         style="stop-opacity:1;stop-color:#ffffff"
         offset="0.774994"
         id="stop1114" />
      <stop
         style="stop-opacity:1;stop-color:#898b8e"
         offset="1"
         id="stop1116" />
    </linearGradient>
  </defs>
  <g
     id="g10"
     transform="matrix(1.3333333,0,0,-1.3333333,-340.01065,655.87331)">
    <g
       id="g960"
       transform="translate(303.656,470.74)">
      <path
         d="m 0,0 c 0,6.509 -5.277,11.785 -11.785,11.785 h -27.481 v -40.659 c 0,-6.509 5.258,-11.786 11.767,-11.786 h 15.714 c 0,0 9.549,0.499 11.785,-7.592"
         style="fill:#919395;fill-opacity:1;fill-rule:nonzero;stroke:none"
         id="path962" />
    </g>
    <g
       id="g964"
       transform="translate(305.532,470.74)">
      <path
         d="m 0,0 c 0,6.509 5.277,11.785 11.785,11.785 h 27.481 v -40.659 c 0,-6.509 -5.257,-11.786 -11.767,-11.786 H 11.785 c 0,0 -9.549,0.499 -11.785,-7.592"
         style="fill:#231f20;fill-opacity:1;fill-rule:nonzero;stroke:none"
         id="path966" />
    </g>
    <g
       id="g968"
       transform="translate(299.643,414.982)">
      <path
         d="M 0,0 H 6.238 V -1.836 H 2.379 V -4.185 H 6.25 V -6.023 H 2.379 v -2.648 h 3.869 v -1.837 H 0"
         style="fill:#231f20;fill-opacity:1;fill-rule:nonzero;stroke:none"
         id="path970" />
    </g>
    <g
       id="g972"
       transform="translate(264.389,414.982)">
      <path
         d="m 0,0 h 2.469 v -7.091 c 0,-1.054 0.391,-1.7 1.385,-1.7 0.994,0 1.385,0.646 1.385,1.7 V 0 H 7.708 V -6.699 C 7.708,-9.304 6.217,-10.69 3.854,-10.69 1.49,-10.69 0,-9.304 0,-6.699"
         style="fill:#231f20;fill-opacity:1;fill-rule:nonzero;stroke:none"
         id="path974" />
    </g>
    <g
       id="g976"
       transform="translate(274.386,414.982)">
      <path
         d="m 0,0 h 2.89 l 3.056,-7.287 h 0.03 V 0 h 2.169 v -10.508 h -2.92 l -3.027,7.602 h -0.03 v -7.602 H 0"
         style="fill:#231f20;fill-opacity:1;fill-rule:nonzero;stroke:none"
         id="path978" />
    </g>
    <path
       d="m 284.924,404.474 h 2.469 v 10.508 h -2.469 z"
       style="fill:#231f20;fill-opacity:1;fill-rule:nonzero;stroke:none"
       id="path980" />
    <g
       id="g982"
       transform="translate(288.958,414.982)">
      <path
         d="M 0,0 H 2.65 L 4.503,-7.664 H 4.532 L 6.429,0 h 2.53 L 5.781,-10.508 H 3.132"
         style="fill:#231f20;fill-opacity:1;fill-rule:nonzero;stroke:none"
         id="path984" />
    </g>
    <g
       id="g986"
       transform="translate(310.446,410.496)">
      <path
         d="M 0,0 H 0.768 C 1.717,0 2.214,0.632 2.214,1.384 2.214,1.821 2.078,2.71 0.753,2.71 H 0 Z m -2.378,4.486 h 3.854 c 1.732,0 3.207,-0.768 3.207,-2.71 0,-0.437 -0.061,-2.168 -2.093,-2.575 v -0.03 C 3.359,-0.919 3.66,-1.34 4.05,-2.59 L 5.134,-6.022 H 2.545 l -0.813,2.814 c -0.406,1.431 -0.737,1.431 -1.641,1.431 v -4.245 h -2.469"
         style="fill:#231f20;fill-opacity:1;fill-rule:nonzero;stroke:none"
         id="path988" />
    </g>
    <g
       id="g990"
       transform="translate(323.167,412.844)">
      <path
         d="m 0,0 c -0.587,0.302 -1.414,0.542 -2.077,0.542 -0.798,0 -1.4,-0.361 -1.4,-1.143 0,-1.913 4.14,-1.025 4.14,-4.758 0,-1.988 -1.581,-3.192 -3.674,-3.192 -1.279,0 -2.378,0.301 -2.829,0.437 l 0.134,2.047 c 0.738,-0.286 1.386,-0.648 2.304,-0.648 0.783,0 1.536,0.392 1.536,1.251 0,2.032 -4.14,1.038 -4.14,4.787 0,0.317 0.12,2.995 3.643,2.995 0.964,0 1.566,-0.165 2.469,-0.36"
         style="fill:#231f20;fill-opacity:1;fill-rule:nonzero;stroke:none"
         id="path992" />
    </g>
    <path
       d="m 325.822,404.474 h 2.469 v 10.508 h -2.469 z"
       style="fill:#231f20;fill-opacity:1;fill-rule:nonzero;stroke:none"
       id="path994" />
    <g
       id="g996"
       transform="translate(332.265,413.085)">
      <path
         d="M 0,0 H -2.289 V 1.896 H 4.757 V 0 H 2.469 V -8.611 H 0"
         style="fill:#231f20;fill-opacity:1;fill-rule:nonzero;stroke:none"
         id="path998" />
    </g>
    <g
       id="g1000"
       transform="translate(338.548,414.982)">
      <path
         d="M 0,0 H 6.239 V -1.836 H 2.378 V -4.185 H 6.25 V -6.023 H 2.378 v -2.648 h 3.87 v -1.837 H 0"
         style="fill:#231f20;fill-opacity:1;fill-rule:nonzero;stroke:none"
         id="path1002" />
    </g>
    <g
       id="g1004"
       transform="translate(266.858,393.215)">
      <path
         d="m 0,0 h 0.784 c 1.791,0 2.589,1.415 2.589,3.328 0,2.168 -0.829,3.507 -2.74,3.507 H 0 Z m -2.469,8.672 h 3.733 c 2.364,0 4.698,-1.385 4.698,-5.344 0,-3.63 -2.364,-5.165 -5.013,-5.165 h -3.418"
         style="fill:#919395;fill-opacity:1;fill-rule:nonzero;stroke:none"
         id="path1006" />
    </g>
    <g
       id="g1008"
       transform="translate(274.386,401.887)">
      <path
         d="M 0,0 H 6.068 V -1.837 H 2.379 V -4.185 H 5.887 V -6.022 H 2.379 v -2.65 h 3.87 v -1.836 H 0"
         style="fill:#919395;fill-opacity:1;fill-rule:nonzero;stroke:none"
         id="path1010" />
    </g>
    <g
       id="g1012"
       transform="translate(292.115,401.887)">
      <path
         d="m 0,0 h 2.891 l 3.055,-7.287 h 0.03 V 0 H 8.144 V -10.508 H 5.224 L 2.199,-2.906 H 2.168 v -7.602 H 0"
         style="fill:#231f20;fill-opacity:1;fill-rule:nonzero;stroke:none"
         id="path1014" />
    </g>
    <g
       id="g1016"
       transform="translate(306.985,399.869)">
      <path
         d="M 0,0 H -0.03 L -1.279,-4.366 H 1.085 Z M 1.566,-6.142 H -1.731 L -2.454,-8.491 H -4.832 L -1.339,2.018 H 1.372 L 4.742,-8.491 H 2.213"
         style="fill:#231f20;fill-opacity:1;fill-rule:nonzero;stroke:none"
         id="path1018" />
    </g>
    <g
       id="g1020"
       transform="translate(322.248,399.689)">
      <path
         d="M 0,0 H -0.031 L -2.394,-8.311 H -4.02 L -6.293,0 H -6.324 V -8.311 H -8.582 V 2.198 h 3.718 l 1.702,-6.76 h 0.03 l 1.836,6.76 H 2.258 V -8.311 H 0"
         style="fill:#231f20;fill-opacity:1;fill-rule:nonzero;stroke:none"
         id="path1022" />
    </g>
    <g
       id="g1024"
       transform="translate(327.001,401.887)">
      <path
         d="m 0,0 h 2.468 v -7.091 c 0,-1.054 0.391,-1.701 1.386,-1.701 0.993,0 1.384,0.647 1.384,1.701 V 0 h 2.47 v -6.7 c 0,-2.604 -1.49,-3.989 -3.854,-3.989 C 1.49,-10.689 0,-9.304 0,-6.7"
         style="fill:#231f20;fill-opacity:1;fill-rule:nonzero;stroke:none"
         id="path1026" />
    </g>
    <g
       id="g1028"
       transform="translate(339.663,397.401)">
      <path
         d="m 0,0 h 0.767 c 0.949,0 1.446,0.632 1.446,1.385 0,0.436 -0.136,1.324 -1.461,1.324 H 0 Z m -2.379,4.486 h 3.855 c 1.731,0 3.206,-0.768 3.206,-2.71 0,-0.437 -0.06,-2.168 -2.093,-2.575 v -0.03 C 3.357,-0.919 3.659,-1.341 4.05,-2.59 L 5.133,-6.023 H 2.545 l -0.814,2.816 c -0.406,1.429 -0.737,1.429 -1.64,1.429 v -4.245 h -2.47"
         style="fill:#231f20;fill-opacity:1;fill-rule:nonzero;stroke:none"
         id="path1030" />
    </g>
    <path
       d="m 338.556,416.858 h 6.243 v 1.876 h -6.243 z"
       style="fill:#919395;fill-opacity:1;fill-rule:nonzero;stroke:none"
       id="path1032" />
    <g
       id="g1034"
       transform="translate(344.798,442.713)">
      <path
         d="m 0,0 c -3.099,3.783 -4.961,8.62 -4.961,13.891 0,5.272 1.862,10.108 4.961,13.89 v 3.55 C -4.542,26.91 -7.365,20.73 -7.365,13.891 c 0,-6.71 2.717,-12.783 7.11,-17.186 C -0.089,-2.505 0,-1.687 0,-0.847"
         style="fill:#4a4a4c;fill-opacity:1;fill-rule:nonzero;stroke:none"
         id="path1036" />
    </g>
    <g
       id="g1038"
       transform="translate(326.212,478.695)">
      <path
         d="m 0,0 c 1.62,-1.916 3.942,-1.231 6.63,-2.431 1.92,-0.859 1.913,-2.689 3.122,-4.751 0.632,-1.075 1.443,-1.998 2.326,-2.825 0.272,0.525 0.56,1.039 0.864,1.543 -1.873,2.379 -1.878,5.403 -4.56,7.29 -1.113,0.785 -2.123,0.888 -3.834,1.956 3.059,-0.644 5.516,-0.318 7.854,-2.383 1.244,-1.101 1.755,-2.811 2.628,-3.9 0.411,0.508 0.842,1 1.29,1.476 -1.482,2.434 -2.647,5.304 -5.074,6.468 C 9.104,3.472 5.932,1.882 3.25,2.879 2.77,3.057 2.407,3.398 2.098,3.83 H -1.906 C -1.428,2.502 -0.968,1.146 0,0"
         style="fill:#4a4a4c;fill-opacity:1;fill-rule:nonzero;stroke:none"
         id="path1040" />
    </g>
    <g
       id="g1042"
       transform="translate(327.49,457.549)">
      <path
         d="M 0,0 3.504,2.017 C 5.149,1.859 6.56,0.787 7.9,0.411 7.934,1.071 7.992,1.725 8.074,2.37 5.453,3.465 2.831,5.092 0.191,4.609 -2.146,4.182 -3.777,1.032 -6.535,0.261 c -1.806,-0.503 -3.635,1.676 -5.905,1.917 -3.165,0.337 -5.001,-1.642 -7.911,-3.123 2.052,0.169 2.948,0.763 4.334,0.789 3.5,0.066 5.32,-3.028 8.545,-3.822 2.438,-0.599 3.914,1.321 6.796,1.93 2.058,0.433 3.127,-1.05 5.316,-2.007 C 5.779,-4.553 6.971,-4.82 8.168,-4.972 8.079,-4.392 8.011,-3.805 7.962,-3.213 5.057,-2.389 3.275,0.05 0,0"
         style="fill:#4a4a4c;fill-opacity:1;fill-rule:nonzero;stroke:none"
         id="path1044" />
    </g>
    <g
       id="g1046"
       transform="translate(309.752,439.7)">
      <path
         d="m 0,0 27.719,6.519 c -0.616,1.439 -1.107,2.943 -1.46,4.5"
         style="fill:#4a4a4c;fill-opacity:1;fill-rule:nonzero;stroke:none"
         id="path1048" />
    </g>
    <g
       id="g1050"
       transform="translate(333.481,437.217)">
      <path
         d="m 0,0 c -1.087,-0.816 -1.499,-1.747 -3.042,-3.045 1.557,2.71 2.007,5.147 4.693,6.734 C 3.074,4.526 4.843,4.49 6.147,4.973 5.79,5.522 5.451,6.083 5.134,6.659 2.37,6.007 -0.704,5.779 -2.553,3.841 -4.193,2.122 -3.66,-1.386 -5.437,-3.632 c -1.166,-1.469 -3.927,-0.781 -5.905,-1.922 -0.778,-0.447 -1.363,-0.981 -1.833,-1.583 h 10.316 c 1.532,1.142 1.817,3.196 3.517,5.081 1.409,1.56 3.147,0.987 5.481,1.5 1.216,0.269 2.34,0.753 3.399,1.336 C 9.121,1.199 8.718,1.632 8.33,2.079 5.496,1.038 2.621,1.961 0,0"
         style="fill:#4a4a4c;fill-opacity:1;fill-rule:nonzero;stroke:none"
         id="path1052" />
    </g>
    <g
       id="g1054"
       transform="translate(324.325,470.081)">
      <path
         d="m 0,0 v -2.688 l 11.693,-4.906 c 0.356,1.556 0.85,3.061 1.468,4.498"
         style="fill:#4a4a4c;fill-opacity:1;fill-rule:nonzero;stroke:none"
         id="path1056" />
    </g>
    <g
       id="g1058">
      <g
         id="g1060"
         clip-path="url(#clipPath1064)">
        <g
           id="g1066"
           clip-path="url(#clipPath1070)">
          <g
             id="g1072">
            <g
               id="g1074"
               clip-path="url(#clipPath1078)">
              <path
                 d="M 305.533,470.818 V 456.8 c 0.952,4.364 4.439,7.792 9.219,7.792 5.886,0 9.542,-4.525 9.542,-10.225 v -17.809 h 4.78 c 2.642,0.02 4.601,1.759 4.601,4.838 v 13.465 c 0,10.537 -8.575,18.284 -18.923,18.284 -3.331,0 -6.483,-0.841 -9.219,-2.327"
                 style="fill:url(#linearGradient1086);stroke:none"
                 id="path1088" />
            </g>
          </g>
        </g>
      </g>
    </g>
    <g
       id="g1090">
      <g
         id="g1092"
         clip-path="url(#clipPath1096)">
        <g
           id="g1098"
           clip-path="url(#clipPath1102)">
          <g
             id="g1104">
            <g
               id="g1106"
               clip-path="url(#clipPath1110)">
              <path
                 d="m 280.113,473.145 c -2.64,-0.02 -4.601,-1.759 -4.601,-4.838 V 454.84 c 0,-10.535 8.575,-18.281 18.925,-18.281 3.331,0 6.481,0.839 9.219,2.325 v 14.019 c -0.954,-4.365 -4.44,-7.791 -9.219,-7.791 -5.887,0 -9.543,4.524 -9.543,10.224 v 17.809"
                 style="fill:url(#linearGradient1118);stroke:none"
                 id="path1120" />
            </g>
          </g>
        </g>
      </g>
    </g>
    <g
       id="g1122"
       transform="translate(264.73,367.005)">
      <path
         d="M 0,0 H 3.509 V -0.831 H 0.946 v -1.93 H 3.395 V -3.593 H 0.946 V -6.6 H 0"
         style="fill:#231f20;fill-opacity:1;fill-rule:nonzero;stroke:none"
         id="path1124" />
    </g>
    <g
       id="g1126"
       transform="translate(271.452,366.117)">
      <path
         d="m 0,0 -1.315,-3.272 h 2.629 z m -0.464,0.888 h 0.993 l 2.789,-6.6 h -1.03 l -0.671,1.664 h -3.235 l -0.67,-1.664 h -0.994"
         style="fill:#231f20;fill-opacity:1;fill-rule:nonzero;stroke:none"
         id="path1128" />
    </g>
    <g
       id="g1130"
       transform="translate(279.843,365.918)">
      <path
         d="m 0,0 c -0.416,0.246 -0.88,0.369 -1.361,0.369 -1.523,0 -2.534,-1.097 -2.534,-2.582 0,-1.55 1.115,-2.581 2.486,-2.581 0.473,0 1.106,0.123 1.437,0.321 L 0.085,-5.39 c -0.501,-0.208 -1.116,-0.237 -1.503,-0.237 -2.09,0 -3.48,1.344 -3.48,3.443 0,2.033 1.476,3.385 3.489,3.385 0.51,0 1.012,-0.076 1.485,-0.283"
         style="fill:#231f20;fill-opacity:1;fill-rule:nonzero;stroke:none"
         id="path1132" />
    </g>
    <g
       id="g1134"
       transform="translate(285.989,363.138)">
      <path
         d="m 0,0 c 0,-1.853 -0.936,-2.846 -2.563,-2.846 -1.626,0 -2.562,0.993 -2.562,2.846 v 3.867 h 0.946 V 0.123 c 0,-1.268 0.397,-2.137 1.616,-2.137 1.22,0 1.618,0.869 1.618,2.137 V 3.867 H 0"
         style="fill:#231f20;fill-opacity:1;fill-rule:nonzero;stroke:none"
         id="path1136" />
    </g>
    <g
       id="g1138"
       transform="translate(287.53,367.005)">
      <path
         d="M 0,0 H 0.945 V -5.768 H 3.706 V -6.6 H 0"
         style="fill:#231f20;fill-opacity:1;fill-rule:nonzero;stroke:none"
         id="path1140" />
    </g>
    <g
       id="g1142"
       transform="translate(292.729,366.173)">
      <path
         d="m 0,0 h -2.052 v 0.832 h 5.05 V 0 H 0.946 V -5.768 H 0"
         style="fill:#231f20;fill-opacity:1;fill-rule:nonzero;stroke:none"
         id="path1144" />
    </g>
    <g
       id="g1146"
       transform="translate(298.549,368.849)">
      <path
         d="M 0,0 H 1.031 L -0.208,-1.361 H -0.841 Z M -1.957,-1.844 H 1.741 V -2.676 H -1.011 V -4.605 H 1.495 V -5.436 H -1.011 V -7.612 H 1.741 V -8.444 H -1.957"
         style="fill:#231f20;fill-opacity:1;fill-rule:nonzero;stroke:none"
         id="path1148" />
    </g>
    <g
       id="g1150"
       transform="translate(265.676,351.026)">
      <path
         d="m 0,0 h 0.993 c 1.626,0 2.525,0.784 2.525,2.486 0,1.542 -1.05,2.449 -2.411,2.449 L 0,4.935 Z m -0.946,5.768 h 1.949 c 1.957,0 3.517,-1.21 3.517,-3.244 0,-2.213 -1.342,-3.356 -3.517,-3.356 h -1.949"
         style="fill:#231f20;fill-opacity:1;fill-rule:nonzero;stroke:none"
         id="path1152" />
    </g>
    <g
       id="g1154"
       transform="translate(271.452,356.794)">
      <path
         d="M 0,0 H 3.697 V -0.832 H 0.946 v -1.93 H 3.452 V -3.594 H 0.946 V -5.769 H 3.697 V -6.601 H 0"
         style="fill:#231f20;fill-opacity:1;fill-rule:nonzero;stroke:none"
         id="path1156" />
    </g>
    <g
       id="g1158"
       transform="translate(280.18,351.026)">
      <path
         d="m 0,0 h 0.992 c 1.626,0 2.525,0.784 2.525,2.486 0,1.542 -1.05,2.449 -2.411,2.449 L 0,4.935 Z m -0.946,5.768 h 1.948 c 1.957,0 3.518,-1.21 3.518,-3.244 0,-2.213 -1.343,-3.356 -3.518,-3.356 h -1.948"
         style="fill:#231f20;fill-opacity:1;fill-rule:nonzero;stroke:none"
         id="path1160" />
    </g>
    <g
       id="g1162"
       transform="translate(286.853,353.957)">
      <path
         d="m 0,0 h 0.804 c 0.898,0 1.428,0.397 1.428,1.03 0,0.596 -0.454,0.975 -1.325,0.975 H 0 Z m -0.946,2.837 h 1.618 c 1.304,0 2.561,-0.208 2.561,-1.788 0,-0.803 -0.595,-1.371 -1.361,-1.503 V -0.473 C 2.165,-0.587 2.307,-0.729 2.515,-1.135 L 3.763,-3.764 H 2.686 L 1.674,-1.476 C 1.38,-0.832 1.068,-0.832 0.568,-0.832 H 0 v -2.932 h -0.946"
         style="fill:#231f20;fill-opacity:1;fill-rule:nonzero;stroke:none"
         id="path1164" />
    </g>
    <g
       id="g1166"
       transform="translate(294.28,350.912)">
      <path
         d="M 0,0 C 1.522,0 2.175,1.267 2.175,2.582 2.175,3.924 1.457,5.173 0,5.163 -1.456,5.173 -2.175,3.924 -2.175,2.582 -2.175,1.267 -1.522,0 0,0 m 0,5.995 c 2.005,0 3.178,-1.456 3.178,-3.413 0,-2.005 -1.164,-3.414 -3.178,-3.414 -2.014,0 -3.177,1.409 -3.177,3.414 0,1.957 1.172,3.413 3.177,3.413"
         style="fill:#231f20;fill-opacity:1;fill-rule:nonzero;stroke:none"
         id="path1168" />
    </g>
    <path
       d="m 298.693,350.193 h 0.94601 v 6.601 H 298.693 Z"
       style="fill:#231f20;fill-opacity:1;fill-rule:nonzero;stroke:none"
       id="path1170" />
    <g
       id="g1172"
       transform="translate(302.524,355.962)">
      <path
         d="m 0,0 h -2.052 v 0.831 h 5.05 V 0 H 0.946 V -5.769 H 0"
         style="fill:#231f20;fill-opacity:1;fill-rule:nonzero;stroke:none"
         id="path1174" />
    </g>
    <path
       d="m 264.389,372.633 h 80.409 v 0.93799 h -80.409 z"
       style="fill:#919395;fill-opacity:1;fill-rule:nonzero;stroke:none"
       id="path1176" />
    <path
       d="m 264.389,372.634 h 80.409 v 1.876 h -80.409 z"
       style="fill:#919395;fill-opacity:1;fill-rule:nonzero;stroke:none"
       id="path1178" />
    <path
       d="M 56.669,279.398 H 425.015 M 56.669,506.073 h 368.346"
       style="fill:none;stroke:#9b9da0;stroke-width:0.5;stroke-linecap:butt;stroke-linejoin:miter;stroke-miterlimit:4;stroke-dasharray:1.9911, 1.9911;stroke-dashoffset:0;stroke-opacity:1"
       id="path1464" />
  </g>
</svg>
