<?xml version="1.0" encoding="UTF-8" standalone="no"?>
<!-- Created with Inkscape (http://www.inkscape.org/) -->
<!-- Extracted from PDF "Université de Namur - Charte graphique" by Jules Dejaeghere :) -->

<svg
   version="1.1"
   id="svg2"
   width="197.21465"
   height="222.57732"
   viewBox="0 0 197.21465 222.57731"
   xmlns="http://www.w3.org/2000/svg"
   xmlns:svg="http://www.w3.org/2000/svg">
  <defs
     id="defs6">
    <clipPath
       clipPathUnits="userSpaceOnUse"
       id="clipPath398">
      <path
         d="m 107.192,473.145 h 28.142 v -36.587 h -28.142 z"
         id="path396" />
    </clipPath>
    <clipPath
       clipPathUnits="userSpaceOnUse"
       id="clipPath404">
      <path
         d="M 107.192,470.818 V 456.8 c 0.953,4.364 4.439,7.792 9.219,7.792 5.887,0 9.542,-4.525 9.542,-10.225 v -17.809 h 4.781 c 2.641,0.02 4.6,1.759 4.6,4.838 v 13.465 c 0,10.537 -8.575,18.284 -18.923,18.284 -3.332,0 -6.482,-0.841 -9.219,-2.327"
         id="path402" />
    </clipPath>
    <clipPath
       clipPathUnits="userSpaceOnUse"
       id="clipPath412">
      <path
         d="m 107.19139,473.14415 h 28.14199 V 436.5578 h -28.14199 z"
         id="path410" />
    </clipPath>
    <linearGradient
       x1="0"
       y1="0"
       x2="1"
       y2="0"
       gradientUnits="userSpaceOnUse"
       gradientTransform="matrix(28.143,0,0,-28.143,107.191,454.851)"
       spreadMethod="pad"
       id="linearGradient420">
      <stop
         style="stop-opacity:1;stop-color:#898b8e"
         offset="0"
         id="stop414" />
      <stop
         style="stop-opacity:1;stop-color:#ffffff"
         offset="0.225006"
         id="stop416" />
      <stop
         style="stop-opacity:1;stop-color:#ffffff"
         offset="1"
         id="stop418" />
    </linearGradient>
    <clipPath
       clipPathUnits="userSpaceOnUse"
       id="clipPath430">
      <path
         d="m 77.173,473.144 h 28.142 V 436.559 H 77.173 Z"
         id="path428" />
    </clipPath>
    <clipPath
       clipPathUnits="userSpaceOnUse"
       id="clipPath436">
      <path
         d="m 81.773,473.145 c -2.641,-0.02 -4.6,-1.759 -4.6,-4.838 V 454.84 c 0,-10.535 8.574,-18.281 18.923,-18.281 3.33,0 6.482,0.839 9.219,2.325 v 14.019 c -0.954,-4.365 -4.439,-7.791 -9.219,-7.791 -5.888,0 -9.542,4.524 -9.542,10.224 v 17.809"
         id="path434" />
    </clipPath>
    <clipPath
       clipPathUnits="userSpaceOnUse"
       id="clipPath444">
      <path
         d="M 77.172704,473.14478 H 105.31458 V 436.55967 H 77.172704 Z"
         id="path442" />
    </clipPath>
    <linearGradient
       x1="0"
       y1="0"
       x2="1"
       y2="0"
       gradientUnits="userSpaceOnUse"
       gradientTransform="matrix(28.143,0,0,-28.143,77.172,454.852)"
       spreadMethod="pad"
       id="linearGradient452">
      <stop
         style="stop-opacity:1;stop-color:#ffffff"
         offset="0"
         id="stop446" />
      <stop
         style="stop-opacity:1;stop-color:#ffffff"
         offset="0.774994"
         id="stop448" />
      <stop
         style="stop-opacity:1;stop-color:#898b8e"
         offset="1"
         id="stop450" />
    </linearGradient>
  </defs>
  <g
     id="g10"
     transform="matrix(1.3333333,0,0,-1.3333333,-75.558662,655.87331)">
    <g
       id="g292"
       transform="translate(105.315,470.74)">
      <path
         d="m 0,0 c 0,6.509 -5.277,11.785 -11.785,11.785 h -27.481 v -40.659 c 0,-6.509 5.258,-11.786 11.767,-11.786 h 15.714 c 0,0 9.549,0.499 11.785,-7.592"
         style="fill:#58ab46;fill-opacity:1;fill-rule:nonzero;stroke:none"
         id="path294" />
    </g>
    <g
       id="g296"
       transform="translate(107.191,470.74)">
      <path
         d="m 0,0 c 0,6.509 5.277,11.785 11.785,11.785 h 27.482 v -40.659 c 0,-6.509 -5.258,-11.786 -11.767,-11.786 H 11.785 c 0,0 -9.548,0.499 -11.785,-7.592"
         style="fill:#4a4a52;fill-opacity:1;fill-rule:nonzero;stroke:none"
         id="path298" />
    </g>
    <g
       id="g300"
       transform="translate(101.302,414.982)">
      <path
         d="M 0,0 H 6.239 V -1.836 H 2.379 V -4.185 H 6.25 V -6.023 H 2.379 v -2.648 h 3.869 v -1.837 H 0"
         style="fill:#4a4a52;fill-opacity:1;fill-rule:nonzero;stroke:none"
         id="path302" />
    </g>
    <g
       id="g304"
       transform="translate(66.049,414.982)">
      <path
         d="m 0,0 h 2.469 v -7.091 c 0,-1.054 0.391,-1.7 1.385,-1.7 0.994,0 1.385,0.646 1.385,1.7 V 0 H 7.708 V -6.699 C 7.708,-9.304 6.217,-10.69 3.854,-10.69 1.49,-10.69 0,-9.304 0,-6.699"
         style="fill:#4a4a52;fill-opacity:1;fill-rule:nonzero;stroke:none"
         id="path306" />
    </g>
    <g
       id="g308"
       transform="translate(76.045,414.982)">
      <path
         d="m 0,0 h 2.89 l 3.056,-7.287 h 0.03 V 0 h 2.169 v -10.508 h -2.92 l -3.027,7.602 h -0.03 v -7.602 H 0"
         style="fill:#4a4a52;fill-opacity:1;fill-rule:nonzero;stroke:none"
         id="path310" />
    </g>
    <path
       d="m 86.583,404.474 h 2.469 v 10.508 h -2.469 z"
       style="fill:#4a4a52;fill-opacity:1;fill-rule:nonzero;stroke:none"
       id="path312" />
    <g
       id="g314"
       transform="translate(90.618,414.982)">
      <path
         d="m 0,0 h 2.65 l 1.852,-7.664 h 0.03 L 6.428,0 h 2.53 L 5.781,-10.508 H 3.132"
         style="fill:#4a4a52;fill-opacity:1;fill-rule:nonzero;stroke:none"
         id="path316" />
    </g>
    <g
       id="g318"
       transform="translate(112.105,410.496)">
      <path
         d="m 0,0 h 0.768 c 0.95,0 1.446,0.632 1.446,1.384 0,0.437 -0.136,1.326 -1.461,1.326 H 0 Z m -2.378,4.486 h 3.855 c 1.731,0 3.206,-0.768 3.206,-2.71 0,-0.437 -0.061,-2.168 -2.093,-2.575 v -0.03 C 3.359,-0.919 3.66,-1.34 4.051,-2.59 L 5.134,-6.022 H 2.545 l -0.812,2.814 c -0.407,1.431 -0.738,1.431 -1.642,1.431 v -4.245 h -2.469"
         style="fill:#4a4a52;fill-opacity:1;fill-rule:nonzero;stroke:none"
         id="path320" />
    </g>
    <g
       id="g322"
       transform="translate(124.826,412.844)">
      <path
         d="m 0,0 c -0.586,0.302 -1.414,0.542 -2.077,0.542 -0.797,0 -1.4,-0.361 -1.4,-1.143 0,-1.913 4.14,-1.025 4.14,-4.758 0,-1.988 -1.58,-3.192 -3.673,-3.192 -1.28,0 -2.378,0.301 -2.83,0.437 l 0.135,2.047 c 0.737,-0.286 1.385,-0.648 2.304,-0.648 0.782,0 1.535,0.392 1.535,1.251 0,2.032 -4.14,1.038 -4.14,4.787 0,0.317 0.12,2.995 3.643,2.995 0.964,0 1.567,-0.165 2.469,-0.36"
         style="fill:#4a4a52;fill-opacity:1;fill-rule:nonzero;stroke:none"
         id="path324" />
    </g>
    <path
       d="m 127.481,404.474 h 2.469 v 10.508 h -2.469 z"
       style="fill:#4a4a52;fill-opacity:1;fill-rule:nonzero;stroke:none"
       id="path326" />
    <g
       id="g328"
       transform="translate(133.924,413.085)">
      <path
         d="M 0,0 H -2.289 V 1.896 H 4.757 V 0 H 2.469 V -8.611 H 0"
         style="fill:#4a4a52;fill-opacity:1;fill-rule:nonzero;stroke:none"
         id="path330" />
    </g>
    <g
       id="g332"
       transform="translate(140.207,414.982)">
      <path
         d="M 0,0 H 6.239 V -1.836 H 2.379 V -4.185 H 6.25 V -6.023 H 2.379 v -2.648 h 3.869 v -1.837 H 0"
         style="fill:#4a4a52;fill-opacity:1;fill-rule:nonzero;stroke:none"
         id="path334" />
    </g>
    <g
       id="g336"
       transform="translate(68.518,393.215)">
      <path
         d="m 0,0 h 0.784 c 1.791,0 2.589,1.415 2.589,3.328 0,2.168 -0.829,3.507 -2.74,3.507 H 0 Z m -2.469,8.672 h 3.734 c 2.363,0 4.697,-1.385 4.697,-5.344 0,-3.63 -2.363,-5.165 -5.013,-5.165 h -3.418"
         style="fill:#58ab46;fill-opacity:1;fill-rule:nonzero;stroke:none"
         id="path338" />
    </g>
    <g
       id="g340"
       transform="translate(76.046,401.887)">
      <path
         d="M 0,0 H 6.067 V -1.837 H 2.379 V -4.185 H 5.886 V -6.022 H 2.379 v -2.65 h 3.869 v -1.836 H 0"
         style="fill:#58ab46;fill-opacity:1;fill-rule:nonzero;stroke:none"
         id="path342" />
    </g>
    <g
       id="g344"
       transform="translate(93.774,401.887)">
      <path
         d="m 0,0 h 2.891 l 3.056,-7.287 h 0.03 V 0 H 8.145 V -10.508 H 5.224 L 2.199,-2.906 H 2.168 v -7.602 H 0"
         style="fill:#4a4a52;fill-opacity:1;fill-rule:nonzero;stroke:none"
         id="path346" />
    </g>
    <g
       id="g348"
       transform="translate(108.645,399.869)">
      <path
         d="M 0,0 H -0.03 L -1.28,-4.366 H 1.084 Z M 1.565,-6.142 H -1.732 L -2.454,-8.491 H -4.832 L -1.34,2.018 H 1.371 L 4.742,-8.491 H 2.213"
         style="fill:#4a4a52;fill-opacity:1;fill-rule:nonzero;stroke:none"
         id="path350" />
    </g>
    <g
       id="g352"
       transform="translate(123.907,399.689)">
      <path
         d="M 0,0 H -0.031 L -2.394,-8.311 H -4.02 L -6.293,0 H -6.324 V -8.311 H -8.582 V 2.198 h 3.718 l 1.703,-6.76 h 0.03 l 1.836,6.76 H 2.258 V -8.311 H 0"
         style="fill:#4a4a52;fill-opacity:1;fill-rule:nonzero;stroke:none"
         id="path354" />
    </g>
    <g
       id="g356"
       transform="translate(128.66,401.887)">
      <path
         d="m 0,0 h 2.469 v -7.091 c 0,-1.054 0.391,-1.701 1.384,-1.701 0.995,0 1.385,0.647 1.385,1.701 V 0 h 2.469 v -6.7 c 0,-2.604 -1.49,-3.989 -3.854,-3.989 C 1.49,-10.689 0,-9.304 0,-6.7"
         style="fill:#4a4a52;fill-opacity:1;fill-rule:nonzero;stroke:none"
         id="path358" />
    </g>
    <g
       id="g360"
       transform="translate(141.322,397.401)">
      <path
         d="m 0,0 h 0.767 c 0.949,0 1.446,0.632 1.446,1.385 0,0.436 -0.136,1.324 -1.461,1.324 H 0 Z m -2.379,4.487 h 3.855 c 1.731,0 3.206,-0.769 3.206,-2.711 0,-0.437 -0.06,-2.168 -2.092,-2.575 v -0.03 C 3.357,-0.919 3.659,-1.341 4.05,-2.59 L 5.134,-6.023 H 2.545 l -0.814,2.816 c -0.406,1.429 -0.737,1.429 -1.64,1.429 v -4.245 h -2.47"
         style="fill:#4a4a52;fill-opacity:1;fill-rule:nonzero;stroke:none"
         id="path362" />
    </g>
    <path
       d="m 140.215,416.858 h 6.242 v 1.876 h -6.242 z"
       style="fill:#58ab46;fill-opacity:1;fill-rule:nonzero;stroke:none"
       id="path364" />
    <path
       d="m 66.05,372.634 h 80.409 v 1.876 H 66.05 Z"
       style="fill:#58ab46;fill-opacity:1;fill-rule:nonzero;stroke:none"
       id="path366" />
    <g
       id="g368"
       transform="translate(146.457,442.713)">
      <path
         d="m 0,0 c -3.099,3.783 -4.961,8.62 -4.961,13.891 0,5.272 1.862,10.108 4.961,13.89 v 3.55 C -4.542,26.91 -7.364,20.73 -7.364,13.891 -7.364,7.181 -4.648,1.108 -0.255,-3.295 -0.089,-2.505 0,-1.687 0,-0.847"
         style="fill:#67696c;fill-opacity:1;fill-rule:nonzero;stroke:none"
         id="path370" />
    </g>
    <g
       id="g372"
       transform="translate(127.871,478.695)">
      <path
         d="m 0,0 c 1.621,-1.916 3.943,-1.231 6.63,-2.431 1.921,-0.859 1.913,-2.689 3.122,-4.751 0.632,-1.075 1.443,-1.998 2.326,-2.825 0.272,0.525 0.56,1.039 0.865,1.543 -1.874,2.379 -1.879,5.403 -4.56,7.29 -1.114,0.785 -2.123,0.888 -3.835,1.956 3.059,-0.644 5.516,-0.318 7.854,-2.383 1.244,-1.101 1.755,-2.811 2.627,-3.9 0.413,0.508 0.843,1 1.291,1.476 -1.482,2.434 -2.647,5.304 -5.074,6.468 C 9.104,3.472 5.933,1.882 3.25,2.879 2.77,3.057 2.407,3.398 2.098,3.83 H -1.906 C -1.428,2.502 -0.967,1.146 0,0"
         style="fill:#67696c;fill-opacity:1;fill-rule:nonzero;stroke:none"
         id="path374" />
    </g>
    <g
       id="g376"
       transform="translate(129.15,457.549)">
      <path
         d="M 0,0 3.503,2.017 C 5.148,1.859 6.559,0.787 7.899,0.411 7.933,1.071 7.991,1.725 8.073,2.37 5.452,3.465 2.83,5.092 0.19,4.609 -2.147,4.182 -3.778,1.032 -6.536,0.261 c -1.806,-0.503 -3.635,1.676 -5.905,1.917 -3.165,0.337 -5.001,-1.642 -7.911,-3.123 2.052,0.169 2.948,0.763 4.334,0.789 3.5,0.066 5.32,-3.028 8.546,-3.822 2.438,-0.599 3.913,1.321 6.795,1.93 C 1.381,-1.615 2.45,-3.098 4.64,-4.055 5.778,-4.553 6.971,-4.82 8.166,-4.972 8.078,-4.392 8.01,-3.805 7.96,-3.213 5.056,-2.389 3.274,0.05 0,0"
         style="fill:#67696c;fill-opacity:1;fill-rule:nonzero;stroke:none"
         id="path378" />
    </g>
    <g
       id="g380"
       transform="translate(111.411,439.7)">
      <path
         d="m 0,0 27.719,6.519 c -0.616,1.439 -1.106,2.943 -1.46,4.5"
         style="fill:#67696c;fill-opacity:1;fill-rule:nonzero;stroke:none"
         id="path382" />
    </g>
    <g
       id="g384"
       transform="translate(135.14,437.217)">
      <path
         d="m 0,0 c -1.086,-0.816 -1.499,-1.747 -3.042,-3.045 1.557,2.71 2.008,5.147 4.693,6.734 C 3.074,4.526 4.843,4.49 6.147,4.973 5.79,5.522 5.451,6.083 5.134,6.659 2.37,6.007 -0.704,5.779 -2.553,3.841 -4.193,2.122 -3.66,-1.386 -5.437,-3.632 c -1.166,-1.469 -3.927,-0.781 -5.905,-1.922 -0.778,-0.447 -1.362,-0.981 -1.833,-1.583 h 10.316 c 1.532,1.142 1.818,3.196 3.517,5.081 1.409,1.56 3.147,0.987 5.481,1.5 1.216,0.269 2.34,0.753 3.399,1.336 C 9.121,1.199 8.718,1.632 8.331,2.079 5.496,1.038 2.621,1.961 0,0"
         style="fill:#67696c;fill-opacity:1;fill-rule:nonzero;stroke:none"
         id="path386" />
    </g>
    <g
       id="g388"
       transform="translate(125.985,470.081)">
      <path
         d="m 0,0 v -2.688 l 11.693,-4.906 c 0.355,1.556 0.849,3.061 1.467,4.498"
         style="fill:#67696c;fill-opacity:1;fill-rule:nonzero;stroke:none"
         id="path390" />
    </g>
    <g
       id="g392">
      <g
         id="g394"
         clip-path="url(#clipPath398)">
        <g
           id="g400"
           clip-path="url(#clipPath404)">
          <g
             id="g406">
            <g
               id="g408"
               clip-path="url(#clipPath412)">
              <path
                 d="M 107.192,470.818 V 456.8 c 0.953,4.364 4.439,7.792 9.219,7.792 5.887,0 9.542,-4.525 9.542,-10.225 v -17.809 h 4.781 c 2.641,0.02 4.6,1.759 4.6,4.838 v 13.465 c 0,10.537 -8.575,18.284 -18.923,18.284 -3.332,0 -6.482,-0.841 -9.219,-2.327"
                 style="fill:url(#linearGradient420);stroke:none"
                 id="path422" />
            </g>
          </g>
        </g>
      </g>
    </g>
    <g
       id="g424">
      <g
         id="g426"
         clip-path="url(#clipPath430)">
        <g
           id="g432"
           clip-path="url(#clipPath436)">
          <g
             id="g438">
            <g
               id="g440"
               clip-path="url(#clipPath444)">
              <path
                 d="m 81.773,473.145 c -2.641,-0.02 -4.6,-1.759 -4.6,-4.838 V 454.84 c 0,-10.535 8.574,-18.281 18.923,-18.281 3.33,0 6.482,0.839 9.219,2.325 v 14.019 c -0.954,-4.365 -4.439,-7.791 -9.219,-7.791 -5.888,0 -9.542,4.524 -9.542,10.224 v 17.809"
                 style="fill:url(#linearGradient452);stroke:none"
                 id="path454" />
            </g>
          </g>
        </g>
      </g>
    </g>
    <g
       id="g456"
       transform="translate(66.39,367.005)">
      <path
         d="M 0,0 H 3.508 V -0.831 H 0.946 v -1.93 H 3.395 V -3.593 H 0.946 V -6.6 H 0"
         style="fill:#4a4a52;fill-opacity:1;fill-rule:nonzero;stroke:none"
         id="path458" />
    </g>
    <g
       id="g460"
       transform="translate(73.111,366.117)">
      <path
         d="M 0,0 -1.314,-3.272 H 1.314 Z M -0.464,0.888 H 0.53 l 2.789,-6.6 H 2.288 l -0.671,1.664 h -3.234 l -0.671,-1.664 h -0.994"
         style="fill:#4a4a52;fill-opacity:1;fill-rule:nonzero;stroke:none"
         id="path462" />
    </g>
    <g
       id="g464"
       transform="translate(81.502,365.918)">
      <path
         d="m 0,0 c -0.416,0.246 -0.88,0.369 -1.361,0.369 -1.523,0 -2.534,-1.097 -2.534,-2.582 0,-1.55 1.115,-2.581 2.486,-2.581 0.473,0 1.106,0.123 1.437,0.321 L 0.085,-5.39 c -0.501,-0.208 -1.115,-0.237 -1.503,-0.237 -2.09,0 -3.48,1.344 -3.48,3.443 0,2.033 1.475,3.385 3.489,3.385 0.51,0 1.012,-0.076 1.485,-0.283"
         style="fill:#4a4a52;fill-opacity:1;fill-rule:nonzero;stroke:none"
         id="path466" />
    </g>
    <g
       id="g468"
       transform="translate(87.648,363.138)">
      <path
         d="m 0,0 c 0,-1.853 -0.936,-2.846 -2.563,-2.846 -1.626,0 -2.562,0.993 -2.562,2.846 v 3.867 h 0.946 V 0.123 c 0,-1.268 0.397,-2.137 1.616,-2.137 1.221,0 1.617,0.869 1.617,2.137 V 3.867 H 0"
         style="fill:#4a4a52;fill-opacity:1;fill-rule:nonzero;stroke:none"
         id="path470" />
    </g>
    <g
       id="g472"
       transform="translate(89.189,367.005)">
      <path
         d="m 0,0 h 0.946 v -5.768 h 2.76 V -6.6 H 0"
         style="fill:#4a4a52;fill-opacity:1;fill-rule:nonzero;stroke:none"
         id="path474" />
    </g>
    <g
       id="g476"
       transform="translate(94.389,366.173)">
      <path
         d="m 0,0 h -2.052 v 0.832 h 5.05 V 0 H 0.946 V -5.768 H 0"
         style="fill:#4a4a52;fill-opacity:1;fill-rule:nonzero;stroke:none"
         id="path478" />
    </g>
    <g
       id="g480"
       transform="translate(100.208,368.849)">
      <path
         d="M 0,0 H 1.031 L -0.208,-1.361 H -0.841 Z M -1.957,-1.844 H 1.741 V -2.676 H -1.011 V -4.605 H 1.495 V -5.436 H -1.011 V -7.612 H 1.741 V -8.444 H -1.957"
         style="fill:#4a4a52;fill-opacity:1;fill-rule:nonzero;stroke:none"
         id="path482" />
    </g>
    <g
       id="g484"
       transform="translate(67.335,351.026)">
      <path
         d="m 0,0 h 0.993 c 1.626,0 2.525,0.784 2.525,2.486 0,1.542 -1.05,2.449 -2.411,2.449 L 0,4.935 Z m -0.946,5.768 h 1.949 c 1.957,0 3.517,-1.21 3.517,-3.244 0,-2.213 -1.342,-3.356 -3.517,-3.356 h -1.949"
         style="fill:#4a4a52;fill-opacity:1;fill-rule:nonzero;stroke:none"
         id="path486" />
    </g>
    <g
       id="g488"
       transform="translate(73.111,356.794)">
      <path
         d="M 0,0 H 3.697 V -0.832 H 0.946 v -1.93 H 3.451 V -3.594 H 0.946 V -5.769 H 3.697 V -6.601 H 0"
         style="fill:#4a4a52;fill-opacity:1;fill-rule:nonzero;stroke:none"
         id="path490" />
    </g>
    <g
       id="g492"
       transform="translate(81.085,355.801)">
      <path
         d="m 0,0 c -0.482,0.189 -0.747,0.274 -1.238,0.274 -0.53,0 -1.154,-0.189 -1.154,-0.879 0,-1.268 2.837,-0.975 2.837,-3.15 0,-1.408 -1.088,-1.966 -2.412,-1.966 -0.463,0 -0.917,0.132 -1.352,0.274 l 0.094,0.88 c 0.322,-0.133 0.889,-0.322 1.372,-0.322 0.539,0 1.295,0.303 1.295,1.078 0,1.475 -2.837,1.069 -2.837,3.121 0,1.172 0.927,1.796 2.119,1.796 0.434,0 0.954,-0.076 1.408,-0.237"
         style="fill:#4a4a52;fill-opacity:1;fill-rule:nonzero;stroke:none"
         id="path494" />
    </g>
    <g
       id="g496"
       transform="translate(88.442,355.801)">
      <path
         d="m 0,0 c -0.482,0.189 -0.747,0.274 -1.238,0.274 -0.53,0 -1.154,-0.189 -1.154,-0.879 0,-1.268 2.837,-0.975 2.837,-3.15 0,-1.408 -1.088,-1.966 -2.412,-1.966 -0.463,0 -0.917,0.132 -1.351,0.274 l 0.093,0.88 c 0.322,-0.133 0.889,-0.322 1.372,-0.322 0.539,0 1.295,0.303 1.295,1.078 0,1.475 -2.836,1.069 -2.836,3.121 0,1.172 0.926,1.796 2.118,1.796 0.434,0 0.954,-0.076 1.408,-0.237"
         style="fill:#4a4a52;fill-opacity:1;fill-rule:nonzero;stroke:none"
         id="path498" />
    </g>
    <g
       id="g500"
       transform="translate(94.557,355.706)">
      <path
         d="m 0,0 c -0.416,0.246 -0.88,0.369 -1.361,0.369 -1.523,0 -2.534,-1.097 -2.534,-2.582 0,-1.55 1.115,-2.581 2.487,-2.581 0.472,0 1.105,0.123 1.436,0.321 L 0.085,-5.39 c -0.501,-0.208 -1.116,-0.236 -1.503,-0.236 -2.09,0 -3.48,1.343 -3.48,3.442 0,2.033 1.476,3.386 3.49,3.386 0.509,0 1.011,-0.076 1.483,-0.284"
         style="fill:#4a4a52;fill-opacity:1;fill-rule:nonzero;stroke:none"
         id="path502" />
    </g>
    <path
       d="m 95.649,350.193 h 0.94559 v 6.601 H 95.649 Z"
       style="fill:#4a4a52;fill-opacity:1;fill-rule:nonzero;stroke:none"
       id="path504" />
    <g
       id="g506"
       transform="translate(98.159,356.794)">
      <path
         d="M 0,0 H 3.698 V -0.832 H 0.945 v -1.93 H 3.452 V -3.594 H 0.945 V -5.769 H 3.698 V -6.601 H 0"
         style="fill:#4a4a52;fill-opacity:1;fill-rule:nonzero;stroke:none"
         id="path508" />
    </g>
    <g
       id="g510"
       transform="translate(103.105,356.794)">
      <path
         d="M 0,0 H 1.285 L 4.198,-5.315 H 4.217 V 0 H 5.162 V -6.601 H 3.952 L 0.964,-1.173 H 0.945 V -6.601 H 0"
         style="fill:#4a4a52;fill-opacity:1;fill-rule:nonzero;stroke:none"
         id="path512" />
    </g>
    <g
       id="g514"
       transform="translate(114.36,355.706)">
      <path
         d="m 0,0 c -0.415,0.246 -0.879,0.369 -1.361,0.369 -1.522,0 -2.535,-1.097 -2.535,-2.582 0,-1.55 1.117,-2.581 2.487,-2.581 0.474,0 1.107,0.123 1.437,0.321 L 0.085,-5.39 c -0.5,-0.208 -1.115,-0.236 -1.503,-0.236 -2.09,0 -3.48,1.343 -3.48,3.442 0,2.033 1.475,3.386 3.489,3.386 0.511,0 1.013,-0.076 1.485,-0.284"
         style="fill:#4a4a52;fill-opacity:1;fill-rule:nonzero;stroke:none"
         id="path516" />
    </g>
    <g
       id="g518"
       transform="translate(115.456,356.794)">
      <path
         d="M 0,0 H 3.697 V -0.832 H 0.946 v -1.93 H 3.451 V -3.594 H 0.946 V -5.769 H 3.697 V -6.601 H 0"
         style="fill:#4a4a52;fill-opacity:1;fill-rule:nonzero;stroke:none"
         id="path520" />
    </g>
    <g
       id="g522"
       transform="translate(123.43,355.801)">
      <path
         d="m 0,0 c -0.483,0.189 -0.747,0.274 -1.239,0.274 -0.529,0 -1.153,-0.189 -1.153,-0.879 0,-1.268 2.837,-0.975 2.837,-3.15 0,-1.408 -1.088,-1.966 -2.412,-1.966 -0.463,0 -0.917,0.132 -1.352,0.274 l 0.094,0.88 c 0.322,-0.133 0.889,-0.322 1.372,-0.322 0.538,0 1.295,0.303 1.295,1.078 0,1.475 -2.837,1.069 -2.837,3.121 0,1.172 0.927,1.796 2.118,1.796 0.435,0 0.955,-0.076 1.409,-0.237"
         style="fill:#4a4a52;fill-opacity:1;fill-rule:nonzero;stroke:none"
         id="path524" />
    </g>
    <g
       id="g526"
       transform="translate(129.793,358.637)">
      <path
         d="m 0,0 h 1.031 l -1.239,-1.361 h -0.633 z m -1.957,-1.844 h 3.698 v -0.831 h -2.753 v -1.93 h 2.507 v -0.831 h -2.507 v -2.175 h 2.753 v -0.833 h -3.698"
         style="fill:#4a4a52;fill-opacity:1;fill-rule:nonzero;stroke:none"
         id="path528" />
    </g>
    <g
       id="g530"
       transform="translate(137.25,355.706)">
      <path
         d="m 0,0 c -0.416,0.246 -0.88,0.369 -1.362,0.369 -1.522,0 -2.534,-1.097 -2.534,-2.582 0,-1.55 1.116,-2.581 2.487,-2.581 0.473,0 1.106,0.123 1.437,0.321 L 0.085,-5.39 c -0.501,-0.208 -1.116,-0.236 -1.504,-0.236 -2.09,0 -3.479,1.343 -3.479,3.442 0,2.033 1.474,3.386 3.489,3.386 0.51,0 1.012,-0.076 1.485,-0.284"
         style="fill:#4a4a52;fill-opacity:1;fill-rule:nonzero;stroke:none"
         id="path532" />
    </g>
    <g
       id="g534"
       transform="translate(140.968,350.912)">
      <path
         d="M 0,0 C 1.522,0 2.175,1.267 2.175,2.582 2.175,3.924 1.456,5.173 0,5.163 -1.457,5.173 -2.175,3.924 -2.175,2.582 -2.175,1.267 -1.523,0 0,0 m 0,5.995 c 2.004,0 3.177,-1.456 3.177,-3.413 0,-2.005 -1.163,-3.414 -3.177,-3.414 -2.014,0 -3.178,1.409 -3.178,3.414 0,1.957 1.173,3.413 3.178,3.413"
         style="fill:#4a4a52;fill-opacity:1;fill-rule:nonzero;stroke:none"
         id="path536" />
    </g>
    <g
       id="g538"
       transform="translate(145.364,356.794)">
      <path
         d="M 0,0 H 1.287 L 4.198,-5.315 H 4.217 V 0 H 5.163 V -6.601 H 3.952 L 0.965,-1.173 H 0.946 V -6.601 H 0"
         style="fill:#4a4a52;fill-opacity:1;fill-rule:nonzero;stroke:none"
         id="path540" />
    </g>
    <g
       id="g542"
       transform="translate(154.919,350.912)">
      <path
         d="M 0,0 C 1.522,0 2.175,1.267 2.175,2.582 2.175,3.924 1.456,5.173 0,5.163 -1.457,5.173 -2.175,3.924 -2.175,2.582 -2.175,1.267 -1.523,0 0,0 m 0,5.995 c 2.005,0 3.177,-1.456 3.177,-3.413 0,-2.005 -1.163,-3.414 -3.177,-3.414 -2.014,0 -3.178,1.409 -3.178,3.414 0,1.957 1.174,3.413 3.178,3.413"
         style="fill:#4a4a52;fill-opacity:1;fill-rule:nonzero;stroke:none"
         id="path544" />
    </g>
    <g
       id="g546"
       transform="translate(159.324,356.794)">
      <path
         d="M 0,0 H 1.56 L 3.631,-5.485 5.664,0 h 1.56 V -6.601 H 6.278 v 5.712 H 6.26 L 4.075,-6.601 H 3.149 L 0.965,-0.889 H 0.946 V -6.601 H 0"
         style="fill:#4a4a52;fill-opacity:1;fill-rule:nonzero;stroke:none"
         id="path548" />
    </g>
    <path
       d="m 168.119,350.193 h 0.94499 v 6.601 H 168.119 Z"
       style="fill:#4a4a52;fill-opacity:1;fill-rule:nonzero;stroke:none"
       id="path550" />
    <g
       id="g552"
       transform="translate(173.459,350.912)">
      <path
         d="M 0,0 C 1.522,0 2.175,1.267 2.175,2.582 2.175,3.924 1.456,5.173 0,5.163 -1.457,5.173 -2.175,3.924 -2.175,2.582 -2.175,1.267 -1.523,0 0,0 M 0.53,-0.795 C 0.445,-0.804 0.359,-0.814 0.275,-0.823 0.189,-0.832 0.095,-0.832 0,-0.832 c -2.014,0 -3.178,1.409 -3.178,3.414 0,1.957 1.174,3.413 3.178,3.413 2.005,0 3.177,-1.456 3.177,-3.413 0,-1.475 -0.633,-2.629 -1.778,-3.13 l 1.532,-1.39 H 1.759"
         style="fill:#4a4a52;fill-opacity:1;fill-rule:nonzero;stroke:none"
         id="path554" />
    </g>
    <g
       id="g556"
       transform="translate(182.948,352.926)">
      <path
         d="m 0,0 c 0,-1.853 -0.936,-2.846 -2.562,-2.846 -1.627,0 -2.562,0.993 -2.562,2.846 v 3.868 h 0.945 V 0.123 c 0,-1.267 0.397,-2.137 1.617,-2.137 1.22,0 1.617,0.87 1.617,2.137 V 3.868 H 0"
         style="fill:#4a4a52;fill-opacity:1;fill-rule:nonzero;stroke:none"
         id="path558" />
    </g>
    <g
       id="g560"
       transform="translate(184.516,356.794)">
      <path
         d="M 0,0 H 3.697 V -0.832 H 0.945 v -1.93 H 3.451 V -3.594 H 0.945 V -5.769 H 3.697 V -6.601 H 0"
         style="fill:#4a4a52;fill-opacity:1;fill-rule:nonzero;stroke:none"
         id="path562" />
    </g>
    <g
       id="g564"
       transform="translate(192.489,355.801)">
      <path
         d="m 0,0 c -0.482,0.189 -0.746,0.274 -1.238,0.274 -0.53,0 -1.154,-0.189 -1.154,-0.879 0,-1.268 2.837,-0.975 2.837,-3.15 0,-1.408 -1.087,-1.966 -2.412,-1.966 -0.463,0 -0.916,0.132 -1.351,0.274 l 0.094,0.88 c 0.322,-0.133 0.888,-0.322 1.371,-0.322 0.539,0 1.296,0.303 1.296,1.078 0,1.475 -2.837,1.069 -2.837,3.121 0,1.172 0.927,1.796 2.118,1.796 0.435,0 0.956,-0.076 1.408,-0.237"
         style="fill:#4a4a52;fill-opacity:1;fill-rule:nonzero;stroke:none"
         id="path566" />
    </g>
    <g
       id="g568"
       transform="translate(194.139,351.252)">
      <path
         d="M 0,0 H 1.059 L 0.255,-2.317 h -0.85"
         style="fill:#4a4a52;fill-opacity:1;fill-rule:nonzero;stroke:none"
         id="path570" />
    </g>
    <g
       id="g572"
       transform="translate(69.444,345.589)">
      <path
         d="m 0,0 c -0.482,0.189 -0.747,0.274 -1.238,0.274 -0.53,0 -1.154,-0.189 -1.154,-0.879 0,-1.267 2.837,-0.974 2.837,-3.15 0,-1.408 -1.088,-1.966 -2.412,-1.966 -0.463,0 -0.917,0.132 -1.352,0.274 l 0.094,0.88 c 0.322,-0.133 0.889,-0.322 1.372,-0.322 0.539,0 1.295,0.303 1.295,1.079 0,1.474 -2.836,1.068 -2.836,3.12 0,1.173 0.926,1.796 2.118,1.796 0.434,0 0.954,-0.076 1.408,-0.236"
         style="fill:#4a4a52;fill-opacity:1;fill-rule:nonzero;stroke:none"
         id="path574" />
    </g>
    <g
       id="g576"
       transform="translate(73.847,340.7)">
      <path
         d="M 0,0 C 1.522,0 2.175,1.268 2.175,2.582 2.175,3.924 1.456,5.173 0,5.163 -1.456,5.173 -2.175,3.924 -2.175,2.582 -2.175,1.268 -1.522,0 0,0 m 0,5.996 c 2.005,0 3.178,-1.457 3.178,-3.414 0,-2.005 -1.164,-3.413 -3.178,-3.413 -2.014,0 -3.178,1.408 -3.178,3.413 0,1.957 1.173,3.414 3.178,3.414"
         style="fill:#4a4a52;fill-opacity:1;fill-rule:nonzero;stroke:none"
         id="path578" />
    </g>
    <g
       id="g580"
       transform="translate(82.802,345.494)">
      <path
         d="m 0,0 c -0.416,0.246 -0.88,0.369 -1.361,0.369 -1.523,0 -2.534,-1.096 -2.534,-2.582 0,-1.55 1.115,-2.581 2.486,-2.581 0.473,0 1.106,0.123 1.437,0.321 l 0.057,-0.916 c -0.501,-0.208 -1.116,-0.237 -1.503,-0.237 -2.091,0 -3.48,1.343 -3.48,3.442 0,2.033 1.474,3.386 3.489,3.386 0.51,0 1.012,-0.076 1.485,-0.284"
         style="fill:#4a4a52;fill-opacity:1;fill-rule:nonzero;stroke:none"
         id="path582" />
    </g>
    <path
       d="m 83.894,339.982 h 0.9456 v 6.6 H 83.894 Z"
       style="fill:#4a4a52;fill-opacity:1;fill-rule:nonzero;stroke:none"
       id="path584" />
    <g
       id="g586"
       transform="translate(88.958,345.693)">
      <path
         d="M 0,0 -1.314,-3.272 H 1.314 Z M -0.464,0.889 H 0.53 L 3.319,-5.712 H 2.288 l -0.671,1.665 h -3.234 l -0.671,-1.665 h -0.994"
         style="fill:#4a4a52;fill-opacity:1;fill-rule:nonzero;stroke:none"
         id="path588" />
    </g>
    <g
       id="g590"
       transform="translate(93.129,346.582)">
      <path
         d="m 0,0 h 0.946 v -5.769 h 2.76 V -6.6 H 0"
         style="fill:#4a4a52;fill-opacity:1;fill-rule:nonzero;stroke:none"
         id="path592" />
    </g>
    <g
       id="g594"
       transform="translate(97.74,346.582)">
      <path
         d="M 0,0 H 3.697 V -0.832 H 0.946 v -1.93 H 3.451 V -3.594 H 0.946 V -5.769 H 3.697 V -6.6 H 0"
         style="fill:#4a4a52;fill-opacity:1;fill-rule:nonzero;stroke:none"
         id="path596" />
    </g>
    <g
       id="g598"
       transform="translate(105.714,345.589)">
      <path
         d="m 0,0 c -0.483,0.189 -0.747,0.274 -1.239,0.274 -0.53,0 -1.153,-0.189 -1.153,-0.879 0,-1.267 2.836,-0.974 2.836,-3.15 0,-1.408 -1.087,-1.966 -2.412,-1.966 -0.462,0 -0.916,0.132 -1.351,0.274 l 0.094,0.88 c 0.322,-0.133 0.889,-0.322 1.371,-0.322 0.539,0 1.296,0.303 1.296,1.079 0,1.474 -2.837,1.068 -2.837,3.12 0,1.173 0.927,1.796 2.118,1.796 0.435,0 0.955,-0.076 1.408,-0.236"
         style="fill:#4a4a52;fill-opacity:1;fill-rule:nonzero;stroke:none"
         id="path600" />
    </g>
    <g
       id="g602"
       transform="translate(110.12,346.582)">
      <path
         d="M 0,0 H 3.697 V -0.832 H 0.945 v -1.93 H 3.451 V -3.594 H 0.945 V -5.769 H 3.697 V -6.6 H 0"
         style="fill:#4a4a52;fill-opacity:1;fill-rule:nonzero;stroke:none"
         id="path604" />
    </g>
    <g
       id="g606"
       transform="translate(116.632,345.75)">
      <path
         d="m 0,0 h -2.053 v 0.831 h 5.05 V 0 H 0.945 V -5.769 H 0"
         style="fill:#4a4a52;fill-opacity:1;fill-rule:nonzero;stroke:none"
         id="path608" />
    </g>
    <g
       id="g610"
       transform="translate(124.092,340.814)">
      <path
         d="m 0,0 h 0.992 c 1.628,0 2.525,0.784 2.525,2.487 0,1.541 -1.049,2.449 -2.411,2.449 H 0 Z m -0.946,5.768 h 1.948 c 1.957,0 3.518,-1.21 3.518,-3.243 0,-2.213 -1.343,-3.357 -3.518,-3.357 h -1.948"
         style="fill:#4a4a52;fill-opacity:1;fill-rule:nonzero;stroke:none"
         id="path612" />
    </g>
    <g
       id="g614"
       transform="translate(129.868,346.582)">
      <path
         d="M 0,0 H 3.697 V -0.832 H 0.946 v -1.93 H 3.451 V -3.594 H 0.946 V -5.769 H 3.697 V -6.6 H 0"
         style="fill:#4a4a52;fill-opacity:1;fill-rule:nonzero;stroke:none"
         id="path616" />
    </g>
    <g
       id="g618"
       transform="translate(142.718,345.409)">
      <path
         d="m 0,0 c -0.463,0.303 -0.965,0.454 -1.815,0.454 -1.522,0 -2.535,-1.106 -2.535,-2.582 0,-1.55 1.115,-2.581 2.488,-2.581 0.652,0 0.822,0.066 1.058,0.113 v 2.005 h -1.39 v 0.776 h 2.336 v -3.432 c -0.36,-0.123 -0.984,-0.294 -2.014,-0.294 -2.09,0 -3.48,1.343 -3.48,3.442 0,2.033 1.475,3.385 3.49,3.385 0.963,0 1.389,-0.141 1.938,-0.331"
         style="fill:#4a4a52;fill-opacity:1;fill-rule:nonzero;stroke:none"
         id="path620" />
    </g>
    <g
       id="g622"
       transform="translate(144.413,346.582)">
      <path
         d="M 0,0 H 3.697 V -0.832 H 0.946 v -1.93 H 3.452 V -3.594 H 0.946 V -5.769 H 3.697 V -6.6 H 0"
         style="fill:#4a4a52;fill-opacity:1;fill-rule:nonzero;stroke:none"
         id="path624" />
    </g>
    <g
       id="g626"
       transform="translate(152.387,345.589)">
      <path
         d="m 0,0 c -0.483,0.189 -0.747,0.274 -1.239,0.274 -0.529,0 -1.153,-0.189 -1.153,-0.879 0,-1.267 2.837,-0.974 2.837,-3.15 0,-1.408 -1.088,-1.966 -2.412,-1.966 -0.463,0 -0.917,0.132 -1.352,0.274 l 0.094,0.88 c 0.322,-0.133 0.889,-0.322 1.372,-0.322 0.538,0 1.295,0.303 1.295,1.079 0,1.474 -2.837,1.068 -2.837,3.12 0,1.173 0.927,1.796 2.118,1.796 0.435,0 0.956,-0.076 1.409,-0.236"
         style="fill:#4a4a52;fill-opacity:1;fill-rule:nonzero;stroke:none"
         id="path628" />
    </g>
    <g
       id="g630"
       transform="translate(155.368,345.75)">
      <path
         d="m 0,0 h -2.052 v 0.831 h 5.05 V 0 H 0.946 V -5.769 H 0"
         style="fill:#4a4a52;fill-opacity:1;fill-rule:nonzero;stroke:none"
         id="path632" />
    </g>
    <path
       d="m 159.207,339.982 h 0.946 v 6.6 h -0.946 z"
       style="fill:#4a4a52;fill-opacity:1;fill-rule:nonzero;stroke:none"
       id="path634" />
    <g
       id="g636"
       transform="translate(164.547,340.7)">
      <path
         d="M 0,0 C 1.523,0 2.175,1.268 2.175,2.582 2.175,3.924 1.457,5.173 0,5.163 -1.456,5.173 -2.175,3.924 -2.175,2.582 -2.175,1.268 -1.522,0 0,0 m 0,5.996 c 2.005,0 3.178,-1.457 3.178,-3.414 0,-2.005 -1.163,-3.413 -3.178,-3.413 -2.014,0 -3.177,1.408 -3.177,3.413 0,1.957 1.172,3.414 3.177,3.414"
         style="fill:#4a4a52;fill-opacity:1;fill-rule:nonzero;stroke:none"
         id="path638" />
    </g>
    <g
       id="g640"
       transform="translate(168.944,346.582)">
      <path
         d="M 0,0 H 1.287 L 4.198,-5.315 H 4.217 V 0 H 5.163 V -6.6 H 3.952 L 0.965,-1.173 H 0.946 V -6.6 H 0"
         style="fill:#4a4a52;fill-opacity:1;fill-rule:nonzero;stroke:none"
         id="path642" />
    </g>
    <path
       d="M 56.669,279.398 H 425.015 M 56.669,506.073 h 368.346"
       style="fill:none;stroke:#9b9da0;stroke-width:0.5;stroke-linecap:butt;stroke-linejoin:miter;stroke-miterlimit:4;stroke-dasharray:1.9911, 1.9911;stroke-dashoffset:0;stroke-opacity:1"
       id="path1762" />
  </g>
</svg>
