<?xml version="1.0" encoding="UTF-8" standalone="no"?>
<!-- Created with Inkscape (http://www.inkscape.org/) -->
<!-- Extracted from PDF "Université de Namur - Charte graphique" by Jules Dejaeghere :) -->

<svg
   version="1.1"
   id="svg2"
   width="132.22798"
   height="208.96133"
   viewBox="0 0 132.22798 208.96133"
   sodipodi:docname="info.pdf"
   xmlns:inkscape="http://www.inkscape.org/namespaces/inkscape"
   xmlns:sodipodi="http://sodipodi.sourceforge.net/DTD/sodipodi-0.dtd"
   xmlns="http://www.w3.org/2000/svg"
   xmlns:svg="http://www.w3.org/2000/svg">
  <defs
     id="defs6">
    <clipPath
       clipPathUnits="userSpaceOnUse"
       id="clipPath578">
      <path
         d="m 107.192,699.819 h 28.142 v -36.586 h -28.142 z"
         id="path576" />
    </clipPath>
    <clipPath
       clipPathUnits="userSpaceOnUse"
       id="clipPath584">
      <path
         d="m 107.192,697.493 v -14.019 c 0.953,4.365 4.439,7.792 9.219,7.792 5.886,0 9.542,-4.524 9.542,-10.225 v -17.808 h 4.781 c 2.641,0.02 4.6,1.757 4.6,4.838 v 13.465 c 0,10.536 -8.575,18.283 -18.923,18.283 -3.332,0 -6.482,-0.841 -9.219,-2.326"
         id="path582" />
    </clipPath>
    <clipPath
       clipPathUnits="userSpaceOnUse"
       id="clipPath592">
      <path
         d="m 107.19148,699.8192 h 28.14187 v -36.58607 h -28.14187 z"
         id="path590" />
    </clipPath>
    <linearGradient
       x1="0"
       y1="0"
       x2="1"
       y2="0"
       gradientUnits="userSpaceOnUse"
       gradientTransform="matrix(28.143,0,0,-28.143,107.191,681.526)"
       spreadMethod="pad"
       id="linearGradient600">
      <stop
         style="stop-opacity:1;stop-color:#898b8e"
         offset="0"
         id="stop594" />
      <stop
         style="stop-opacity:1;stop-color:#ffffff"
         offset="0.225006"
         id="stop596" />
      <stop
         style="stop-opacity:1;stop-color:#ffffff"
         offset="1"
         id="stop598" />
    </linearGradient>
    <clipPath
       clipPathUnits="userSpaceOnUse"
       id="clipPath610">
      <path
         d="m 77.173,699.819 h 28.142 V 663.233 H 77.173 Z"
         id="path608" />
    </clipPath>
    <clipPath
       clipPathUnits="userSpaceOnUse"
       id="clipPath616">
      <path
         d="m 81.773,699.819 c -2.641,-0.021 -4.6,-1.759 -4.6,-4.838 v -13.465 c 0,-10.537 8.574,-18.283 18.923,-18.283 3.33,0 6.482,0.839 9.219,2.326 v 14.019 c -0.954,-4.365 -4.439,-7.793 -9.219,-7.793 -5.888,0 -9.542,4.524 -9.542,10.225 v 17.809"
         id="path614" />
    </clipPath>
    <clipPath
       clipPathUnits="userSpaceOnUse"
       id="clipPath624">
      <path
         d="M 77.172704,699.81878 H 105.31458 V 663.23297 H 77.172704 Z"
         id="path622" />
    </clipPath>
    <linearGradient
       x1="0"
       y1="0"
       x2="1"
       y2="0"
       gradientUnits="userSpaceOnUse"
       gradientTransform="matrix(28.143,0,0,-28.143,77.172,681.526)"
       spreadMethod="pad"
       id="linearGradient632">
      <stop
         style="stop-opacity:1;stop-color:#ffffff"
         offset="0"
         id="stop626" />
      <stop
         style="stop-opacity:1;stop-color:#ffffff"
         offset="0.774994"
         id="stop628" />
      <stop
         style="stop-opacity:1;stop-color:#898b8e"
         offset="1"
         id="stop630" />
    </linearGradient>
  </defs>
  <g
     id="g10"
     inkscape:groupmode="layer"
     inkscape:label="Page 1"
     transform="matrix(1.3333333,0,0,-1.3333333,-75.558662,958.10665)">
    <g
       id="g474"
       transform="translate(105.315,697.414)"
       inkscape:export-filename="g474.svg"
       inkscape:export-xdpi="96"
       inkscape:export-ydpi="96">
      <path
         d="m 0,0 c 0,6.509 -5.277,11.785 -11.785,11.785 h -27.481 v -40.658 c 0,-6.51 5.258,-11.786 11.767,-11.786 h 15.714 c 0,0 9.549,0.498 11.785,-7.593"
         style="fill:#58ab46;fill-opacity:1;fill-rule:nonzero;stroke:none"
         id="path476" />
    </g>
    <g
       id="g478"
       transform="translate(107.191,697.414)">
      <path
         d="m 0,0 c 0,6.509 5.277,11.785 11.785,11.785 h 27.481 v -40.658 c 0,-6.51 -5.257,-11.786 -11.766,-11.786 H 11.785 c 0,0 -9.549,0.498 -11.785,-7.593"
         style="fill:#4a4a52;fill-opacity:1;fill-rule:nonzero;stroke:none"
         id="path480" />
    </g>
    <g
       id="g482"
       transform="translate(101.302,641.657)">
      <path
         d="M 0,0 H 6.238 V -1.836 H 2.379 V -4.185 H 6.25 V -6.023 H 2.379 v -2.648 h 3.869 v -1.837 H 0"
         style="fill:#4a4a52;fill-opacity:1;fill-rule:nonzero;stroke:none"
         id="path484" />
    </g>
    <g
       id="g486"
       transform="translate(66.049,641.657)">
      <path
         d="m 0,0 h 2.469 v -7.091 c 0,-1.054 0.391,-1.7 1.385,-1.7 0.994,0 1.385,0.646 1.385,1.7 V 0 h 2.469 v -6.699 c 0,-2.605 -1.491,-3.99 -3.854,-3.99 C 1.49,-10.689 0,-9.304 0,-6.699"
         style="fill:#4a4a52;fill-opacity:1;fill-rule:nonzero;stroke:none"
         id="path488" />
    </g>
    <g
       id="g490"
       transform="translate(76.045,641.657)">
      <path
         d="m 0,0 h 2.89 l 3.056,-7.287 h 0.03 V 0 h 2.169 v -10.508 h -2.92 l -3.027,7.603 h -0.03 v -7.603 H 0"
         style="fill:#4a4a52;fill-opacity:1;fill-rule:nonzero;stroke:none"
         id="path492" />
    </g>
    <path
       d="m 86.583,631.15 h 2.469 v 10.507 h -2.469 z"
       style="fill:#4a4a52;fill-opacity:1;fill-rule:nonzero;stroke:none"
       id="path494" />
    <g
       id="g496"
       transform="translate(90.618,641.657)">
      <path
         d="m 0,0 h 2.65 l 1.852,-7.663 h 0.03 L 6.428,0 h 2.53 L 5.781,-10.508 H 3.132"
         style="fill:#4a4a52;fill-opacity:1;fill-rule:nonzero;stroke:none"
         id="path498" />
    </g>
    <g
       id="g500"
       transform="translate(112.105,637.171)">
      <path
         d="m 0,0 h 0.768 c 0.95,0 1.446,0.632 1.446,1.385 0,0.436 -0.136,1.325 -1.461,1.325 H 0 Z m -2.378,4.486 h 3.855 c 1.731,0 3.206,-0.767 3.206,-2.71 0,-0.436 -0.061,-2.168 -2.093,-2.574 v -0.03 C 3.359,-0.918 3.66,-1.34 4.051,-2.59 L 5.134,-6.022 H 2.545 l -0.812,2.815 c -0.407,1.43 -0.738,1.43 -1.642,1.43 v -4.245 h -2.469"
         style="fill:#4a4a52;fill-opacity:1;fill-rule:nonzero;stroke:none"
         id="path502" />
    </g>
    <g
       id="g504"
       transform="translate(124.826,639.52)">
      <path
         d="m 0,0 c -0.587,0.301 -1.414,0.541 -2.077,0.541 -0.798,0 -1.4,-0.361 -1.4,-1.143 0,-1.912 4.14,-1.025 4.14,-4.758 0,-1.988 -1.58,-3.192 -3.674,-3.192 -1.279,0 -2.378,0.301 -2.829,0.437 l 0.135,2.047 c 0.737,-0.286 1.385,-0.648 2.304,-0.648 0.782,0 1.535,0.392 1.535,1.251 0,2.032 -4.14,1.038 -4.14,4.787 0,0.317 0.12,2.996 3.643,2.996 0.964,0 1.567,-0.165 2.469,-0.361"
         style="fill:#4a4a52;fill-opacity:1;fill-rule:nonzero;stroke:none"
         id="path506" />
    </g>
    <path
       d="m 127.481,631.15 h 2.469 v 10.507 h -2.469 z"
       style="fill:#4a4a52;fill-opacity:1;fill-rule:nonzero;stroke:none"
       id="path508" />
    <g
       id="g510"
       transform="translate(133.924,639.76)">
      <path
         d="M 0,0 H -2.289 V 1.896 H 4.757 V 0 H 2.469 V -8.611 H 0"
         style="fill:#4a4a52;fill-opacity:1;fill-rule:nonzero;stroke:none"
         id="path512" />
    </g>
    <g
       id="g514"
       transform="translate(140.207,641.657)">
      <path
         d="M 0,0 H 6.239 V -1.836 H 2.379 V -4.185 H 6.25 V -6.023 H 2.379 v -2.648 h 3.869 v -1.837 H 0"
         style="fill:#4a4a52;fill-opacity:1;fill-rule:nonzero;stroke:none"
         id="path516" />
    </g>
    <g
       id="g518"
       transform="translate(68.518,619.89)">
      <path
         d="m 0,0 h 0.784 c 1.791,0 2.589,1.416 2.589,3.328 0,2.168 -0.829,3.507 -2.74,3.507 H 0 Z m -2.469,8.672 h 3.734 c 2.363,0 4.697,-1.385 4.697,-5.344 0,-3.63 -2.363,-5.165 -5.013,-5.165 h -3.418"
         style="fill:#58ab46;fill-opacity:1;fill-rule:nonzero;stroke:none"
         id="path520" />
    </g>
    <g
       id="g522"
       transform="translate(76.046,628.562)">
      <path
         d="M 0,0 H 6.067 V -1.837 H 2.379 V -4.185 H 5.886 V -6.022 H 2.379 v -2.65 h 3.869 v -1.836 H 0"
         style="fill:#58ab46;fill-opacity:1;fill-rule:nonzero;stroke:none"
         id="path524" />
    </g>
    <g
       id="g526"
       transform="translate(93.774,628.562)">
      <path
         d="m 0,0 h 2.891 l 3.056,-7.287 h 0.03 V 0 H 8.145 V -10.508 H 5.224 L 2.199,-2.906 H 2.168 v -7.602 H 0"
         style="fill:#4a4a52;fill-opacity:1;fill-rule:nonzero;stroke:none"
         id="path528" />
    </g>
    <g
       id="g530"
       transform="translate(108.644,626.544)">
      <path
         d="m 0,0 h -0.03 l -1.249,-4.366 h 2.364 z m 1.566,-6.142 h -3.297 l -0.723,-2.349 h -2.377 l 3.492,10.51 h 2.711 l 3.37,-10.51 H 2.213"
         style="fill:#4a4a52;fill-opacity:1;fill-rule:nonzero;stroke:none"
         id="path532" />
    </g>
    <g
       id="g534"
       transform="translate(123.907,626.364)">
      <path
         d="M 0,0 H -0.031 L -2.394,-8.311 H -4.02 L -6.293,0 H -6.324 V -8.311 H -8.582 V 2.198 h 3.718 l 1.702,-6.76 h 0.03 l 1.837,6.76 H 2.258 V -8.311 H 0"
         style="fill:#4a4a52;fill-opacity:1;fill-rule:nonzero;stroke:none"
         id="path536" />
    </g>
    <g
       id="g538"
       transform="translate(128.66,628.562)">
      <path
         d="m 0,0 h 2.469 v -7.091 c 0,-1.054 0.391,-1.701 1.385,-1.701 0.994,0 1.384,0.647 1.384,1.701 V 0 h 2.47 v -6.7 c 0,-2.604 -1.49,-3.989 -3.854,-3.989 C 1.49,-10.689 0,-9.304 0,-6.7"
         style="fill:#4a4a52;fill-opacity:1;fill-rule:nonzero;stroke:none"
         id="path540" />
    </g>
    <g
       id="g542"
       transform="translate(141.322,624.076)">
      <path
         d="M 0,0 H 0.767 C 1.716,0 2.213,0.632 2.213,1.385 2.213,1.821 2.077,2.71 0.752,2.71 H 0 Z m -2.379,4.487 h 3.855 c 1.731,0 3.206,-0.769 3.206,-2.711 0,-0.437 -0.06,-2.168 -2.092,-2.575 v -0.03 C 3.357,-0.919 3.659,-1.341 4.05,-2.59 L 5.134,-6.023 H 2.545 l -0.814,2.816 c -0.406,1.429 -0.737,1.429 -1.64,1.429 v -4.245 h -2.47"
         style="fill:#4a4a52;fill-opacity:1;fill-rule:nonzero;stroke:none"
         id="path544" />
    </g>
    <path
       d="m 140.215,643.533 h 6.242 v 1.876 h -6.242 z"
       style="fill:#58ab46;fill-opacity:1;fill-rule:nonzero;stroke:none"
       id="path546" />
    <g
       id="g548"
       transform="translate(146.457,669.388)">
      <path
         d="m 0,0 c -3.099,3.782 -4.961,8.619 -4.961,13.891 0,5.271 1.862,10.107 4.961,13.89 V 31.33 C -4.542,26.909 -7.364,20.73 -7.364,13.891 -7.364,7.18 -4.648,1.107 -0.255,-3.296 -0.089,-2.505 0,-1.688 0,-0.848"
         style="fill:#67696c;fill-opacity:1;fill-rule:nonzero;stroke:none"
         id="path550" />
    </g>
    <g
       id="g552"
       transform="translate(127.871,705.37)">
      <path
         d="m 0,0 c 1.62,-1.917 3.942,-1.232 6.63,-2.432 1.92,-0.859 1.913,-2.689 3.122,-4.751 0.632,-1.075 1.443,-1.997 2.326,-2.825 0.272,0.525 0.56,1.039 0.865,1.543 -1.874,2.379 -1.879,5.403 -4.56,7.29 -1.114,0.785 -2.124,0.888 -3.835,1.956 3.059,-0.643 5.516,-0.318 7.854,-2.383 1.244,-1.101 1.755,-2.81 2.628,-3.9 0.412,0.508 0.842,1.001 1.29,1.476 -1.482,2.434 -2.647,5.304 -5.074,6.469 C 9.104,3.471 5.933,1.881 3.25,2.878 2.77,3.056 2.407,3.397 2.098,3.829 H -1.906 C -1.428,2.502 -0.967,1.145 0,0"
         style="fill:#67696c;fill-opacity:1;fill-rule:nonzero;stroke:none"
         id="path554" />
    </g>
    <g
       id="g556"
       transform="translate(129.149,684.224)">
      <path
         d="M 0,0 3.504,2.016 C 5.149,1.858 6.561,0.786 7.9,0.41 7.934,1.07 7.992,1.724 8.074,2.37 5.453,3.464 2.831,5.091 0.191,4.609 -2.146,4.181 -3.777,1.031 -6.535,0.261 c -1.806,-0.504 -3.635,1.675 -5.905,1.916 -3.165,0.338 -5.001,-1.642 -7.911,-3.123 2.052,0.169 2.948,0.763 4.334,0.789 3.5,0.066 5.32,-3.028 8.546,-3.822 2.438,-0.598 3.913,1.321 6.795,1.931 C 1.382,-1.616 2.451,-3.099 4.64,-4.056 5.779,-4.553 6.971,-4.821 8.168,-4.973 8.079,-4.392 8.011,-3.806 7.962,-3.214 5.057,-2.389 3.275,0.05 0,0"
         style="fill:#67696c;fill-opacity:1;fill-rule:nonzero;stroke:none"
         id="path558" />
    </g>
    <g
       id="g560"
       transform="translate(111.411,666.374)">
      <path
         d="m 0,0 27.719,6.52 c -0.616,1.438 -1.106,2.942 -1.46,4.499"
         style="fill:#67696c;fill-opacity:1;fill-rule:nonzero;stroke:none"
         id="path562" />
    </g>
    <g
       id="g564"
       transform="translate(135.14,663.891)">
      <path
         d="m 0,0 c -1.086,-0.816 -1.499,-1.747 -3.042,-3.045 1.557,2.71 2.008,5.147 4.693,6.734 C 3.074,4.526 4.843,4.49 6.147,4.973 5.79,5.522 5.451,6.083 5.134,6.659 2.37,6.007 -0.704,5.78 -2.553,3.841 -4.193,2.122 -3.66,-1.386 -5.437,-3.631 -6.603,-5.101 -9.364,-4.413 -11.342,-5.554 -12.12,-6 -12.704,-6.535 -13.175,-7.137 h 10.316 c 1.532,1.142 1.818,3.196 3.517,5.081 1.409,1.56 3.147,0.987 5.481,1.5 1.216,0.269 2.34,0.753 3.399,1.336 C 9.121,1.199 8.718,1.632 8.331,2.079 5.496,1.039 2.621,1.961 0,0"
         style="fill:#67696c;fill-opacity:1;fill-rule:nonzero;stroke:none"
         id="path566" />
    </g>
    <g
       id="g568"
       transform="translate(125.984,696.755)">
      <path
         d="m 0,0 v -2.688 l 11.693,-4.906 c 0.356,1.556 0.85,3.061 1.468,4.498"
         style="fill:#67696c;fill-opacity:1;fill-rule:nonzero;stroke:none"
         id="path570" />
    </g>
    <g
       id="g572">
      <g
         id="g574"
         clip-path="url(#clipPath578)">
        <g
           id="g580"
           clip-path="url(#clipPath584)">
          <g
             id="g586">
            <g
               id="g588"
               clip-path="url(#clipPath592)">
              <path
                 d="m 107.192,697.493 v -14.019 c 0.953,4.365 4.439,7.792 9.219,7.792 5.886,0 9.542,-4.524 9.542,-10.225 v -17.808 h 4.781 c 2.641,0.02 4.6,1.757 4.6,4.838 v 13.465 c 0,10.536 -8.575,18.283 -18.923,18.283 -3.332,0 -6.482,-0.841 -9.219,-2.326"
                 style="fill:url(#linearGradient600);stroke:none"
                 id="path602" />
            </g>
          </g>
        </g>
      </g>
    </g>
    <g
       id="g604">
      <g
         id="g606"
         clip-path="url(#clipPath610)">
        <g
           id="g612"
           clip-path="url(#clipPath616)">
          <g
             id="g618">
            <g
               id="g620"
               clip-path="url(#clipPath624)">
              <path
                 d="m 81.773,699.819 c -2.641,-0.021 -4.6,-1.759 -4.6,-4.838 v -13.465 c 0,-10.537 8.574,-18.283 18.923,-18.283 3.33,0 6.482,0.839 9.219,2.326 v 14.019 c -0.954,-4.365 -4.439,-7.793 -9.219,-7.793 -5.888,0 -9.542,4.524 -9.542,10.225 v 17.809"
                 style="fill:url(#linearGradient632);stroke:none"
                 id="path634" />
            </g>
          </g>
        </g>
      </g>
    </g>
    <g
       id="g636"
       transform="translate(66.39,593.681)">
      <path
         d="M 0,0 H 3.508 V -0.832 H 0.946 v -1.93 H 3.395 V -3.594 H 0.946 V -6.601 H 0"
         style="fill:#4a4a52;fill-opacity:1;fill-rule:nonzero;stroke:none"
         id="path638" />
    </g>
    <g
       id="g640"
       transform="translate(73.111,592.792)">
      <path
         d="M 0,0 -1.314,-3.272 H 1.314 Z M -0.464,0.888 H 0.53 l 2.789,-6.6 H 2.288 l -0.671,1.664 h -3.234 l -0.671,-1.664 h -0.994"
         style="fill:#4a4a52;fill-opacity:1;fill-rule:nonzero;stroke:none"
         id="path642" />
    </g>
    <g
       id="g644"
       transform="translate(81.502,592.593)">
      <path
         d="m 0,0 c -0.416,0.246 -0.88,0.369 -1.361,0.369 -1.523,0 -2.534,-1.097 -2.534,-2.582 0,-1.55 1.115,-2.581 2.486,-2.581 0.473,0 1.106,0.123 1.437,0.322 L 0.085,-5.39 c -0.501,-0.208 -1.115,-0.237 -1.503,-0.237 -2.09,0 -3.48,1.344 -3.48,3.443 0,2.033 1.475,3.385 3.489,3.385 0.51,0 1.012,-0.075 1.485,-0.283"
         style="fill:#4a4a52;fill-opacity:1;fill-rule:nonzero;stroke:none"
         id="path646" />
    </g>
    <g
       id="g648"
       transform="translate(87.648,589.813)">
      <path
         d="m 0,0 c 0,-1.853 -0.936,-2.847 -2.563,-2.847 -1.626,0 -2.562,0.994 -2.562,2.847 v 3.867 h 0.946 V 0.123 c 0,-1.267 0.397,-2.137 1.616,-2.137 1.221,0 1.617,0.87 1.617,2.137 V 3.867 H 0"
         style="fill:#4a4a52;fill-opacity:1;fill-rule:nonzero;stroke:none"
         id="path650" />
    </g>
    <g
       id="g652"
       transform="translate(89.189,593.681)">
      <path
         d="m 0,0 h 0.946 v -5.769 h 2.76 V -6.601 H 0"
         style="fill:#4a4a52;fill-opacity:1;fill-rule:nonzero;stroke:none"
         id="path654" />
    </g>
    <g
       id="g656"
       transform="translate(94.389,592.849)">
      <path
         d="m 0,0 h -2.052 v 0.831 h 5.05 V 0 H 0.946 V -5.769 H 0"
         style="fill:#4a4a52;fill-opacity:1;fill-rule:nonzero;stroke:none"
         id="path658" />
    </g>
    <g
       id="g660"
       transform="translate(100.208,595.524)">
      <path
         d="m 0,0 h 1.031 l -1.239,-1.361 h -0.633 z m -1.957,-1.844 h 3.698 v -0.831 h -2.752 v -1.93 h 2.506 v -0.831 h -2.506 v -2.175 h 2.752 v -0.833 h -3.698"
         style="fill:#4a4a52;fill-opacity:1;fill-rule:nonzero;stroke:none"
         id="path662" />
    </g>
    <g
       id="g664"
       transform="translate(67.335,577.701)">
      <path
         d="m 0,0 h 0.993 c 1.626,0 2.525,0.784 2.525,2.487 0,1.541 -1.05,2.449 -2.411,2.449 H 0 Z m -0.946,5.768 h 1.949 c 1.957,0 3.517,-1.21 3.517,-3.243 0,-2.213 -1.342,-3.357 -3.517,-3.357 h -1.949"
         style="fill:#4a4a52;fill-opacity:1;fill-rule:nonzero;stroke:none"
         id="path666" />
    </g>
    <g
       id="g668"
       transform="translate(73.302,583.469)">
      <path
         d="M 0,0 H 1.059 L 0.227,-2.317 h -0.813"
         style="fill:#4a4a52;fill-opacity:1;fill-rule:nonzero;stroke:none"
         id="path670" />
    </g>
    <path
       d="m 75.556,576.869 h 0.94559 v 6.6 H 75.556 Z"
       style="fill:#4a4a52;fill-opacity:1;fill-rule:nonzero;stroke:none"
       id="path672" />
    <g
       id="g674"
       transform="translate(78.039,583.469)">
      <path
         d="M 0,0 H 1.286 L 4.198,-5.315 H 4.217 V 0 H 5.163 V -6.6 H 3.952 L 0.965,-1.173 H 0.946 V -6.6 H 0"
         style="fill:#4a4a52;fill-opacity:1;fill-rule:nonzero;stroke:none"
         id="path676" />
    </g>
    <g
       id="g678"
       transform="translate(84.73,583.469)">
      <path
         d="M 0,0 H 3.509 V -0.832 H 0.946 v -1.93 H 3.395 V -3.594 H 0.946 V -6.6 H 0"
         style="fill:#4a4a52;fill-opacity:1;fill-rule:nonzero;stroke:none"
         id="path680" />
    </g>
    <g
       id="g682"
       transform="translate(92.192,577.587)">
      <path
         d="M 0,0 C 1.522,0 2.175,1.267 2.175,2.582 2.175,3.924 1.456,5.173 0,5.163 -1.456,5.173 -2.175,3.924 -2.175,2.582 -2.175,1.267 -1.522,0 0,0 m 0,5.995 c 2.005,0 3.178,-1.456 3.178,-3.413 0,-2.005 -1.164,-3.414 -3.178,-3.414 -2.014,0 -3.178,1.409 -3.178,3.414 0,1.957 1.173,3.413 3.178,3.413"
         style="fill:#4a4a52;fill-opacity:1;fill-rule:nonzero;stroke:none"
         id="path684" />
    </g>
    <g
       id="g686"
       transform="translate(97.513,580.632)">
      <path
         d="m 0,0 h 0.804 c 0.898,0 1.428,0.397 1.428,1.03 0,0.596 -0.454,0.975 -1.324,0.975 H 0 Z m -0.946,2.837 h 1.618 c 1.304,0 2.561,-0.208 2.561,-1.787 0,-0.804 -0.595,-1.372 -1.361,-1.504 V -0.473 C 2.165,-0.587 2.307,-0.729 2.515,-1.135 L 3.763,-3.763 H 2.685 L 1.673,-1.475 C 1.38,-0.832 1.069,-0.832 0.568,-0.832 H 0 v -2.931 h -0.946"
         style="fill:#4a4a52;fill-opacity:1;fill-rule:nonzero;stroke:none"
         id="path688" />
    </g>
    <g
       id="g690"
       transform="translate(102.212,583.469)">
      <path
         d="M 0,0 H 1.56 L 3.631,-5.485 5.664,0 h 1.56 V -6.6 H 6.278 v 5.711 H 6.26 L 4.075,-6.6 H 3.149 L 0.964,-0.889 H 0.946 V -6.6 H 0"
         style="fill:#4a4a52;fill-opacity:1;fill-rule:nonzero;stroke:none"
         id="path692" />
    </g>
    <g
       id="g694"
       transform="translate(113.584,582.58)">
      <path
         d="m 0,0 -1.315,-3.272 h 2.629 z m -0.464,0.889 h 0.993 l 2.789,-6.601 h -1.03 l -0.671,1.665 h -3.235 l -0.67,-1.665 h -0.994"
         style="fill:#4a4a52;fill-opacity:1;fill-rule:nonzero;stroke:none"
         id="path696" />
    </g>
    <g
       id="g698"
       transform="translate(118.37,582.637)">
      <path
         d="M 0,0 H -2.052 V 0.831 H 2.997 V 0 H 0.945 V -5.769 H 0"
         style="fill:#4a4a52;fill-opacity:1;fill-rule:nonzero;stroke:none"
         id="path700" />
    </g>
    <path
       d="m 122.209,576.869 h 0.946 v 6.6 h -0.946 z"
       style="fill:#4a4a52;fill-opacity:1;fill-rule:nonzero;stroke:none"
       id="path702" />
    <g
       id="g704"
       transform="translate(127.549,577.587)">
      <path
         d="M 0,0 C 1.523,0 2.175,1.267 2.175,2.582 2.175,3.924 1.457,5.173 0,5.163 -1.456,5.173 -2.175,3.924 -2.175,2.582 -2.175,1.267 -1.522,0 0,0 M 0.53,-0.795 0.274,-0.823 C 0.189,-0.832 0.095,-0.832 0,-0.832 c -2.014,0 -3.177,1.409 -3.177,3.414 0,1.957 1.172,3.413 3.177,3.413 2.004,0 3.178,-1.456 3.178,-3.413 0,-1.475 -0.634,-2.629 -1.778,-3.13 l 1.531,-1.39 H 1.759"
         style="fill:#4a4a52;fill-opacity:1;fill-rule:nonzero;stroke:none"
         id="path706" />
    </g>
    <g
       id="g708"
       transform="translate(137.039,579.601)">
      <path
         d="m 0,0 c 0,-1.853 -0.936,-2.846 -2.563,-2.846 -1.626,0 -2.562,0.993 -2.562,2.846 v 3.868 h 0.946 V 0.123 c 0,-1.267 0.396,-2.137 1.616,-2.137 1.22,0 1.617,0.87 1.617,2.137 V 3.868 H 0"
         style="fill:#4a4a52;fill-opacity:1;fill-rule:nonzero;stroke:none"
         id="path710" />
    </g>
    <g
       id="g712"
       transform="translate(138.606,583.469)">
      <path
         d="M 0,0 H 3.698 V -0.832 H 0.946 v -1.93 H 3.452 V -3.594 H 0.946 V -5.769 H 3.698 V -6.6 H 0"
         style="fill:#4a4a52;fill-opacity:1;fill-rule:nonzero;stroke:none"
         id="path714" />
    </g>
    <path
       d="m 66.05,599.308 h 80.409 v 0.93896 H 66.05 Z"
       style="fill:#58ab46;fill-opacity:1;fill-rule:nonzero;stroke:none"
       id="path716" />
    <path
       d="m 66.05,599.308 h 80.409 v 1.877 H 66.05 Z"
       style="fill:#58ab46;fill-opacity:1;fill-rule:nonzero;stroke:none"
       id="path718" />
  </g>
</svg>
