<?xml version="1.0" encoding="UTF-8" standalone="no"?>
<!-- Created with Inkscape (http://www.inkscape.org/) -->
<!-- Extracted from PDF "Université de Namur - Charte graphique" by Jules Dejaeghere :) -->

<svg
   version="1.1"
   id="svg2"
   width="132.228"
   height="208.96133"
   viewBox="0 0 132.228 208.96133"
   sodipodi:docname="info.pdf"
   xmlns:inkscape="http://www.inkscape.org/namespaces/inkscape"
   xmlns:sodipodi="http://sodipodi.sourceforge.net/DTD/sodipodi-0.dtd"
   xmlns="http://www.w3.org/2000/svg"
   xmlns:svg="http://www.w3.org/2000/svg">
  <defs
     id="defs6">
    <clipPath
       clipPathUnits="userSpaceOnUse"
       id="clipPath1286">
      <path
         d="m 305.532,699.819 h 28.143 v -36.586 h -28.143 z"
         id="path1284" />
    </clipPath>
    <clipPath
       clipPathUnits="userSpaceOnUse"
       id="clipPath1292">
      <path
         d="m 305.533,697.493 v -14.019 c 0.952,4.365 4.439,7.792 9.219,7.792 5.886,0 9.542,-4.524 9.542,-10.225 v -17.808 h 4.78 c 2.642,0.02 4.601,1.757 4.601,4.838 v 13.465 c 0,10.536 -8.575,18.283 -18.923,18.283 -3.331,0 -6.483,-0.841 -9.219,-2.326"
         id="path1290" />
    </clipPath>
    <clipPath
       clipPathUnits="userSpaceOnUse"
       id="clipPath1300">
      <path
         d="M 305.53225,699.8192 H 333.675 v -36.58607 h -28.14275 z"
         id="path1298" />
    </clipPath>
    <linearGradient
       x1="0"
       y1="0"
       x2="1"
       y2="0"
       gradientUnits="userSpaceOnUse"
       gradientTransform="matrix(28.143,0,0,-28.143,305.532,681.526)"
       spreadMethod="pad"
       id="linearGradient1308">
      <stop
         style="stop-opacity:1;stop-color:#898b8e"
         offset="0"
         id="stop1302" />
      <stop
         style="stop-opacity:1;stop-color:#ffffff"
         offset="0.225006"
         id="stop1304" />
      <stop
         style="stop-opacity:1;stop-color:#ffffff"
         offset="1"
         id="stop1306" />
    </linearGradient>
    <clipPath
       clipPathUnits="userSpaceOnUse"
       id="clipPath1318">
      <path
         d="m 275.513,699.819 h 28.143 v -36.586 h -28.143 z"
         id="path1316" />
    </clipPath>
    <clipPath
       clipPathUnits="userSpaceOnUse"
       id="clipPath1324">
      <path
         d="m 280.113,699.819 c -2.64,-0.021 -4.601,-1.759 -4.601,-4.838 v -13.465 c 0,-10.537 8.575,-18.283 18.925,-18.283 3.331,0 6.481,0.839 9.219,2.326 v 14.019 c -0.954,-4.365 -4.44,-7.793 -9.219,-7.793 -5.887,0 -9.543,4.524 -9.543,10.225 v 17.809"
         id="path1322" />
    </clipPath>
    <clipPath
       clipPathUnits="userSpaceOnUse"
       id="clipPath1332">
      <path
         d="m 275.513,699.81878 h 28.143 v -36.58581 h -28.143 z"
         id="path1330" />
    </clipPath>
    <linearGradient
       x1="0"
       y1="0"
       x2="1"
       y2="0"
       gradientUnits="userSpaceOnUse"
       gradientTransform="matrix(28.143,0,0,-28.143,275.513,681.526)"
       spreadMethod="pad"
       id="linearGradient1340">
      <stop
         style="stop-opacity:1;stop-color:#ffffff"
         offset="0"
         id="stop1334" />
      <stop
         style="stop-opacity:1;stop-color:#ffffff"
         offset="0.774994"
         id="stop1336" />
      <stop
         style="stop-opacity:1;stop-color:#898b8e"
         offset="1"
         id="stop1338" />
    </linearGradient>
  </defs>
  <g
     id="g10"
     inkscape:groupmode="layer"
     inkscape:label="Page 1"
     transform="matrix(1.3333333,0,0,-1.3333333,-340.01065,958.10665)">
    <g
       id="g1182"
       transform="translate(303.656,697.414)">
      <path
         d="m 0,0 c 0,6.509 -5.277,11.785 -11.785,11.785 h -27.481 v -40.658 c 0,-6.51 5.258,-11.786 11.767,-11.786 h 15.714 c 0,0 9.549,0.498 11.785,-7.593"
         style="fill:#919395;fill-opacity:1;fill-rule:nonzero;stroke:none"
         id="path1184" />
    </g>
    <g
       id="g1186"
       transform="translate(305.532,697.414)">
      <path
         d="m 0,0 c 0,6.509 5.277,11.785 11.785,11.785 h 27.481 v -40.658 c 0,-6.51 -5.257,-11.786 -11.767,-11.786 H 11.785 c 0,0 -9.549,0.498 -11.785,-7.593"
         style="fill:#231f20;fill-opacity:1;fill-rule:nonzero;stroke:none"
         id="path1188" />
    </g>
    <g
       id="g1190"
       transform="translate(299.643,641.657)">
      <path
         d="M 0,0 H 6.238 V -1.836 H 2.379 V -4.185 H 6.25 V -6.023 H 2.379 v -2.648 h 3.869 v -1.837 H 0"
         style="fill:#231f20;fill-opacity:1;fill-rule:nonzero;stroke:none"
         id="path1192" />
    </g>
    <g
       id="g1194"
       transform="translate(264.389,641.657)">
      <path
         d="m 0,0 h 2.469 v -7.091 c 0,-1.054 0.391,-1.7 1.385,-1.7 0.994,0 1.385,0.646 1.385,1.7 V 0 h 2.469 v -6.699 c 0,-2.605 -1.491,-3.99 -3.854,-3.99 C 1.49,-10.689 0,-9.304 0,-6.699"
         style="fill:#231f20;fill-opacity:1;fill-rule:nonzero;stroke:none"
         id="path1196" />
    </g>
    <g
       id="g1198"
       transform="translate(274.386,641.657)">
      <path
         d="m 0,0 h 2.89 l 3.056,-7.287 h 0.03 V 0 h 2.169 v -10.508 h -2.92 l -3.027,7.603 h -0.03 v -7.603 H 0"
         style="fill:#231f20;fill-opacity:1;fill-rule:nonzero;stroke:none"
         id="path1200" />
    </g>
    <path
       d="m 284.924,631.15 h 2.469 v 10.507 h -2.469 z"
       style="fill:#231f20;fill-opacity:1;fill-rule:nonzero;stroke:none"
       id="path1202" />
    <g
       id="g1204"
       transform="translate(288.958,641.657)">
      <path
         d="M 0,0 H 2.65 L 4.503,-7.663 H 4.532 L 6.429,0 h 2.53 L 5.781,-10.508 H 3.132"
         style="fill:#231f20;fill-opacity:1;fill-rule:nonzero;stroke:none"
         id="path1206" />
    </g>
    <g
       id="g1208"
       transform="translate(310.446,637.171)">
      <path
         d="M 0,0 H 0.768 C 1.717,0 2.214,0.632 2.214,1.385 2.214,1.821 2.078,2.71 0.753,2.71 H 0 Z m -2.378,4.486 h 3.854 c 1.732,0 3.207,-0.767 3.207,-2.71 0,-0.436 -0.061,-2.168 -2.093,-2.574 v -0.03 C 3.359,-0.918 3.66,-1.34 4.05,-2.59 L 5.134,-6.022 H 2.545 l -0.813,2.815 c -0.406,1.43 -0.737,1.43 -1.641,1.43 v -4.245 h -2.469"
         style="fill:#231f20;fill-opacity:1;fill-rule:nonzero;stroke:none"
         id="path1210" />
    </g>
    <g
       id="g1212"
       transform="translate(323.167,639.52)">
      <path
         d="m 0,0 c -0.587,0.301 -1.414,0.541 -2.077,0.541 -0.798,0 -1.4,-0.361 -1.4,-1.143 0,-1.912 4.14,-1.025 4.14,-4.758 0,-1.988 -1.581,-3.192 -3.674,-3.192 -1.279,0 -2.378,0.301 -2.829,0.437 l 0.134,2.047 c 0.738,-0.286 1.386,-0.648 2.304,-0.648 0.783,0 1.536,0.392 1.536,1.251 0,2.032 -4.14,1.038 -4.14,4.787 0,0.317 0.12,2.996 3.643,2.996 0.964,0 1.566,-0.165 2.469,-0.361"
         style="fill:#231f20;fill-opacity:1;fill-rule:nonzero;stroke:none"
         id="path1214" />
    </g>
    <path
       d="m 325.822,631.15 h 2.469 v 10.507 h -2.469 z"
       style="fill:#231f20;fill-opacity:1;fill-rule:nonzero;stroke:none"
       id="path1216" />
    <g
       id="g1218"
       transform="translate(332.265,639.76)">
      <path
         d="M 0,0 H -2.289 V 1.896 H 4.757 V 0 H 2.469 V -8.611 H 0"
         style="fill:#231f20;fill-opacity:1;fill-rule:nonzero;stroke:none"
         id="path1220" />
    </g>
    <g
       id="g1222"
       transform="translate(338.548,641.657)">
      <path
         d="M 0,0 H 6.239 V -1.836 H 2.378 V -4.185 H 6.25 V -6.023 H 2.378 v -2.648 h 3.87 v -1.837 H 0"
         style="fill:#231f20;fill-opacity:1;fill-rule:nonzero;stroke:none"
         id="path1224" />
    </g>
    <g
       id="g1226"
       transform="translate(266.858,619.89)">
      <path
         d="m 0,0 h 0.784 c 1.791,0 2.589,1.416 2.589,3.328 0,2.168 -0.829,3.507 -2.74,3.507 H 0 Z m -2.469,8.672 h 3.733 c 2.364,0 4.698,-1.385 4.698,-5.344 0,-3.63 -2.364,-5.165 -5.013,-5.165 h -3.418"
         style="fill:#919395;fill-opacity:1;fill-rule:nonzero;stroke:none"
         id="path1228" />
    </g>
    <g
       id="g1230"
       transform="translate(274.386,628.562)">
      <path
         d="M 0,0 H 6.068 V -1.837 H 2.379 V -4.185 H 5.887 V -6.022 H 2.379 v -2.65 h 3.87 v -1.836 H 0"
         style="fill:#919395;fill-opacity:1;fill-rule:nonzero;stroke:none"
         id="path1232" />
    </g>
    <g
       id="g1234"
       transform="translate(292.115,628.562)">
      <path
         d="m 0,0 h 2.891 l 3.055,-7.287 h 0.03 V 0 h 2.168 v -10.508 h -2.92 l -3.026,7.602 h -0.03 v -7.602 H 0"
         style="fill:#231f20;fill-opacity:1;fill-rule:nonzero;stroke:none"
         id="path1236" />
    </g>
    <g
       id="g1238"
       transform="translate(306.985,626.544)">
      <path
         d="m 0,0 h -0.03 l -1.249,-4.366 h 2.364 z m 1.566,-6.142 h -3.297 l -0.723,-2.349 h -2.378 l 3.493,10.51 h 2.711 l 3.37,-10.51 H 2.213"
         style="fill:#231f20;fill-opacity:1;fill-rule:nonzero;stroke:none"
         id="path1240" />
    </g>
    <g
       id="g1242"
       transform="translate(322.248,626.364)">
      <path
         d="M 0,0 H -0.031 L -2.394,-8.311 H -4.02 L -6.293,0 H -6.324 V -8.311 H -8.582 V 2.198 h 3.718 l 1.702,-6.76 h 0.03 l 1.836,6.76 H 2.258 V -8.311 H 0"
         style="fill:#231f20;fill-opacity:1;fill-rule:nonzero;stroke:none"
         id="path1244" />
    </g>
    <g
       id="g1246"
       transform="translate(327.001,628.562)">
      <path
         d="m 0,0 h 2.468 v -7.091 c 0,-1.054 0.391,-1.701 1.386,-1.701 0.993,0 1.384,0.647 1.384,1.701 V 0 h 2.47 v -6.7 c 0,-2.604 -1.49,-3.989 -3.854,-3.989 C 1.49,-10.689 0,-9.304 0,-6.7"
         style="fill:#231f20;fill-opacity:1;fill-rule:nonzero;stroke:none"
         id="path1248" />
    </g>
    <g
       id="g1250"
       transform="translate(339.663,624.076)">
      <path
         d="M 0,0 H 0.767 C 1.716,0 2.213,0.632 2.213,1.385 2.213,1.821 2.077,2.71 0.752,2.71 H 0 Z m -2.379,4.487 h 3.855 c 1.731,0 3.207,-0.769 3.207,-2.711 0,-0.437 -0.061,-2.168 -2.094,-2.575 v -0.03 C 3.357,-0.919 3.659,-1.341 4.05,-2.59 L 5.133,-6.023 H 2.545 l -0.814,2.816 c -0.406,1.429 -0.737,1.429 -1.64,1.429 v -4.245 h -2.47"
         style="fill:#231f20;fill-opacity:1;fill-rule:nonzero;stroke:none"
         id="path1252" />
    </g>
    <path
       d="m 338.556,643.533 h 6.243 v 1.876 h -6.243 z"
       style="fill:#919395;fill-opacity:1;fill-rule:nonzero;stroke:none"
       id="path1254" />
    <g
       id="g1256"
       transform="translate(344.798,669.388)">
      <path
         d="m 0,0 c -3.099,3.782 -4.961,8.619 -4.961,13.891 0,5.271 1.862,10.107 4.961,13.89 V 31.33 C -4.542,26.909 -7.365,20.73 -7.365,13.891 -7.365,7.18 -4.648,1.107 -0.255,-3.296 -0.089,-2.505 0,-1.688 0,-0.848"
         style="fill:#4a4a4c;fill-opacity:1;fill-rule:nonzero;stroke:none"
         id="path1258" />
    </g>
    <g
       id="g1260"
       transform="translate(326.212,705.37)">
      <path
         d="m 0,0 c 1.62,-1.917 3.942,-1.232 6.63,-2.432 1.92,-0.859 1.913,-2.689 3.122,-4.751 0.632,-1.075 1.443,-1.997 2.326,-2.825 0.272,0.525 0.56,1.039 0.864,1.543 -1.873,2.379 -1.878,5.403 -4.56,7.29 -1.113,0.785 -2.123,0.888 -3.834,1.956 3.059,-0.643 5.516,-0.318 7.854,-2.383 1.244,-1.101 1.755,-2.81 2.628,-3.9 0.411,0.508 0.842,1.001 1.29,1.476 -1.482,2.434 -2.647,5.304 -5.074,6.469 C 9.104,3.471 5.932,1.881 3.25,2.878 2.77,3.056 2.407,3.397 2.098,3.829 H -1.906 C -1.428,2.502 -0.968,1.145 0,0"
         style="fill:#4a4a4c;fill-opacity:1;fill-rule:nonzero;stroke:none"
         id="path1262" />
    </g>
    <g
       id="g1264"
       transform="translate(327.49,684.224)">
      <path
         d="M 0,0 3.504,2.016 C 5.149,1.858 6.56,0.786 7.9,0.41 7.934,1.07 7.992,1.724 8.074,2.37 5.453,3.464 2.831,5.091 0.191,4.609 -2.146,4.181 -3.777,1.031 -6.535,0.261 c -1.806,-0.504 -3.635,1.675 -5.905,1.916 -3.165,0.338 -5.001,-1.642 -7.911,-3.123 2.052,0.169 2.948,0.763 4.334,0.789 3.5,0.066 5.32,-3.028 8.545,-3.822 2.438,-0.598 3.914,1.321 6.796,1.931 C 1.382,-1.616 2.451,-3.099 4.64,-4.056 5.779,-4.553 6.971,-4.821 8.168,-4.973 8.079,-4.392 8.011,-3.806 7.962,-3.214 5.057,-2.389 3.275,0.05 0,0"
         style="fill:#4a4a4c;fill-opacity:1;fill-rule:nonzero;stroke:none"
         id="path1266" />
    </g>
    <g
       id="g1268"
       transform="translate(309.752,666.374)">
      <path
         d="m 0,0 27.719,6.52 c -0.616,1.438 -1.107,2.942 -1.46,4.499"
         style="fill:#4a4a4c;fill-opacity:1;fill-rule:nonzero;stroke:none"
         id="path1270" />
    </g>
    <g
       id="g1272"
       transform="translate(333.481,663.891)">
      <path
         d="m 0,0 c -1.087,-0.816 -1.499,-1.747 -3.042,-3.045 1.557,2.71 2.007,5.147 4.693,6.734 C 3.074,4.526 4.843,4.49 6.147,4.973 5.79,5.522 5.451,6.083 5.134,6.659 2.37,6.007 -0.704,5.78 -2.553,3.841 -4.193,2.122 -3.66,-1.386 -5.437,-3.631 -6.603,-5.101 -9.364,-4.413 -11.342,-5.554 -12.12,-6 -12.705,-6.535 -13.175,-7.137 h 10.316 c 1.532,1.142 1.817,3.196 3.517,5.081 1.409,1.56 3.147,0.987 5.481,1.5 1.216,0.269 2.34,0.753 3.399,1.336 C 9.121,1.199 8.718,1.632 8.33,2.079 5.496,1.039 2.621,1.961 0,0"
         style="fill:#4a4a4c;fill-opacity:1;fill-rule:nonzero;stroke:none"
         id="path1274" />
    </g>
    <g
       id="g1276"
       transform="translate(324.325,696.755)">
      <path
         d="m 0,0 v -2.688 l 11.693,-4.906 c 0.356,1.556 0.85,3.061 1.468,4.498"
         style="fill:#4a4a4c;fill-opacity:1;fill-rule:nonzero;stroke:none"
         id="path1278" />
    </g>
    <g
       id="g1280">
      <g
         id="g1282"
         clip-path="url(#clipPath1286)">
        <g
           id="g1288"
           clip-path="url(#clipPath1292)">
          <g
             id="g1294">
            <g
               id="g1296"
               clip-path="url(#clipPath1300)">
              <path
                 d="m 305.533,697.493 v -14.019 c 0.952,4.365 4.439,7.792 9.219,7.792 5.886,0 9.542,-4.524 9.542,-10.225 v -17.808 h 4.78 c 2.642,0.02 4.601,1.757 4.601,4.838 v 13.465 c 0,10.536 -8.575,18.283 -18.923,18.283 -3.331,0 -6.483,-0.841 -9.219,-2.326"
                 style="fill:url(#linearGradient1308);stroke:none"
                 id="path1310" />
            </g>
          </g>
        </g>
      </g>
    </g>
    <g
       id="g1312">
      <g
         id="g1314"
         clip-path="url(#clipPath1318)">
        <g
           id="g1320"
           clip-path="url(#clipPath1324)">
          <g
             id="g1326">
            <g
               id="g1328"
               clip-path="url(#clipPath1332)">
              <path
                 d="m 280.113,699.819 c -2.64,-0.021 -4.601,-1.759 -4.601,-4.838 v -13.465 c 0,-10.537 8.575,-18.283 18.925,-18.283 3.331,0 6.481,0.839 9.219,2.326 v 14.019 c -0.954,-4.365 -4.44,-7.793 -9.219,-7.793 -5.887,0 -9.543,4.524 -9.543,10.225 v 17.809"
                 style="fill:url(#linearGradient1340);stroke:none"
                 id="path1342" />
            </g>
          </g>
        </g>
      </g>
    </g>
    <g
       id="g1344"
       transform="translate(264.73,593.681)">
      <path
         d="M 0,0 H 3.509 V -0.832 H 0.946 v -1.93 H 3.395 V -3.594 H 0.946 V -6.601 H 0"
         style="fill:#231f20;fill-opacity:1;fill-rule:nonzero;stroke:none"
         id="path1346" />
    </g>
    <g
       id="g1348"
       transform="translate(271.452,592.792)">
      <path
         d="m 0,0 -1.315,-3.272 h 2.629 z m -0.464,0.888 h 0.993 l 2.789,-6.6 h -1.03 l -0.671,1.664 h -3.235 l -0.67,-1.664 h -0.994"
         style="fill:#231f20;fill-opacity:1;fill-rule:nonzero;stroke:none"
         id="path1350" />
    </g>
    <g
       id="g1352"
       transform="translate(279.843,592.593)">
      <path
         d="m 0,0 c -0.416,0.246 -0.879,0.369 -1.361,0.369 -1.523,0 -2.534,-1.097 -2.534,-2.582 0,-1.55 1.115,-2.581 2.486,-2.581 0.474,0 1.106,0.123 1.437,0.322 L 0.085,-5.39 c -0.501,-0.208 -1.115,-0.237 -1.503,-0.237 -2.09,0 -3.48,1.344 -3.48,3.443 0,2.033 1.475,3.385 3.489,3.385 0.511,0 1.012,-0.075 1.485,-0.283"
         style="fill:#231f20;fill-opacity:1;fill-rule:nonzero;stroke:none"
         id="path1354" />
    </g>
    <g
       id="g1356"
       transform="translate(285.989,589.813)">
      <path
         d="m 0,0 c 0,-1.853 -0.935,-2.847 -2.563,-2.847 -1.626,0 -2.562,0.994 -2.562,2.847 v 3.867 h 0.946 V 0.123 c 0,-1.267 0.397,-2.137 1.616,-2.137 1.221,0 1.618,0.87 1.618,2.137 V 3.867 H 0"
         style="fill:#231f20;fill-opacity:1;fill-rule:nonzero;stroke:none"
         id="path1358" />
    </g>
    <g
       id="g1360"
       transform="translate(287.53,593.681)">
      <path
         d="M 0,0 H 0.945 V -5.769 H 3.706 V -6.601 H 0"
         style="fill:#231f20;fill-opacity:1;fill-rule:nonzero;stroke:none"
         id="path1362" />
    </g>
    <g
       id="g1364"
       transform="translate(292.729,592.849)">
      <path
         d="m 0,0 h -2.052 v 0.831 h 5.05 V 0 H 0.946 V -5.769 H 0"
         style="fill:#231f20;fill-opacity:1;fill-rule:nonzero;stroke:none"
         id="path1366" />
    </g>
    <g
       id="g1368"
       transform="translate(298.549,595.524)">
      <path
         d="M 0,0 H 1.031 L -0.208,-1.361 H -0.841 Z M -1.957,-1.844 H 1.74 v -0.831 h -2.751 v -1.93 H 1.495 V -5.436 H -1.011 V -7.611 H 1.74 v -0.833 h -3.697"
         style="fill:#231f20;fill-opacity:1;fill-rule:nonzero;stroke:none"
         id="path1370" />
    </g>
    <g
       id="g1372"
       transform="translate(265.676,577.701)">
      <path
         d="m 0,0 h 0.993 c 1.626,0 2.525,0.784 2.525,2.487 0,1.541 -1.05,2.449 -2.411,2.449 H 0 Z m -0.946,5.768 h 1.949 c 1.957,0 3.517,-1.21 3.517,-3.243 0,-2.213 -1.342,-3.357 -3.517,-3.357 h -1.949"
         style="fill:#231f20;fill-opacity:1;fill-rule:nonzero;stroke:none"
         id="path1374" />
    </g>
    <g
       id="g1376"
       transform="translate(271.642,583.469)">
      <path
         d="M 0,0 H 1.06 L 0.227,-2.317 h -0.813"
         style="fill:#231f20;fill-opacity:1;fill-rule:nonzero;stroke:none"
         id="path1378" />
    </g>
    <path
       d="m 273.896,576.869 h 0.94601 v 6.6 H 273.896 Z"
       style="fill:#231f20;fill-opacity:1;fill-rule:nonzero;stroke:none"
       id="path1380" />
    <g
       id="g1382"
       transform="translate(276.379,583.469)">
      <path
         d="M 0,0 H 1.286 L 4.199,-5.315 H 4.218 V 0 H 5.163 V -6.6 H 3.953 L 0.965,-1.173 H 0.946 V -6.6 H 0"
         style="fill:#231f20;fill-opacity:1;fill-rule:nonzero;stroke:none"
         id="path1384" />
    </g>
    <g
       id="g1386"
       transform="translate(283.071,583.469)">
      <path
         d="M 0,0 H 3.508 V -0.832 H 0.945 v -1.93 H 3.394 V -3.594 H 0.945 V -6.6 H 0"
         style="fill:#231f20;fill-opacity:1;fill-rule:nonzero;stroke:none"
         id="path1388" />
    </g>
    <g
       id="g1390"
       transform="translate(290.533,577.587)">
      <path
         d="M 0,0 C 1.523,0 2.175,1.267 2.175,2.582 2.175,3.924 1.457,5.173 0,5.163 -1.456,5.173 -2.175,3.924 -2.175,2.582 -2.175,1.267 -1.522,0 0,0 m 0,5.995 c 2.005,0 3.178,-1.456 3.178,-3.413 0,-2.005 -1.164,-3.414 -3.178,-3.414 -2.014,0 -3.177,1.409 -3.177,3.414 0,1.957 1.172,3.413 3.177,3.413"
         style="fill:#231f20;fill-opacity:1;fill-rule:nonzero;stroke:none"
         id="path1392" />
    </g>
    <g
       id="g1394"
       transform="translate(295.854,580.632)">
      <path
         d="m 0,0 h 0.803 c 0.899,0 1.429,0.397 1.429,1.03 0,0.596 -0.454,0.975 -1.325,0.975 H 0 Z m -0.946,2.837 h 1.617 c 1.305,0 2.562,-0.208 2.562,-1.787 0,-0.804 -0.596,-1.372 -1.361,-1.504 V -0.473 C 2.165,-0.587 2.307,-0.729 2.514,-1.135 L 3.763,-3.763 H 2.685 L 1.673,-1.475 C 1.38,-0.832 1.068,-0.832 0.567,-0.832 H 0 v -2.931 h -0.946"
         style="fill:#231f20;fill-opacity:1;fill-rule:nonzero;stroke:none"
         id="path1396" />
    </g>
    <g
       id="g1398"
       transform="translate(300.553,583.469)">
      <path
         d="M 0,0 H 1.56 L 3.631,-5.485 5.664,0 h 1.56 V -6.6 H 6.278 v 5.711 H 6.26 L 4.075,-6.6 H 3.148 L 0.964,-0.889 H 0.945 V -6.6 H 0"
         style="fill:#231f20;fill-opacity:1;fill-rule:nonzero;stroke:none"
         id="path1400" />
    </g>
    <g
       id="g1402"
       transform="translate(311.925,582.58)">
      <path
         d="m 0,0 -1.315,-3.272 h 2.629 z m -0.464,0.889 h 0.993 l 2.789,-6.601 h -1.03 l -0.671,1.665 h -3.235 l -0.67,-1.665 h -0.994"
         style="fill:#231f20;fill-opacity:1;fill-rule:nonzero;stroke:none"
         id="path1404" />
    </g>
    <g
       id="g1406"
       transform="translate(316.711,582.637)">
      <path
         d="m 0,0 h -2.053 v 0.831 h 5.05 V 0 H 0.945 V -5.769 H 0"
         style="fill:#231f20;fill-opacity:1;fill-rule:nonzero;stroke:none"
         id="path1408" />
    </g>
    <path
       d="m 320.55,576.869 h 0.94601 v 6.6 H 320.55 Z"
       style="fill:#231f20;fill-opacity:1;fill-rule:nonzero;stroke:none"
       id="path1410" />
    <g
       id="g1412"
       transform="translate(325.89,577.587)">
      <path
         d="M 0,0 C 1.522,0 2.175,1.267 2.175,2.582 2.175,3.924 1.456,5.173 0,5.163 -1.456,5.173 -2.175,3.924 -2.175,2.582 -2.175,1.267 -1.522,0 0,0 M 0.53,-0.795 0.274,-0.823 C 0.189,-0.832 0.095,-0.832 0,-0.832 c -2.014,0 -3.178,1.409 -3.178,3.414 0,1.957 1.173,3.413 3.178,3.413 2.004,0 3.178,-1.456 3.178,-3.413 0,-1.475 -0.634,-2.629 -1.779,-3.13 l 1.532,-1.39 H 1.759"
         style="fill:#231f20;fill-opacity:1;fill-rule:nonzero;stroke:none"
         id="path1414" />
    </g>
    <g
       id="g1416"
       transform="translate(335.38,579.601)">
      <path
         d="m 0,0 c 0,-1.853 -0.936,-2.846 -2.563,-2.846 -1.627,0 -2.562,0.993 -2.562,2.846 V 3.868 H -4.18 V 0.123 c 0,-1.267 0.397,-2.137 1.617,-2.137 1.22,0 1.617,0.87 1.617,2.137 V 3.868 H 0"
         style="fill:#231f20;fill-opacity:1;fill-rule:nonzero;stroke:none"
         id="path1418" />
    </g>
    <g
       id="g1420"
       transform="translate(336.947,583.469)">
      <path
         d="M 0,0 H 3.697 V -0.832 H 0.946 v -1.93 H 3.452 V -3.594 H 0.946 V -5.769 H 3.697 V -6.6 H 0"
         style="fill:#231f20;fill-opacity:1;fill-rule:nonzero;stroke:none"
         id="path1422" />
    </g>
    <path
       d="m 264.389,599.308 h 80.409 v 0.93896 h -80.409 z"
       style="fill:#919395;fill-opacity:1;fill-rule:nonzero;stroke:none"
       id="path1424" />
    <path
       d="m 264.389,599.308 h 80.409 v 1.877 h -80.409 z"
       style="fill:#919395;fill-opacity:1;fill-rule:nonzero;stroke:none"
       id="path1426" />
  </g>
</svg>
