<?xml version="1.0" encoding="UTF-8" standalone="no"?>
<!-- Created with Inkscape (http://www.inkscape.org/) -->
<!-- Extracted from PDF "Université de Namur - Charte graphique" by Jules Dejaeghere :) -->

<svg
   version="1.1"
   id="svg2"
   width="132.228"
   height="222.576"
   viewBox="0 0 132.228 222.57599"
   xmlns="http://www.w3.org/2000/svg"
   xmlns:svg="http://www.w3.org/2000/svg">
  <defs
     id="defs6">
    <clipPath
       clipPathUnits="userSpaceOnUse"
       id="clipPath1006">
      <path
         d="m 305.532,246.47 h 28.143 v -36.586 h -28.143 z"
         id="path1004" />
    </clipPath>
    <clipPath
       clipPathUnits="userSpaceOnUse"
       id="clipPath1012">
      <path
         d="m 305.533,244.143 v -14.018 c 0.952,4.364 4.439,7.791 9.219,7.791 5.886,0 9.542,-4.524 9.542,-10.224 v -17.808 h 4.78 c 2.642,0.019 4.601,1.757 4.601,4.838 v 13.465 c 0,10.536 -8.575,18.283 -18.923,18.283 -3.331,0 -6.483,-0.841 -9.219,-2.327"
         id="path1010" />
    </clipPath>
    <clipPath
       clipPathUnits="userSpaceOnUse"
       id="clipPath1020">
      <path
         d="M 305.53225,246.4692 H 333.675 v -36.5857 h -28.14275 z"
         id="path1018" />
    </clipPath>
    <linearGradient
       x1="0"
       y1="0"
       x2="1"
       y2="0"
       gradientUnits="userSpaceOnUse"
       gradientTransform="matrix(28.143,0,0,-28.143,305.532,228.176)"
       spreadMethod="pad"
       id="linearGradient1028">
      <stop
         style="stop-opacity:1;stop-color:#898b8e"
         offset="0"
         id="stop1022" />
      <stop
         style="stop-opacity:1;stop-color:#ffffff"
         offset="0.225006"
         id="stop1024" />
      <stop
         style="stop-opacity:1;stop-color:#ffffff"
         offset="1"
         id="stop1026" />
    </linearGradient>
    <clipPath
       clipPathUnits="userSpaceOnUse"
       id="clipPath1038">
      <path
         d="m 275.513,246.469 h 28.143 v -36.585 h -28.143 z"
         id="path1036" />
    </clipPath>
    <clipPath
       clipPathUnits="userSpaceOnUse"
       id="clipPath1044">
      <path
         d="m 280.113,246.47 c -2.64,-0.021 -4.601,-1.759 -4.601,-4.839 v -13.465 c 0,-10.536 8.575,-18.282 18.925,-18.282 3.331,0 6.481,0.84 9.219,2.326 v 14.019 c -0.954,-4.365 -4.44,-7.792 -9.219,-7.792 -5.887,0 -9.543,4.523 -9.543,10.224 v 17.809"
         id="path1042" />
    </clipPath>
    <clipPath
       clipPathUnits="userSpaceOnUse"
       id="clipPath1052">
      <path
         d="m 275.513,246.46978 h 28.143 V 209.8843 h -28.143 z"
         id="path1050" />
    </clipPath>
    <linearGradient
       x1="0"
       y1="0"
       x2="1"
       y2="0"
       gradientUnits="userSpaceOnUse"
       gradientTransform="matrix(28.143,0,0,-28.143,275.513,228.177)"
       spreadMethod="pad"
       id="linearGradient1060">
      <stop
         style="stop-opacity:1;stop-color:#ffffff"
         offset="0"
         id="stop1054" />
      <stop
         style="stop-opacity:1;stop-color:#ffffff"
         offset="0.774994"
         id="stop1056" />
      <stop
         style="stop-opacity:1;stop-color:#898b8e"
         offset="1"
         id="stop1058" />
    </linearGradient>
  </defs>
  <g
     id="g10"
     transform="matrix(1.3333333,0,0,-1.3333333,-340.01065,353.63999)">
    <g
       id="g900"
       transform="translate(303.656,244.065)">
      <path
         d="m 0,0 c 0,6.509 -5.277,11.785 -11.785,11.785 h -27.481 v -40.659 c 0,-6.509 5.258,-11.786 11.767,-11.786 h 15.714 c 0,0 9.549,0.499 11.785,-7.592"
         style="fill:#919395;fill-opacity:1;fill-rule:nonzero;stroke:none"
         id="path902" />
    </g>
    <g
       id="g904"
       transform="translate(305.532,244.065)">
      <path
         d="m 0,0 c 0,6.509 5.277,11.785 11.785,11.785 h 27.481 v -40.659 c 0,-6.509 -5.257,-11.786 -11.767,-11.786 H 11.785 c 0,0 -9.549,0.499 -11.785,-7.592"
         style="fill:#231f20;fill-opacity:1;fill-rule:nonzero;stroke:none"
         id="path906" />
    </g>
    <g
       id="g908"
       transform="translate(299.643,188.308)">
      <path
         d="M 0,0 H 6.238 V -1.836 H 2.379 V -4.185 H 6.25 V -6.023 H 2.379 v -2.648 h 3.869 v -1.837 H 0"
         style="fill:#231f20;fill-opacity:1;fill-rule:nonzero;stroke:none"
         id="path910" />
    </g>
    <g
       id="g912"
       transform="translate(264.389,188.308)">
      <path
         d="m 0,0 h 2.469 v -7.091 c 0,-1.054 0.391,-1.7 1.385,-1.7 0.994,0 1.385,0.646 1.385,1.7 V 0 H 7.708 V -6.699 C 7.708,-9.304 6.217,-10.69 3.854,-10.69 1.49,-10.69 0,-9.304 0,-6.699"
         style="fill:#231f20;fill-opacity:1;fill-rule:nonzero;stroke:none"
         id="path914" />
    </g>
    <g
       id="g916"
       transform="translate(274.386,188.308)">
      <path
         d="m 0,0 h 2.89 l 3.056,-7.287 h 0.03 V 0 h 2.169 v -10.508 h -2.92 l -3.027,7.602 h -0.03 v -7.602 H 0"
         style="fill:#231f20;fill-opacity:1;fill-rule:nonzero;stroke:none"
         id="path918" />
    </g>
    <path
       d="m 284.924,177.801 h 2.469 v 10.507 h -2.469 z"
       style="fill:#231f20;fill-opacity:1;fill-rule:nonzero;stroke:none"
       id="path920" />
    <g
       id="g922"
       transform="translate(288.958,188.308)">
      <path
         d="M 0,0 H 2.65 L 4.503,-7.664 H 4.532 L 6.429,0 h 2.53 L 5.781,-10.508 H 3.132"
         style="fill:#231f20;fill-opacity:1;fill-rule:nonzero;stroke:none"
         id="path924" />
    </g>
    <g
       id="g926"
       transform="translate(310.446,183.822)">
      <path
         d="M 0,0 H 0.768 C 1.717,0 2.214,0.632 2.214,1.384 2.214,1.821 2.078,2.71 0.753,2.71 H 0 Z m -2.378,4.486 h 3.854 c 1.732,0 3.207,-0.768 3.207,-2.71 0,-0.437 -0.061,-2.168 -2.093,-2.575 v -0.03 C 3.359,-0.919 3.66,-1.34 4.05,-2.59 L 5.134,-6.022 H 2.545 l -0.813,2.814 c -0.406,1.431 -0.737,1.431 -1.641,1.431 v -4.245 h -2.469"
         style="fill:#231f20;fill-opacity:1;fill-rule:nonzero;stroke:none"
         id="path928" />
    </g>
    <g
       id="g930"
       transform="translate(323.167,186.17)">
      <path
         d="m 0,0 c -0.587,0.302 -1.414,0.542 -2.077,0.542 -0.798,0 -1.4,-0.361 -1.4,-1.143 0,-1.913 4.14,-1.025 4.14,-4.758 0,-1.989 -1.581,-3.192 -3.674,-3.192 -1.279,0 -2.378,0.301 -2.829,0.437 l 0.134,2.047 c 0.738,-0.286 1.386,-0.648 2.304,-0.648 0.783,0 1.536,0.392 1.536,1.251 0,2.032 -4.14,1.038 -4.14,4.787 0,0.316 0.12,2.995 3.643,2.995 0.964,0 1.566,-0.165 2.469,-0.361"
         style="fill:#231f20;fill-opacity:1;fill-rule:nonzero;stroke:none"
         id="path932" />
    </g>
    <path
       d="m 325.822,177.801 h 2.469 v 10.507 h -2.469 z"
       style="fill:#231f20;fill-opacity:1;fill-rule:nonzero;stroke:none"
       id="path934" />
    <g
       id="g936"
       transform="translate(332.265,186.411)">
      <path
         d="M 0,0 H -2.289 V 1.896 H 4.757 V 0 H 2.469 V -8.611 H 0"
         style="fill:#231f20;fill-opacity:1;fill-rule:nonzero;stroke:none"
         id="path938" />
    </g>
    <g
       id="g940"
       transform="translate(338.548,188.308)">
      <path
         d="M 0,0 H 6.239 V -1.836 H 2.378 V -4.185 H 6.25 V -6.023 H 2.378 v -2.648 h 3.87 v -1.837 H 0"
         style="fill:#231f20;fill-opacity:1;fill-rule:nonzero;stroke:none"
         id="path942" />
    </g>
    <g
       id="g944"
       transform="translate(266.858,166.541)">
      <path
         d="m 0,0 h 0.784 c 1.791,0 2.589,1.415 2.589,3.328 0,2.168 -0.829,3.507 -2.74,3.507 H 0 Z m -2.469,8.672 h 3.733 c 2.364,0 4.698,-1.385 4.698,-5.344 0,-3.63 -2.364,-5.165 -5.013,-5.165 h -3.418"
         style="fill:#919395;fill-opacity:1;fill-rule:nonzero;stroke:none"
         id="path946" />
    </g>
    <g
       id="g948"
       transform="translate(274.386,175.213)">
      <path
         d="M 0,0 H 6.068 V -1.837 H 2.379 V -4.185 H 5.887 V -6.022 H 2.379 v -2.65 h 3.87 v -1.836 H 0"
         style="fill:#919395;fill-opacity:1;fill-rule:nonzero;stroke:none"
         id="path950" />
    </g>
    <g
       id="g952"
       transform="translate(292.115,175.213)">
      <path
         d="m 0,0 h 2.891 l 3.055,-7.287 h 0.03 V 0 h 2.168 v -10.508 h -2.92 l -3.026,7.602 h -0.03 v -7.602 H 0"
         style="fill:#231f20;fill-opacity:1;fill-rule:nonzero;stroke:none"
         id="path954" />
    </g>
    <g
       id="g956"
       transform="translate(306.985,173.195)">
      <path
         d="M 0,0 H -0.03 L -1.279,-4.366 H 1.085 Z M 1.566,-6.142 H -1.731 L -2.454,-8.491 H -4.832 L -1.339,2.018 H 1.372 L 4.742,-8.491 H 2.213"
         style="fill:#231f20;fill-opacity:1;fill-rule:nonzero;stroke:none"
         id="path958" />
    </g>
    <g
       id="g960"
       transform="translate(322.248,173.015)">
      <path
         d="M 0,0 H -0.031 L -2.394,-8.311 H -4.02 L -6.293,0 H -6.324 V -8.311 H -8.582 V 2.198 h 3.718 l 1.702,-6.761 h 0.03 l 1.836,6.761 H 2.258 V -8.311 H 0"
         style="fill:#231f20;fill-opacity:1;fill-rule:nonzero;stroke:none"
         id="path962" />
    </g>
    <g
       id="g964"
       transform="translate(327.001,175.213)">
      <path
         d="m 0,0 h 2.468 v -7.091 c 0,-1.055 0.391,-1.701 1.386,-1.701 0.993,0 1.384,0.646 1.384,1.701 V 0 h 2.47 v -6.7 c 0,-2.604 -1.49,-3.989 -3.854,-3.989 C 1.49,-10.689 0,-9.304 0,-6.7"
         style="fill:#231f20;fill-opacity:1;fill-rule:nonzero;stroke:none"
         id="path966" />
    </g>
    <g
       id="g968"
       transform="translate(339.663,170.726)">
      <path
         d="M 0,0 H 0.767 C 1.716,0 2.213,0.633 2.213,1.386 2.213,1.822 2.077,2.71 0.752,2.71 H 0 Z m -2.379,4.487 h 3.855 c 1.731,0 3.207,-0.768 3.207,-2.71 0,-0.437 -0.061,-2.168 -2.094,-2.575 v -0.03 C 3.357,-0.918 3.659,-1.34 4.05,-2.589 L 5.133,-6.022 H 2.545 l -0.814,2.816 c -0.406,1.429 -0.737,1.429 -1.64,1.429 v -4.245 h -2.47"
         style="fill:#231f20;fill-opacity:1;fill-rule:nonzero;stroke:none"
         id="path970" />
    </g>
    <path
       d="m 338.556,190.183 h 6.243 v 1.8769 h -6.243 z"
       style="fill:#919395;fill-opacity:1;fill-rule:nonzero;stroke:none"
       id="path972" />
    <path
       d="m 264.389,145.959 h 80.409 v 1.8769 h -80.409 z"
       style="fill:#919395;fill-opacity:1;fill-rule:nonzero;stroke:none"
       id="path974" />
    <g
       id="g976"
       transform="translate(344.798,216.038)">
      <path
         d="m 0,0 c -3.099,3.783 -4.961,8.62 -4.961,13.891 0,5.272 1.862,10.108 4.961,13.89 v 3.55 C -4.542,26.91 -7.365,20.73 -7.365,13.891 c 0,-6.71 2.717,-12.783 7.11,-17.186 C -0.089,-2.505 0,-1.687 0,-0.847"
         style="fill:#4a4a4c;fill-opacity:1;fill-rule:nonzero;stroke:none"
         id="path978" />
    </g>
    <g
       id="g980"
       transform="translate(326.212,252.02)">
      <path
         d="m 0,0 c 1.62,-1.916 3.942,-1.231 6.63,-2.432 1.92,-0.858 1.913,-2.688 3.122,-4.75 0.632,-1.075 1.443,-1.998 2.326,-2.825 0.272,0.525 0.56,1.039 0.864,1.543 -1.873,2.379 -1.878,5.403 -4.56,7.29 -1.113,0.785 -2.123,0.888 -3.834,1.956 3.059,-0.644 5.516,-0.318 7.854,-2.383 1.244,-1.101 1.755,-2.811 2.628,-3.9 0.411,0.508 0.842,1 1.29,1.476 -1.482,2.434 -2.647,5.304 -5.074,6.468 C 9.104,3.472 5.932,1.882 3.25,2.879 2.77,3.057 2.407,3.398 2.098,3.83 H -1.906 C -1.428,2.502 -0.968,1.146 0,0"
         style="fill:#4a4a4c;fill-opacity:1;fill-rule:nonzero;stroke:none"
         id="path982" />
    </g>
    <g
       id="g984"
       transform="translate(327.49,230.874)">
      <path
         d="M 0,0 3.504,2.016 C 5.149,1.859 6.56,0.787 7.9,0.411 7.934,1.071 7.992,1.725 8.074,2.37 5.453,3.465 2.831,5.092 0.191,4.609 -2.146,4.182 -3.777,1.032 -6.535,0.261 c -1.806,-0.504 -3.635,1.676 -5.905,1.916 -3.165,0.338 -5.001,-1.641 -7.911,-3.122 2.052,0.169 2.948,0.762 4.334,0.788 3.5,0.066 5.32,-3.027 8.545,-3.821 2.438,-0.599 3.914,1.32 6.796,1.93 2.058,0.433 3.127,-1.05 5.316,-2.007 1.139,-0.498 2.331,-0.766 3.528,-0.918 -0.089,0.581 -0.157,1.168 -0.206,1.76 C 5.057,-2.389 3.275,0.05 0,0"
         style="fill:#4a4a4c;fill-opacity:1;fill-rule:nonzero;stroke:none"
         id="path986" />
    </g>
    <g
       id="g988"
       transform="translate(309.752,213.025)">
      <path
         d="m 0,0 27.719,6.519 c -0.616,1.439 -1.107,2.943 -1.46,4.499"
         style="fill:#4a4a4c;fill-opacity:1;fill-rule:nonzero;stroke:none"
         id="path990" />
    </g>
    <g
       id="g992"
       transform="translate(333.481,210.542)">
      <path
         d="m 0,0 c -1.087,-0.816 -1.499,-1.747 -3.042,-3.045 1.557,2.71 2.007,5.147 4.693,6.734 C 3.074,4.526 4.843,4.49 6.147,4.973 5.79,5.522 5.451,6.083 5.134,6.659 2.37,6.007 -0.704,5.779 -2.553,3.841 -4.193,2.122 -3.66,-1.387 -5.437,-3.632 c -1.166,-1.469 -3.927,-0.781 -5.905,-1.922 -0.778,-0.448 -1.363,-0.981 -1.833,-1.583 h 10.316 c 1.532,1.141 1.817,3.196 3.517,5.081 1.409,1.56 3.147,0.987 5.481,1.5 1.216,0.269 2.34,0.753 3.399,1.336 C 9.121,1.199 8.718,1.632 8.33,2.079 5.496,1.038 2.621,1.961 0,0"
         style="fill:#4a4a4c;fill-opacity:1;fill-rule:nonzero;stroke:none"
         id="path994" />
    </g>
    <g
       id="g996"
       transform="translate(324.325,243.406)">
      <path
         d="m 0,0 v -2.688 l 11.693,-4.906 c 0.356,1.556 0.85,3.061 1.468,4.498"
         style="fill:#4a4a4c;fill-opacity:1;fill-rule:nonzero;stroke:none"
         id="path998" />
    </g>
    <g
       id="g1000">
      <g
         id="g1002"
         clip-path="url(#clipPath1006)">
        <g
           id="g1008"
           clip-path="url(#clipPath1012)">
          <g
             id="g1014">
            <g
               id="g1016"
               clip-path="url(#clipPath1020)">
              <path
                 d="m 305.533,244.143 v -14.018 c 0.952,4.364 4.439,7.791 9.219,7.791 5.886,0 9.542,-4.524 9.542,-10.224 v -17.808 h 4.78 c 2.642,0.019 4.601,1.757 4.601,4.838 v 13.465 c 0,10.536 -8.575,18.283 -18.923,18.283 -3.331,0 -6.483,-0.841 -9.219,-2.327"
                 style="fill:url(#linearGradient1028);stroke:none"
                 id="path1030" />
            </g>
          </g>
        </g>
      </g>
    </g>
    <g
       id="g1032">
      <g
         id="g1034"
         clip-path="url(#clipPath1038)">
        <g
           id="g1040"
           clip-path="url(#clipPath1044)">
          <g
             id="g1046">
            <g
               id="g1048"
               clip-path="url(#clipPath1052)">
              <path
                 d="m 280.113,246.47 c -2.64,-0.021 -4.601,-1.759 -4.601,-4.839 v -13.465 c 0,-10.536 8.575,-18.282 18.925,-18.282 3.331,0 6.481,0.84 9.219,2.326 v 14.019 c -0.954,-4.365 -4.44,-7.792 -9.219,-7.792 -5.887,0 -9.543,4.523 -9.543,10.224 v 17.809"
                 style="fill:url(#linearGradient1060);stroke:none"
                 id="path1062" />
            </g>
          </g>
        </g>
      </g>
    </g>
    <g
       id="g1064"
       transform="translate(264.389,140.331)">
      <path
         d="M 0,0 H 3.508 V -0.831 H 0.946 V -2.762 H 3.395 V -3.593 H 0.946 V -6.6 H 0"
         style="fill:#231f20;fill-opacity:1;fill-rule:nonzero;stroke:none"
         id="path1066" />
    </g>
    <g
       id="g1068"
       transform="translate(271.111,139.442)">
      <path
         d="M 0,0 -1.314,-3.271 H 1.315 Z M -0.464,0.889 H 0.53 l 2.789,-6.6 H 2.288 l -0.671,1.664 h -3.234 l -0.672,-1.664 h -0.992"
         style="fill:#231f20;fill-opacity:1;fill-rule:nonzero;stroke:none"
         id="path1070" />
    </g>
    <g
       id="g1072"
       transform="translate(279.503,139.244)">
      <path
         d="m 0,0 c -0.416,0.246 -0.88,0.369 -1.362,0.369 -1.522,0 -2.534,-1.097 -2.534,-2.582 0,-1.551 1.116,-2.581 2.487,-2.581 0.473,0 1.106,0.123 1.437,0.321 L 0.085,-5.39 c -0.501,-0.208 -1.116,-0.237 -1.504,-0.237 -2.09,0 -3.479,1.344 -3.479,3.443 0,2.033 1.475,3.385 3.489,3.385 0.51,0 1.012,-0.076 1.484,-0.284"
         style="fill:#231f20;fill-opacity:1;fill-rule:nonzero;stroke:none"
         id="path1074" />
    </g>
    <g
       id="g1076"
       transform="translate(285.649,136.464)">
      <path
         d="m 0,0 c 0,-1.853 -0.936,-2.846 -2.563,-2.846 -1.627,0 -2.562,0.993 -2.562,2.846 V 3.867 H -4.18 V 0.123 c 0,-1.268 0.397,-2.137 1.617,-2.137 1.22,0 1.617,0.869 1.617,2.137 V 3.867 H 0"
         style="fill:#231f20;fill-opacity:1;fill-rule:nonzero;stroke:none"
         id="path1078" />
    </g>
    <g
       id="g1080"
       transform="translate(287.189,140.331)">
      <path
         d="M 0,0 H 0.946 V -5.768 H 3.707 V -6.6 H 0"
         style="fill:#231f20;fill-opacity:1;fill-rule:nonzero;stroke:none"
         id="path1082" />
    </g>
    <g
       id="g1084"
       transform="translate(292.389,139.499)">
      <path
         d="m 0,0 h -2.052 v 0.832 h 5.05 V 0 H 0.946 V -5.768 H 0"
         style="fill:#231f20;fill-opacity:1;fill-rule:nonzero;stroke:none"
         id="path1086" />
    </g>
    <g
       id="g1088"
       transform="translate(298.209,142.175)">
      <path
         d="M 0,0 H 1.03 L -0.208,-1.361 H -0.842 Z M -1.958,-1.844 H 1.74 V -2.676 H -1.012 V -4.605 H 1.494 V -5.437 H -1.012 V -7.612 H 1.74 v -0.832 h -3.698"
         style="fill:#231f20;fill-opacity:1;fill-rule:nonzero;stroke:none"
         id="path1090" />
    </g>
    <g
       id="g1092"
       transform="translate(265.336,124.351)">
      <path
         d="m 0,0 h 0.992 c 1.626,0 2.525,0.785 2.525,2.487 0,1.542 -1.049,2.449 -2.411,2.449 H 0 Z m -0.946,5.769 h 1.948 c 1.957,0 3.518,-1.211 3.518,-3.244 0,-2.213 -1.343,-3.356 -3.518,-3.356 h -1.948"
         style="fill:#231f20;fill-opacity:1;fill-rule:nonzero;stroke:none"
         id="path1094" />
    </g>
    <g
       id="g1096"
       transform="translate(271.112,130.12)">
      <path
         d="M 0,0 H 3.697 V -0.832 H 0.945 v -1.93 H 3.451 V -3.594 H 0.945 V -5.769 H 3.697 V -6.601 H 0"
         style="fill:#231f20;fill-opacity:1;fill-rule:nonzero;stroke:none"
         id="path1098" />
    </g>
    <g
       id="g1100"
       transform="translate(279.839,126.99)">
      <path
         d="M 0,0 H 0.936 C 1.522,0 2.26,0.293 2.26,1.163 2.26,1.995 1.39,2.298 0.804,2.298 H 0 Z m -0.946,3.129 h 1.731 c 1.352,0 2.477,-0.472 2.477,-1.976 0,-1.465 -1.144,-1.985 -2.336,-1.985 H 0 v -2.639 h -0.946"
         style="fill:#231f20;fill-opacity:1;fill-rule:nonzero;stroke:none"
         id="path1102" />
    </g>
    <g
       id="g1104"
       transform="translate(284.041,130.12)">
      <path
         d="M 0,0 H 0.946 V -2.762 H 4.104 V 0 H 5.05 V -6.601 H 4.104 v 3.007 H 0.946 V -6.601 H 0"
         style="fill:#231f20;fill-opacity:1;fill-rule:nonzero;stroke:none"
         id="path1106" />
    </g>
    <path
       d="m 290.669,123.519 h 0.94598 v 6.6 H 290.669 Z"
       style="fill:#231f20;fill-opacity:1;fill-rule:nonzero;stroke:none"
       id="path1108" />
    <g
       id="g1110"
       transform="translate(293.152,130.12)">
      <path
         d="m 0,0 h 0.946 v -5.769 h 2.76 V -6.601 H 0"
         style="fill:#231f20;fill-opacity:1;fill-rule:nonzero;stroke:none"
         id="path1112" />
    </g>
    <g
       id="g1114"
       transform="translate(300.356,124.238)">
      <path
         d="M 0,0 C 1.523,0 2.175,1.267 2.175,2.582 2.175,3.924 1.457,5.173 0,5.163 -1.456,5.173 -2.175,3.924 -2.175,2.582 -2.175,1.267 -1.522,0 0,0 m 0,5.995 c 2.004,0 3.178,-1.456 3.178,-3.413 0,-2.005 -1.164,-3.414 -3.178,-3.414 -2.014,0 -3.177,1.409 -3.177,3.414 0,1.957 1.172,3.413 3.177,3.413"
         style="fill:#231f20;fill-opacity:1;fill-rule:nonzero;stroke:none"
         id="path1116" />
    </g>
    <g
       id="g1118"
       transform="translate(307.695,129.127)">
      <path
         d="m 0,0 c -0.481,0.188 -0.746,0.273 -1.238,0.273 -0.53,0 -1.154,-0.189 -1.154,-0.878 0,-1.268 2.837,-0.975 2.837,-3.15 0,-1.408 -1.087,-1.966 -2.412,-1.966 -0.463,0 -0.916,0.132 -1.351,0.274 l 0.094,0.879 c 0.322,-0.132 0.888,-0.321 1.371,-0.321 0.539,0 1.296,0.303 1.296,1.078 0,1.475 -2.837,1.069 -2.837,3.121 0,1.172 0.926,1.796 2.118,1.796 0.435,0 0.955,-0.076 1.408,-0.237"
         style="fill:#231f20;fill-opacity:1;fill-rule:nonzero;stroke:none"
         id="path1120" />
    </g>
    <g
       id="g1122"
       transform="translate(312.099,124.238)">
      <path
         d="M 0,0 C 1.522,0 2.175,1.267 2.175,2.582 2.175,3.924 1.456,5.173 0,5.163 -1.457,5.173 -2.175,3.924 -2.175,2.582 -2.175,1.267 -1.523,0 0,0 m 0,5.995 c 2.005,0 3.177,-1.456 3.177,-3.413 0,-2.005 -1.163,-3.414 -3.177,-3.414 -2.015,0 -3.178,1.409 -3.178,3.414 0,1.957 1.173,3.413 3.178,3.413"
         style="fill:#231f20;fill-opacity:1;fill-rule:nonzero;stroke:none"
         id="path1124" />
    </g>
    <g
       id="g1126"
       transform="translate(317.419,126.99)">
      <path
         d="M 0,0 H 0.937 C 1.522,0 2.26,0.293 2.26,1.163 2.26,1.995 1.39,2.298 0.804,2.298 H 0 Z m -0.946,3.129 h 1.731 c 1.352,0 2.478,-0.472 2.478,-1.976 0,-1.465 -1.145,-1.985 -2.336,-1.985 H 0 v -2.639 h -0.946"
         style="fill:#231f20;fill-opacity:1;fill-rule:nonzero;stroke:none"
         id="path1128" />
    </g>
    <g
       id="g1130"
       transform="translate(321.621,130.12)">
      <path
         d="M 0,0 H 0.946 V -2.762 H 4.104 V 0 H 5.05 V -6.601 H 4.104 v 3.007 H 0.946 V -6.601 H 0"
         style="fill:#231f20;fill-opacity:1;fill-rule:nonzero;stroke:none"
         id="path1132" />
    </g>
    <path
       d="m 328.249,123.519 h 0.94504 v 6.6 H 328.249 Z"
       style="fill:#231f20;fill-opacity:1;fill-rule:nonzero;stroke:none"
       id="path1134" />
    <g
       id="g1136"
       transform="translate(330.759,130.12)">
      <path
         d="M 0,0 H 3.697 V -0.832 H 0.945 v -1.93 H 3.451 V -3.594 H 0.945 V -5.769 H 3.697 V -6.601 H 0"
         style="fill:#231f20;fill-opacity:1;fill-rule:nonzero;stroke:none"
         id="path1138" />
    </g>
    <g
       id="g1140"
       transform="translate(264.493,119.908)">
      <path
         d="M 0,0 H 3.697 V -0.832 H 0.945 v -1.93 H 3.451 V -3.594 H 0.945 V -5.769 H 3.697 V -6.6 H 0"
         style="fill:#231f20;fill-opacity:1;fill-rule:nonzero;stroke:none"
         id="path1142" />
    </g>
    <g
       id="g1144"
       transform="translate(271.006,119.076)">
      <path
         d="m 0,0 h -2.052 v 0.831 h 5.05 V 0 H 0.945 V -5.769 H 0"
         style="fill:#231f20;fill-opacity:1;fill-rule:nonzero;stroke:none"
         id="path1146" />
    </g>
    <g
       id="g1148"
       transform="translate(277.568,119.908)">
      <path
         d="m 0,0 h 0.946 v -5.769 h 2.76 V -6.6 H 0"
         style="fill:#231f20;fill-opacity:1;fill-rule:nonzero;stroke:none"
         id="path1150" />
    </g>
    <g
       id="g1152"
       transform="translate(282.178,119.908)">
      <path
         d="M 0,0 H 3.698 V -0.832 H 0.946 v -1.93 H 3.452 V -3.594 H 0.946 V -5.769 H 3.698 V -6.6 H 0"
         style="fill:#231f20;fill-opacity:1;fill-rule:nonzero;stroke:none"
         id="path1154" />
    </g>
    <g
       id="g1156"
       transform="translate(288.69,119.076)">
      <path
         d="m 0,0 h -2.052 v 0.831 h 5.05 V 0 H 0.946 V -5.769 H 0"
         style="fill:#231f20;fill-opacity:1;fill-rule:nonzero;stroke:none"
         id="path1158" />
    </g>
    <g
       id="g1160"
       transform="translate(294.237,119.076)">
      <path
         d="m 0,0 h -2.052 v 0.831 h 5.05 V 0 H 0.945 V -5.769 H 0"
         style="fill:#231f20;fill-opacity:1;fill-rule:nonzero;stroke:none"
         id="path1162" />
    </g>
    <g
       id="g1164"
       transform="translate(298.996,117.071)">
      <path
         d="m 0,0 h 0.803 c 0.899,0 1.429,0.397 1.429,1.031 0,0.595 -0.454,0.974 -1.325,0.974 H 0 Z m -0.946,2.837 h 1.617 c 1.305,0 2.563,-0.208 2.563,-1.787 0,-0.804 -0.597,-1.372 -1.362,-1.504 V -0.473 C 2.165,-0.587 2.307,-0.729 2.515,-1.135 L 3.763,-3.763 H 2.685 L 1.674,-1.475 C 1.38,-0.832 1.068,-0.832 0.567,-0.832 H 0 v -2.931 h -0.946"
         style="fill:#231f20;fill-opacity:1;fill-rule:nonzero;stroke:none"
         id="path1166" />
    </g>
    <g
       id="g1168"
       transform="translate(303.713,119.908)">
      <path
         d="M 0,0 H 3.697 V -0.832 H 0.946 v -1.93 H 3.452 V -3.594 H 0.946 V -5.769 H 3.697 V -6.6 H 0"
         style="fill:#231f20;fill-opacity:1;fill-rule:nonzero;stroke:none"
         id="path1170" />
    </g>
    <g
       id="g1172"
       transform="translate(311.687,118.915)">
      <path
         d="m 0,0 c -0.483,0.189 -0.747,0.274 -1.239,0.274 -0.529,0 -1.153,-0.189 -1.153,-0.879 0,-1.267 2.837,-0.975 2.837,-3.15 0,-1.408 -1.088,-1.966 -2.412,-1.966 -0.463,0 -0.918,0.132 -1.353,0.274 l 0.095,0.88 c 0.322,-0.133 0.889,-0.322 1.372,-0.322 0.538,0 1.295,0.303 1.295,1.078 0,1.475 -2.837,1.069 -2.837,3.121 0,1.173 0.927,1.796 2.118,1.796 0.435,0 0.955,-0.076 1.409,-0.237"
         style="fill:#231f20;fill-opacity:1;fill-rule:nonzero;stroke:none"
         id="path1174" />
    </g>
  </g>
</svg>
