<?xml version="1.0" encoding="UTF-8" standalone="no"?>
<!-- Created with Inkscape (http://www.inkscape.org/) -->
<!-- Extracted from PDF "Université de Namur - Charte graphique" by Jules Dejaeghere :) -->

<svg
   version="1.1"
   id="svg2"
   width="132.228"
   height="208.96132"
   viewBox="0 0 132.228 208.96131"
   xmlns="http://www.w3.org/2000/svg"
   xmlns:svg="http://www.w3.org/2000/svg">
  <defs
     id="defs6">
    <clipPath
       clipPathUnits="userSpaceOnUse"
       id="clipPath826">
      <path
         d="m 305.532,246.47 h 28.143 v -36.586 h -28.143 z"
         id="path824" />
    </clipPath>
    <clipPath
       clipPathUnits="userSpaceOnUse"
       id="clipPath832">
      <path
         d="m 305.533,244.143 v -14.018 c 0.952,4.364 4.439,7.791 9.219,7.791 5.886,0 9.542,-4.524 9.542,-10.224 v -17.808 h 4.78 c 2.642,0.019 4.601,1.757 4.601,4.838 v 13.465 c 0,10.536 -8.575,18.283 -18.923,18.283 -3.331,0 -6.483,-0.841 -9.219,-2.327"
         id="path830" />
    </clipPath>
    <clipPath
       clipPathUnits="userSpaceOnUse"
       id="clipPath840">
      <path
         d="M 305.53225,246.4692 H 333.675 v -36.5857 h -28.14275 z"
         id="path838" />
    </clipPath>
    <linearGradient
       x1="0"
       y1="0"
       x2="1"
       y2="0"
       gradientUnits="userSpaceOnUse"
       gradientTransform="matrix(28.143,0,0,-28.143,305.532,228.176)"
       spreadMethod="pad"
       id="linearGradient848">
      <stop
         style="stop-opacity:1;stop-color:#898b8e"
         offset="0"
         id="stop842" />
      <stop
         style="stop-opacity:1;stop-color:#ffffff"
         offset="0.225006"
         id="stop844" />
      <stop
         style="stop-opacity:1;stop-color:#ffffff"
         offset="1"
         id="stop846" />
    </linearGradient>
    <clipPath
       clipPathUnits="userSpaceOnUse"
       id="clipPath858">
      <path
         d="m 275.513,246.469 h 28.143 v -36.585 h -28.143 z"
         id="path856" />
    </clipPath>
    <clipPath
       clipPathUnits="userSpaceOnUse"
       id="clipPath864">
      <path
         d="m 280.113,246.47 c -2.64,-0.021 -4.601,-1.759 -4.601,-4.839 v -13.465 c 0,-10.536 8.575,-18.282 18.925,-18.282 3.331,0 6.481,0.84 9.219,2.326 v 14.019 c -0.954,-4.365 -4.44,-7.792 -9.219,-7.792 -5.887,0 -9.543,4.523 -9.543,10.224 v 17.809"
         id="path862" />
    </clipPath>
    <clipPath
       clipPathUnits="userSpaceOnUse"
       id="clipPath872">
      <path
         d="m 275.513,246.46978 h 28.143 V 209.8843 h -28.143 z"
         id="path870" />
    </clipPath>
    <linearGradient
       x1="0"
       y1="0"
       x2="1"
       y2="0"
       gradientUnits="userSpaceOnUse"
       gradientTransform="matrix(28.143,0,0,-28.143,275.513,228.177)"
       spreadMethod="pad"
       id="linearGradient880">
      <stop
         style="stop-opacity:1;stop-color:#ffffff"
         offset="0"
         id="stop874" />
      <stop
         style="stop-opacity:1;stop-color:#ffffff"
         offset="0.774994"
         id="stop876" />
      <stop
         style="stop-opacity:1;stop-color:#898b8e"
         offset="1"
         id="stop878" />
    </linearGradient>
  </defs>
  <g
     id="g10"
     transform="matrix(1.3333333,0,0,-1.3333333,-340.01065,353.64134)">
    <g
       id="g722"
       transform="translate(303.656,244.065)">
      <path
         d="m 0,0 c 0,6.509 -5.277,11.785 -11.785,11.785 h -27.481 v -40.659 c 0,-6.509 5.258,-11.786 11.767,-11.786 h 15.714 c 0,0 9.549,0.499 11.785,-7.592"
         style="fill:#919395;fill-opacity:1;fill-rule:nonzero;stroke:none"
         id="path724" />
    </g>
    <g
       id="g726"
       transform="translate(305.532,244.065)">
      <path
         d="m 0,0 c 0,6.509 5.277,11.785 11.785,11.785 h 27.481 v -40.659 c 0,-6.509 -5.257,-11.786 -11.767,-11.786 H 11.785 c 0,0 -9.549,0.499 -11.785,-7.592"
         style="fill:#231f20;fill-opacity:1;fill-rule:nonzero;stroke:none"
         id="path728" />
    </g>
    <g
       id="g730"
       transform="translate(299.643,188.308)">
      <path
         d="M 0,0 H 6.238 V -1.836 H 2.379 V -4.185 H 6.25 V -6.023 H 2.379 v -2.648 h 3.869 v -1.837 H 0"
         style="fill:#231f20;fill-opacity:1;fill-rule:nonzero;stroke:none"
         id="path732" />
    </g>
    <g
       id="g734"
       transform="translate(264.389,188.308)">
      <path
         d="m 0,0 h 2.469 v -7.091 c 0,-1.054 0.391,-1.7 1.385,-1.7 0.994,0 1.385,0.646 1.385,1.7 V 0 H 7.708 V -6.699 C 7.708,-9.304 6.217,-10.69 3.854,-10.69 1.49,-10.69 0,-9.304 0,-6.699"
         style="fill:#231f20;fill-opacity:1;fill-rule:nonzero;stroke:none"
         id="path736" />
    </g>
    <g
       id="g738"
       transform="translate(274.386,188.308)">
      <path
         d="m 0,0 h 2.89 l 3.056,-7.287 h 0.03 V 0 h 2.169 v -10.508 h -2.92 l -3.027,7.602 h -0.03 v -7.602 H 0"
         style="fill:#231f20;fill-opacity:1;fill-rule:nonzero;stroke:none"
         id="path740" />
    </g>
    <path
       d="m 284.924,177.801 h 2.469 v 10.507 h -2.469 z"
       style="fill:#231f20;fill-opacity:1;fill-rule:nonzero;stroke:none"
       id="path742" />
    <g
       id="g744"
       transform="translate(288.958,188.308)">
      <path
         d="M 0,0 H 2.65 L 4.503,-7.664 H 4.532 L 6.429,0 h 2.53 L 5.781,-10.508 H 3.132"
         style="fill:#231f20;fill-opacity:1;fill-rule:nonzero;stroke:none"
         id="path746" />
    </g>
    <g
       id="g748"
       transform="translate(310.446,183.822)">
      <path
         d="M 0,0 H 0.768 C 1.717,0 2.214,0.632 2.214,1.384 2.214,1.821 2.078,2.71 0.753,2.71 H 0 Z m -2.378,4.486 h 3.854 c 1.732,0 3.207,-0.768 3.207,-2.71 0,-0.437 -0.061,-2.168 -2.093,-2.575 v -0.03 C 3.359,-0.919 3.66,-1.34 4.05,-2.59 L 5.134,-6.022 H 2.545 l -0.813,2.814 c -0.406,1.431 -0.737,1.431 -1.641,1.431 v -4.245 h -2.469"
         style="fill:#231f20;fill-opacity:1;fill-rule:nonzero;stroke:none"
         id="path750" />
    </g>
    <g
       id="g752"
       transform="translate(323.167,186.17)">
      <path
         d="m 0,0 c -0.587,0.302 -1.414,0.542 -2.077,0.542 -0.798,0 -1.4,-0.361 -1.4,-1.143 0,-1.913 4.14,-1.025 4.14,-4.758 0,-1.989 -1.581,-3.192 -3.674,-3.192 -1.279,0 -2.378,0.301 -2.829,0.437 l 0.134,2.047 c 0.738,-0.286 1.386,-0.648 2.304,-0.648 0.783,0 1.536,0.392 1.536,1.251 0,2.032 -4.14,1.038 -4.14,4.787 0,0.316 0.12,2.995 3.643,2.995 0.964,0 1.566,-0.165 2.469,-0.361"
         style="fill:#231f20;fill-opacity:1;fill-rule:nonzero;stroke:none"
         id="path754" />
    </g>
    <path
       d="m 325.822,177.801 h 2.469 v 10.507 h -2.469 z"
       style="fill:#231f20;fill-opacity:1;fill-rule:nonzero;stroke:none"
       id="path756" />
    <g
       id="g758"
       transform="translate(332.265,186.411)">
      <path
         d="M 0,0 H -2.289 V 1.896 H 4.757 V 0 H 2.469 V -8.611 H 0"
         style="fill:#231f20;fill-opacity:1;fill-rule:nonzero;stroke:none"
         id="path760" />
    </g>
    <g
       id="g762"
       transform="translate(338.548,188.308)">
      <path
         d="M 0,0 H 6.239 V -1.836 H 2.378 V -4.185 H 6.25 V -6.023 H 2.378 v -2.648 h 3.87 v -1.837 H 0"
         style="fill:#231f20;fill-opacity:1;fill-rule:nonzero;stroke:none"
         id="path764" />
    </g>
    <g
       id="g766"
       transform="translate(266.858,166.541)">
      <path
         d="m 0,0 h 0.784 c 1.791,0 2.589,1.415 2.589,3.328 0,2.168 -0.829,3.507 -2.74,3.507 H 0 Z m -2.469,8.672 h 3.733 c 2.364,0 4.698,-1.385 4.698,-5.344 0,-3.63 -2.364,-5.165 -5.013,-5.165 h -3.418"
         style="fill:#919395;fill-opacity:1;fill-rule:nonzero;stroke:none"
         id="path768" />
    </g>
    <g
       id="g770"
       transform="translate(274.386,175.213)">
      <path
         d="M 0,0 H 6.068 V -1.837 H 2.379 V -4.185 H 5.887 V -6.022 H 2.379 v -2.65 h 3.87 v -1.836 H 0"
         style="fill:#919395;fill-opacity:1;fill-rule:nonzero;stroke:none"
         id="path772" />
    </g>
    <g
       id="g774"
       transform="translate(292.115,175.213)">
      <path
         d="m 0,0 h 2.891 l 3.055,-7.287 h 0.03 V 0 h 2.168 v -10.508 h -2.92 l -3.026,7.602 h -0.03 v -7.602 H 0"
         style="fill:#231f20;fill-opacity:1;fill-rule:nonzero;stroke:none"
         id="path776" />
    </g>
    <g
       id="g778"
       transform="translate(306.985,173.195)">
      <path
         d="M 0,0 H -0.03 L -1.279,-4.366 H 1.085 Z M 1.566,-6.142 H -1.731 L -2.454,-8.491 H -4.832 L -1.339,2.018 H 1.372 L 4.742,-8.491 H 2.213"
         style="fill:#231f20;fill-opacity:1;fill-rule:nonzero;stroke:none"
         id="path780" />
    </g>
    <g
       id="g782"
       transform="translate(322.248,173.015)">
      <path
         d="M 0,0 H -0.031 L -2.394,-8.311 H -4.02 L -6.293,0 H -6.324 V -8.311 H -8.582 V 2.198 h 3.718 l 1.702,-6.761 h 0.03 l 1.836,6.761 H 2.258 V -8.311 H 0"
         style="fill:#231f20;fill-opacity:1;fill-rule:nonzero;stroke:none"
         id="path784" />
    </g>
    <g
       id="g786"
       transform="translate(327.001,175.213)">
      <path
         d="m 0,0 h 2.468 v -7.091 c 0,-1.055 0.391,-1.701 1.386,-1.701 0.993,0 1.384,0.646 1.384,1.701 V 0 h 2.47 v -6.7 c 0,-2.604 -1.49,-3.989 -3.854,-3.989 C 1.49,-10.689 0,-9.304 0,-6.7"
         style="fill:#231f20;fill-opacity:1;fill-rule:nonzero;stroke:none"
         id="path788" />
    </g>
    <g
       id="g790"
       transform="translate(339.663,170.727)">
      <path
         d="m 0,0 h 0.767 c 0.949,0 1.446,0.632 1.446,1.385 0,0.436 -0.136,1.324 -1.461,1.324 H 0 Z m -2.379,4.486 h 3.855 c 1.731,0 3.207,-0.768 3.207,-2.71 0,-0.437 -0.061,-2.168 -2.094,-2.575 v -0.03 C 3.357,-0.919 3.659,-1.341 4.05,-2.59 L 5.133,-6.023 H 2.545 l -0.814,2.816 c -0.406,1.429 -0.737,1.429 -1.64,1.429 v -4.245 h -2.47"
         style="fill:#231f20;fill-opacity:1;fill-rule:nonzero;stroke:none"
         id="path792" />
    </g>
    <path
       d="m 338.556,190.183 h 6.243 v 1.8769 h -6.243 z"
       style="fill:#919395;fill-opacity:1;fill-rule:nonzero;stroke:none"
       id="path794" />
    <g
       id="g796"
       transform="translate(344.798,216.038)">
      <path
         d="m 0,0 c -3.099,3.783 -4.961,8.62 -4.961,13.891 0,5.272 1.862,10.108 4.961,13.89 v 3.55 C -4.542,26.91 -7.365,20.73 -7.365,13.891 c 0,-6.71 2.717,-12.783 7.11,-17.186 C -0.089,-2.505 0,-1.687 0,-0.847"
         style="fill:#4a4a4c;fill-opacity:1;fill-rule:nonzero;stroke:none"
         id="path798" />
    </g>
    <g
       id="g800"
       transform="translate(326.212,252.02)">
      <path
         d="m 0,0 c 1.62,-1.916 3.942,-1.231 6.63,-2.432 1.92,-0.858 1.913,-2.688 3.122,-4.75 0.632,-1.075 1.443,-1.998 2.326,-2.825 0.272,0.525 0.56,1.039 0.864,1.543 -1.873,2.379 -1.878,5.403 -4.56,7.29 -1.113,0.785 -2.123,0.888 -3.834,1.956 3.059,-0.644 5.516,-0.318 7.854,-2.383 1.244,-1.101 1.755,-2.811 2.628,-3.9 0.411,0.508 0.842,1 1.29,1.476 -1.482,2.434 -2.647,5.304 -5.074,6.468 C 9.104,3.472 5.932,1.882 3.25,2.879 2.77,3.057 2.407,3.398 2.098,3.83 H -1.906 C -1.428,2.502 -0.968,1.146 0,0"
         style="fill:#4a4a4c;fill-opacity:1;fill-rule:nonzero;stroke:none"
         id="path802" />
    </g>
    <g
       id="g804"
       transform="translate(327.49,230.874)">
      <path
         d="M 0,0 3.504,2.016 C 5.149,1.859 6.56,0.787 7.9,0.411 7.934,1.071 7.992,1.725 8.074,2.37 5.453,3.465 2.831,5.092 0.191,4.609 -2.146,4.182 -3.777,1.032 -6.535,0.261 c -1.806,-0.504 -3.635,1.676 -5.905,1.916 -3.165,0.338 -5.001,-1.641 -7.911,-3.122 2.052,0.169 2.948,0.762 4.334,0.788 3.5,0.066 5.32,-3.027 8.545,-3.821 2.438,-0.599 3.914,1.32 6.796,1.93 2.058,0.433 3.127,-1.05 5.316,-2.007 1.139,-0.498 2.331,-0.766 3.528,-0.918 -0.089,0.581 -0.157,1.168 -0.206,1.76 C 5.057,-2.389 3.275,0.05 0,0"
         style="fill:#4a4a4c;fill-opacity:1;fill-rule:nonzero;stroke:none"
         id="path806" />
    </g>
    <g
       id="g808"
       transform="translate(309.752,213.025)">
      <path
         d="m 0,0 27.719,6.519 c -0.616,1.439 -1.107,2.943 -1.46,4.499"
         style="fill:#4a4a4c;fill-opacity:1;fill-rule:nonzero;stroke:none"
         id="path810" />
    </g>
    <g
       id="g812"
       transform="translate(333.481,210.542)">
      <path
         d="m 0,0 c -1.087,-0.816 -1.499,-1.747 -3.042,-3.045 1.557,2.71 2.007,5.147 4.693,6.734 C 3.074,4.526 4.843,4.49 6.147,4.973 5.79,5.522 5.451,6.083 5.134,6.659 2.37,6.007 -0.704,5.779 -2.553,3.841 -4.193,2.122 -3.66,-1.387 -5.437,-3.632 c -1.166,-1.469 -3.927,-0.781 -5.905,-1.922 -0.778,-0.448 -1.363,-0.981 -1.833,-1.583 h 10.316 c 1.532,1.141 1.817,3.196 3.517,5.081 1.409,1.56 3.147,0.987 5.481,1.5 1.216,0.269 2.34,0.753 3.399,1.336 C 9.121,1.199 8.718,1.632 8.33,2.079 5.496,1.038 2.621,1.961 0,0"
         style="fill:#4a4a4c;fill-opacity:1;fill-rule:nonzero;stroke:none"
         id="path814" />
    </g>
    <g
       id="g816"
       transform="translate(324.325,243.406)">
      <path
         d="m 0,0 v -2.688 l 11.693,-4.906 c 0.356,1.556 0.85,3.061 1.468,4.498"
         style="fill:#4a4a4c;fill-opacity:1;fill-rule:nonzero;stroke:none"
         id="path818" />
    </g>
    <g
       id="g820">
      <g
         id="g822"
         clip-path="url(#clipPath826)">
        <g
           id="g828"
           clip-path="url(#clipPath832)">
          <g
             id="g834">
            <g
               id="g836"
               clip-path="url(#clipPath840)">
              <path
                 d="m 305.533,244.143 v -14.018 c 0.952,4.364 4.439,7.791 9.219,7.791 5.886,0 9.542,-4.524 9.542,-10.224 v -17.808 h 4.78 c 2.642,0.019 4.601,1.757 4.601,4.838 v 13.465 c 0,10.536 -8.575,18.283 -18.923,18.283 -3.331,0 -6.483,-0.841 -9.219,-2.327"
                 style="fill:url(#linearGradient848);stroke:none"
                 id="path850" />
            </g>
          </g>
        </g>
      </g>
    </g>
    <g
       id="g852">
      <g
         id="g854"
         clip-path="url(#clipPath858)">
        <g
           id="g860"
           clip-path="url(#clipPath864)">
          <g
             id="g866">
            <g
               id="g868"
               clip-path="url(#clipPath872)">
              <path
                 d="m 280.113,246.47 c -2.64,-0.021 -4.601,-1.759 -4.601,-4.839 v -13.465 c 0,-10.536 8.575,-18.282 18.925,-18.282 3.331,0 6.481,0.84 9.219,2.326 v 14.019 c -0.954,-4.365 -4.44,-7.792 -9.219,-7.792 -5.887,0 -9.543,4.523 -9.543,10.224 v 17.809"
                 style="fill:url(#linearGradient880);stroke:none"
                 id="path882" />
            </g>
          </g>
        </g>
      </g>
    </g>
    <g
       id="g884"
       transform="translate(264.73,140.331)">
      <path
         d="M 0,0 H 3.509 V -0.831 H 0.946 V -2.762 H 3.395 V -3.593 H 0.946 V -6.6 H 0"
         style="fill:#231f20;fill-opacity:1;fill-rule:nonzero;stroke:none"
         id="path886" />
    </g>
    <g
       id="g888"
       transform="translate(271.452,139.442)">
      <path
         d="m 0,0 -1.315,-3.271 h 2.629 z m -0.464,0.889 h 0.993 l 2.789,-6.6 h -1.03 l -0.671,1.664 h -3.235 l -0.671,-1.664 h -0.993"
         style="fill:#231f20;fill-opacity:1;fill-rule:nonzero;stroke:none"
         id="path890" />
    </g>
    <g
       id="g892"
       transform="translate(279.843,139.244)">
      <path
         d="m 0,0 c -0.416,0.246 -0.88,0.369 -1.361,0.369 -1.523,0 -2.534,-1.097 -2.534,-2.582 0,-1.551 1.115,-2.581 2.487,-2.581 0.472,0 1.105,0.123 1.436,0.321 L 0.085,-5.39 c -0.501,-0.208 -1.116,-0.237 -1.503,-0.237 -2.09,0 -3.48,1.344 -3.48,3.443 0,2.033 1.475,3.385 3.49,3.385 0.509,0 1.011,-0.076 1.483,-0.284"
         style="fill:#231f20;fill-opacity:1;fill-rule:nonzero;stroke:none"
         id="path894" />
    </g>
    <g
       id="g896"
       transform="translate(285.989,136.464)">
      <path
         d="m 0,0 c 0,-1.853 -0.936,-2.846 -2.563,-2.846 -1.626,0 -2.562,0.993 -2.562,2.846 v 3.867 h 0.946 V 0.123 c 0,-1.268 0.397,-2.137 1.616,-2.137 1.221,0 1.617,0.869 1.617,2.137 V 3.867 H 0"
         style="fill:#231f20;fill-opacity:1;fill-rule:nonzero;stroke:none"
         id="path898" />
    </g>
    <g
       id="g900"
       transform="translate(287.53,140.331)">
      <path
         d="M 0,0 H 0.945 V -5.768 H 3.706 V -6.6 H 0"
         style="fill:#231f20;fill-opacity:1;fill-rule:nonzero;stroke:none"
         id="path902" />
    </g>
    <g
       id="g904"
       transform="translate(292.729,139.499)">
      <path
         d="m 0,0 h -2.052 v 0.832 h 5.05 V 0 H 0.946 V -5.768 H 0"
         style="fill:#231f20;fill-opacity:1;fill-rule:nonzero;stroke:none"
         id="path906" />
    </g>
    <g
       id="g908"
       transform="translate(298.549,142.175)">
      <path
         d="M 0,0 H 1.031 L -0.208,-1.361 H -0.842 Z M -1.957,-1.844 H 1.74 V -2.676 H -1.011 V -4.605 H 1.494 V -5.436 H -1.011 V -7.612 H 1.74 v -0.832 h -3.697"
         style="fill:#231f20;fill-opacity:1;fill-rule:nonzero;stroke:none"
         id="path910" />
    </g>
    <g
       id="g912"
       transform="translate(265.676,124.351)">
      <path
         d="m 0,0 h 0.993 c 1.626,0 2.525,0.785 2.525,2.487 0,1.542 -1.05,2.449 -2.411,2.449 H 0 Z M -0.946,5.769 H 1.003 C 2.96,5.769 4.52,4.558 4.52,2.525 4.52,0.312 3.178,-0.831 1.003,-0.831 h -1.949"
         style="fill:#231f20;fill-opacity:1;fill-rule:nonzero;stroke:none"
         id="path914" />
    </g>
    <g
       id="g916"
       transform="translate(271.452,130.12)">
      <path
         d="M 0,0 H 3.697 V -0.832 H 0.946 v -1.93 H 3.451 V -3.594 H 0.946 V -5.769 H 3.697 V -6.601 H 0"
         style="fill:#231f20;fill-opacity:1;fill-rule:nonzero;stroke:none"
         id="path918" />
    </g>
    <g
       id="g920"
       transform="translate(279.426,129.127)">
      <path
         d="m 0,0 c -0.482,0.188 -0.747,0.273 -1.239,0.273 -0.529,0 -1.153,-0.189 -1.153,-0.878 0,-1.268 2.837,-0.975 2.837,-3.15 0,-1.408 -1.088,-1.966 -2.412,-1.966 -0.463,0 -0.917,0.132 -1.352,0.274 l 0.094,0.879 c 0.322,-0.132 0.89,-0.321 1.372,-0.321 0.538,0 1.295,0.303 1.295,1.078 0,1.475 -2.837,1.069 -2.837,3.121 0,1.172 0.927,1.796 2.118,1.796 0.435,0 0.956,-0.076 1.41,-0.237"
         style="fill:#231f20;fill-opacity:1;fill-rule:nonzero;stroke:none"
         id="path922" />
    </g>
    <g
       id="g924"
       transform="translate(286.782,129.127)">
      <path
         d="m 0,0 c -0.483,0.188 -0.747,0.273 -1.238,0.273 -0.53,0 -1.154,-0.189 -1.154,-0.878 0,-1.268 2.837,-0.975 2.837,-3.15 0,-1.408 -1.088,-1.966 -2.412,-1.966 -0.463,0 -0.917,0.132 -1.351,0.274 l 0.094,0.879 c 0.321,-0.132 0.888,-0.321 1.371,-0.321 0.539,0 1.295,0.303 1.295,1.078 0,1.475 -2.836,1.069 -2.836,3.121 0,1.172 0.926,1.796 2.118,1.796 0.435,0 0.954,-0.076 1.408,-0.237"
         style="fill:#231f20;fill-opacity:1;fill-rule:nonzero;stroke:none"
         id="path926" />
    </g>
    <g
       id="g928"
       transform="translate(292.897,129.032)">
      <path
         d="m 0,0 c -0.416,0.246 -0.879,0.369 -1.361,0.369 -1.523,0 -2.535,-1.097 -2.535,-2.582 0,-1.55 1.116,-2.581 2.487,-2.581 0.473,0 1.106,0.123 1.437,0.321 L 0.085,-5.39 c -0.501,-0.208 -1.115,-0.237 -1.503,-0.237 -2.09,0 -3.48,1.344 -3.48,3.443 0,2.033 1.475,3.385 3.489,3.385 0.51,0 1.012,-0.075 1.485,-0.283"
         style="fill:#231f20;fill-opacity:1;fill-rule:nonzero;stroke:none"
         id="path930" />
    </g>
    <path
       d="m 293.989,123.519 h 0.94595 v 6.6 H 293.989 Z"
       style="fill:#231f20;fill-opacity:1;fill-rule:nonzero;stroke:none"
       id="path932" />
    <g
       id="g934"
       transform="translate(296.499,130.12)">
      <path
         d="M 0,0 H 3.698 V -0.832 H 0.946 v -1.93 H 3.452 V -3.594 H 0.946 V -5.769 H 3.698 V -6.601 H 0"
         style="fill:#231f20;fill-opacity:1;fill-rule:nonzero;stroke:none"
         id="path936" />
    </g>
    <g
       id="g938"
       transform="translate(301.445,130.12)">
      <path
         d="M 0,0 H 1.287 L 4.199,-5.315 H 4.218 V 0 H 5.163 V -6.601 H 3.953 L 0.965,-1.173 H 0.946 V -6.601 H 0"
         style="fill:#231f20;fill-opacity:1;fill-rule:nonzero;stroke:none"
         id="path940" />
    </g>
    <g
       id="g942"
       transform="translate(312.701,129.032)">
      <path
         d="m 0,0 c -0.416,0.246 -0.88,0.369 -1.361,0.369 -1.523,0 -2.534,-1.097 -2.534,-2.582 0,-1.55 1.115,-2.581 2.487,-2.581 0.473,0 1.105,0.123 1.436,0.321 L 0.085,-5.39 c -0.501,-0.208 -1.115,-0.237 -1.503,-0.237 -2.09,0 -3.48,1.344 -3.48,3.443 0,2.033 1.475,3.385 3.49,3.385 0.509,0 1.011,-0.075 1.483,-0.283"
         style="fill:#231f20;fill-opacity:1;fill-rule:nonzero;stroke:none"
         id="path944" />
    </g>
    <g
       id="g946"
       transform="translate(313.797,130.12)">
      <path
         d="M 0,0 H 3.697 V -0.832 H 0.945 v -1.93 H 3.451 V -3.594 H 0.945 V -5.769 H 3.697 V -6.601 H 0"
         style="fill:#231f20;fill-opacity:1;fill-rule:nonzero;stroke:none"
         id="path948" />
    </g>
    <g
       id="g950"
       transform="translate(321.771,129.127)">
      <path
         d="m 0,0 c -0.482,0.188 -0.747,0.273 -1.239,0.273 -0.53,0 -1.153,-0.189 -1.153,-0.878 0,-1.268 2.836,-0.975 2.836,-3.15 0,-1.408 -1.087,-1.966 -2.412,-1.966 -0.462,0 -0.916,0.132 -1.352,0.274 l 0.095,0.879 c 0.322,-0.132 0.889,-0.321 1.371,-0.321 0.539,0 1.296,0.303 1.296,1.078 0,1.475 -2.837,1.069 -2.837,3.121 0,1.172 0.927,1.796 2.118,1.796 0.435,0 0.955,-0.076 1.408,-0.237"
         style="fill:#231f20;fill-opacity:1;fill-rule:nonzero;stroke:none"
         id="path952" />
    </g>
    <path
       d="m 264.389,145.958 h 80.409 v 0.93903 h -80.409 z"
       style="fill:#919395;fill-opacity:1;fill-rule:nonzero;stroke:none"
       id="path954" />
    <path
       d="m 264.389,145.959 h 80.409 v 1.8769 h -80.409 z"
       style="fill:#919395;fill-opacity:1;fill-rule:nonzero;stroke:none"
       id="path956" />
  </g>
</svg>
