<?xml version="1.0" encoding="UTF-8" standalone="no"?>
<!-- Created with Inkscape (http://www.inkscape.org/) -->
<!-- Extracted from PDF "Université de Namur - Charte graphique" by Jules Dejaeghere :) -->

<svg
   version="1.1"
   id="svg2"
   width="132.22798"
   height="208.96132"
   viewBox="0 0 132.22798 208.96131"
   xmlns="http://www.w3.org/2000/svg"
   xmlns:svg="http://www.w3.org/2000/svg">
  <defs
     id="defs6">
    <clipPath
       clipPathUnits="userSpaceOnUse"
       id="clipPath118">
      <path
         d="m 107.192,246.47 h 28.142 v -36.586 h -28.142 z"
         id="path116" />
    </clipPath>
    <clipPath
       clipPathUnits="userSpaceOnUse"
       id="clipPath124">
      <path
         d="m 107.192,244.143 v -14.018 c 0.953,4.364 4.439,7.791 9.219,7.791 5.886,0 9.542,-4.524 9.542,-10.224 v -17.808 h 4.781 c 2.641,0.019 4.6,1.757 4.6,4.838 v 13.465 c 0,10.536 -8.575,18.283 -18.923,18.283 -3.332,0 -6.482,-0.841 -9.219,-2.327"
         id="path122" />
    </clipPath>
    <clipPath
       clipPathUnits="userSpaceOnUse"
       id="clipPath132">
      <path
         d="m 107.19148,246.4692 h 28.1419 v -36.5857 h -28.1419 z"
         id="path130" />
    </clipPath>
    <linearGradient
       x1="0"
       y1="0"
       x2="1"
       y2="0"
       gradientUnits="userSpaceOnUse"
       gradientTransform="matrix(28.143,0,0,-28.143,107.191,228.176)"
       spreadMethod="pad"
       id="linearGradient140">
      <stop
         style="stop-opacity:1;stop-color:#898b8e"
         offset="0"
         id="stop134" />
      <stop
         style="stop-opacity:1;stop-color:#ffffff"
         offset="0.225006"
         id="stop136" />
      <stop
         style="stop-opacity:1;stop-color:#ffffff"
         offset="1"
         id="stop138" />
    </linearGradient>
    <clipPath
       clipPathUnits="userSpaceOnUse"
       id="clipPath150">
      <path
         d="m 77.173,246.469 h 28.142 V 209.884 H 77.173 Z"
         id="path148" />
    </clipPath>
    <clipPath
       clipPathUnits="userSpaceOnUse"
       id="clipPath156">
      <path
         d="m 81.773,246.47 c -2.641,-0.021 -4.6,-1.759 -4.6,-4.839 v -13.465 c 0,-10.536 8.574,-18.282 18.923,-18.282 3.33,0 6.482,0.84 9.219,2.326 v 14.019 c -0.954,-4.365 -4.439,-7.792 -9.219,-7.792 -5.888,0 -9.542,4.523 -9.542,10.224 v 17.809"
         id="path154" />
    </clipPath>
    <clipPath
       clipPathUnits="userSpaceOnUse"
       id="clipPath164">
      <path
         d="M 77.172704,246.46978 H 105.31458 V 209.8843 H 77.172704 Z"
         id="path162" />
    </clipPath>
    <linearGradient
       x1="0"
       y1="0"
       x2="1"
       y2="0"
       gradientUnits="userSpaceOnUse"
       gradientTransform="matrix(28.143,0,0,-28.143,77.172,228.177)"
       spreadMethod="pad"
       id="linearGradient172">
      <stop
         style="stop-opacity:1;stop-color:#ffffff"
         offset="0"
         id="stop166" />
      <stop
         style="stop-opacity:1;stop-color:#ffffff"
         offset="0.774994"
         id="stop168" />
      <stop
         style="stop-opacity:1;stop-color:#898b8e"
         offset="1"
         id="stop170" />
    </linearGradient>
  </defs>
  <g
     id="g10"
     transform="matrix(1.3333333,0,0,-1.3333333,-75.558662,353.64134)">
    <g
       id="g14"
       transform="translate(105.315,244.065)">
      <path
         d="m 0,0 c 0,6.509 -5.277,11.785 -11.785,11.785 h -27.481 v -40.659 c 0,-6.509 5.258,-11.786 11.767,-11.786 h 15.714 c 0,0 9.549,0.499 11.785,-7.592"
         style="fill:#58ab46;fill-opacity:1;fill-rule:nonzero;stroke:none"
         id="path16" />
    </g>
    <g
       id="g18"
       transform="translate(107.191,244.065)">
      <path
         d="m 0,0 c 0,6.509 5.277,11.785 11.785,11.785 h 27.481 v -40.659 c 0,-6.509 -5.257,-11.786 -11.766,-11.786 H 11.785 c 0,0 -9.549,0.499 -11.785,-7.592"
         style="fill:#4a4a52;fill-opacity:1;fill-rule:nonzero;stroke:none"
         id="path20" />
    </g>
    <g
       id="g22"
       transform="translate(101.302,188.308)">
      <path
         d="M 0,0 H 6.238 V -1.836 H 2.379 V -4.185 H 6.25 V -6.023 H 2.379 v -2.648 h 3.869 v -1.837 H 0"
         style="fill:#4a4a52;fill-opacity:1;fill-rule:nonzero;stroke:none"
         id="path24" />
    </g>
    <g
       id="g26"
       transform="translate(66.049,188.308)">
      <path
         d="m 0,0 h 2.469 v -7.091 c 0,-1.054 0.391,-1.7 1.385,-1.7 0.994,0 1.385,0.646 1.385,1.7 V 0 H 7.708 V -6.699 C 7.708,-9.304 6.217,-10.69 3.854,-10.69 1.49,-10.69 0,-9.304 0,-6.699"
         style="fill:#4a4a52;fill-opacity:1;fill-rule:nonzero;stroke:none"
         id="path28" />
    </g>
    <g
       id="g30"
       transform="translate(76.045,188.308)">
      <path
         d="m 0,0 h 2.89 l 3.056,-7.287 h 0.03 V 0 h 2.169 v -10.508 h -2.92 l -3.027,7.602 h -0.03 v -7.602 H 0"
         style="fill:#4a4a52;fill-opacity:1;fill-rule:nonzero;stroke:none"
         id="path32" />
    </g>
    <path
       d="m 86.583,177.801 h 2.469 v 10.507 h -2.469 z"
       style="fill:#4a4a52;fill-opacity:1;fill-rule:nonzero;stroke:none"
       id="path34" />
    <g
       id="g36"
       transform="translate(90.618,188.308)">
      <path
         d="m 0,0 h 2.65 l 1.852,-7.664 h 0.03 L 6.428,0 h 2.53 L 5.781,-10.508 H 3.132"
         style="fill:#4a4a52;fill-opacity:1;fill-rule:nonzero;stroke:none"
         id="path38" />
    </g>
    <g
       id="g40"
       transform="translate(112.105,183.822)">
      <path
         d="m 0,0 h 0.768 c 0.95,0 1.446,0.632 1.446,1.384 0,0.437 -0.136,1.326 -1.461,1.326 H 0 Z m -2.378,4.486 h 3.855 c 1.731,0 3.206,-0.768 3.206,-2.71 0,-0.437 -0.061,-2.168 -2.093,-2.575 v -0.03 C 3.359,-0.919 3.66,-1.34 4.051,-2.59 L 5.134,-6.022 H 2.545 l -0.812,2.814 c -0.407,1.431 -0.738,1.431 -1.642,1.431 v -4.245 h -2.469"
         style="fill:#4a4a52;fill-opacity:1;fill-rule:nonzero;stroke:none"
         id="path42" />
    </g>
    <g
       id="g44"
       transform="translate(124.826,186.17)">
      <path
         d="m 0,0 c -0.587,0.302 -1.414,0.542 -2.077,0.542 -0.798,0 -1.4,-0.361 -1.4,-1.143 0,-1.913 4.14,-1.025 4.14,-4.758 0,-1.989 -1.58,-3.192 -3.674,-3.192 -1.279,0 -2.378,0.301 -2.829,0.437 l 0.135,2.047 c 0.737,-0.286 1.385,-0.648 2.304,-0.648 0.782,0 1.535,0.392 1.535,1.251 0,2.032 -4.14,1.038 -4.14,4.787 0,0.316 0.12,2.995 3.643,2.995 0.964,0 1.567,-0.165 2.469,-0.361"
         style="fill:#4a4a52;fill-opacity:1;fill-rule:nonzero;stroke:none"
         id="path46" />
    </g>
    <path
       d="m 127.481,177.801 h 2.469 v 10.507 h -2.469 z"
       style="fill:#4a4a52;fill-opacity:1;fill-rule:nonzero;stroke:none"
       id="path48" />
    <g
       id="g50"
       transform="translate(133.924,186.411)">
      <path
         d="M 0,0 H -2.289 V 1.896 H 4.757 V 0 H 2.469 V -8.611 H 0"
         style="fill:#4a4a52;fill-opacity:1;fill-rule:nonzero;stroke:none"
         id="path52" />
    </g>
    <g
       id="g54"
       transform="translate(140.207,188.308)">
      <path
         d="M 0,0 H 6.239 V -1.836 H 2.379 V -4.185 H 6.25 V -6.023 H 2.379 v -2.648 h 3.869 v -1.837 H 0"
         style="fill:#4a4a52;fill-opacity:1;fill-rule:nonzero;stroke:none"
         id="path56" />
    </g>
    <g
       id="g58"
       transform="translate(68.518,166.541)">
      <path
         d="m 0,0 h 0.784 c 1.791,0 2.589,1.415 2.589,3.328 0,2.168 -0.829,3.507 -2.74,3.507 H 0 Z m -2.469,8.672 h 3.734 c 2.363,0 4.697,-1.385 4.697,-5.344 0,-3.63 -2.363,-5.165 -5.013,-5.165 h -3.418"
         style="fill:#58ab46;fill-opacity:1;fill-rule:nonzero;stroke:none"
         id="path60" />
    </g>
    <g
       id="g62"
       transform="translate(76.046,175.213)">
      <path
         d="M 0,0 H 6.067 V -1.837 H 2.379 V -4.185 H 5.886 V -6.022 H 2.379 v -2.65 h 3.869 v -1.836 H 0"
         style="fill:#58ab46;fill-opacity:1;fill-rule:nonzero;stroke:none"
         id="path64" />
    </g>
    <g
       id="g66"
       transform="translate(93.774,175.213)">
      <path
         d="m 0,0 h 2.891 l 3.056,-7.287 h 0.03 V 0 H 8.145 V -10.508 H 5.224 l -3.026,7.602 h -0.03 v -7.602 H 0"
         style="fill:#4a4a52;fill-opacity:1;fill-rule:nonzero;stroke:none"
         id="path68" />
    </g>
    <g
       id="g70"
       transform="translate(108.644,173.195)">
      <path
         d="M 0,0 H -0.03 L -1.279,-4.366 H 1.085 Z M 1.566,-6.142 H -1.731 L -2.454,-8.491 H -4.831 L -1.339,2.018 H 1.372 L 4.742,-8.491 H 2.213"
         style="fill:#4a4a52;fill-opacity:1;fill-rule:nonzero;stroke:none"
         id="path72" />
    </g>
    <g
       id="g74"
       transform="translate(123.907,173.015)">
      <path
         d="M 0,0 H -0.031 L -2.394,-8.311 H -4.02 L -6.293,0 H -6.324 V -8.311 H -8.582 V 2.198 h 3.718 l 1.702,-6.761 h 0.03 l 1.837,6.761 H 2.258 V -8.311 H 0"
         style="fill:#4a4a52;fill-opacity:1;fill-rule:nonzero;stroke:none"
         id="path76" />
    </g>
    <g
       id="g78"
       transform="translate(128.66,175.213)">
      <path
         d="m 0,0 h 2.469 v -7.091 c 0,-1.055 0.391,-1.701 1.385,-1.701 0.994,0 1.384,0.646 1.384,1.701 V 0 h 2.47 v -6.7 c 0,-2.604 -1.49,-3.989 -3.854,-3.989 C 1.49,-10.689 0,-9.304 0,-6.7"
         style="fill:#4a4a52;fill-opacity:1;fill-rule:nonzero;stroke:none"
         id="path80" />
    </g>
    <g
       id="g82"
       transform="translate(141.322,170.727)">
      <path
         d="m 0,0 h 0.767 c 0.949,0 1.446,0.632 1.446,1.385 0,0.436 -0.136,1.324 -1.461,1.324 H 0 Z m -2.379,4.486 h 3.855 c 1.731,0 3.206,-0.768 3.206,-2.71 0,-0.437 -0.06,-2.168 -2.092,-2.575 v -0.03 C 3.357,-0.919 3.659,-1.341 4.05,-2.59 L 5.134,-6.023 H 2.545 l -0.814,2.816 c -0.406,1.429 -0.737,1.429 -1.64,1.429 v -4.245 h -2.47"
         style="fill:#4a4a52;fill-opacity:1;fill-rule:nonzero;stroke:none"
         id="path84" />
    </g>
    <path
       d="m 140.215,190.183 h 6.242 v 1.8769 h -6.242 z"
       style="fill:#58ab46;fill-opacity:1;fill-rule:nonzero;stroke:none"
       id="path86" />
    <g
       id="g88"
       transform="translate(146.457,216.038)">
      <path
         d="m 0,0 c -3.099,3.783 -4.961,8.62 -4.961,13.891 0,5.272 1.862,10.108 4.961,13.89 v 3.55 C -4.542,26.91 -7.364,20.73 -7.364,13.891 -7.364,7.181 -4.648,1.108 -0.255,-3.295 -0.089,-2.505 0,-1.687 0,-0.847"
         style="fill:#67696c;fill-opacity:1;fill-rule:nonzero;stroke:none"
         id="path90" />
    </g>
    <g
       id="g92"
       transform="translate(127.871,252.02)">
      <path
         d="m 0,0 c 1.62,-1.916 3.942,-1.231 6.63,-2.432 1.92,-0.858 1.913,-2.688 3.122,-4.75 0.632,-1.075 1.443,-1.998 2.326,-2.825 0.272,0.525 0.56,1.039 0.865,1.543 -1.874,2.379 -1.879,5.403 -4.56,7.29 -1.114,0.785 -2.124,0.888 -3.835,1.956 3.059,-0.644 5.516,-0.318 7.854,-2.383 1.244,-1.101 1.755,-2.811 2.628,-3.9 0.412,0.508 0.842,1 1.29,1.476 -1.482,2.434 -2.647,5.304 -5.074,6.468 C 9.104,3.472 5.933,1.882 3.25,2.879 2.77,3.057 2.407,3.398 2.098,3.83 H -1.906 C -1.428,2.502 -0.967,1.146 0,0"
         style="fill:#67696c;fill-opacity:1;fill-rule:nonzero;stroke:none"
         id="path94" />
    </g>
    <g
       id="g96"
       transform="translate(129.149,230.874)">
      <path
         d="M 0,0 3.504,2.016 C 5.149,1.859 6.561,0.787 7.9,0.411 7.934,1.071 7.992,1.725 8.074,2.37 5.453,3.465 2.831,5.092 0.191,4.609 -2.146,4.182 -3.777,1.032 -6.535,0.261 c -1.806,-0.504 -3.635,1.676 -5.905,1.916 -3.165,0.338 -5.001,-1.641 -7.911,-3.122 2.052,0.169 2.948,0.762 4.334,0.788 3.5,0.066 5.32,-3.027 8.546,-3.821 2.438,-0.599 3.913,1.32 6.795,1.93 2.058,0.433 3.127,-1.05 5.316,-2.007 1.139,-0.498 2.331,-0.766 3.528,-0.918 -0.089,0.581 -0.157,1.168 -0.206,1.76 C 5.057,-2.389 3.275,0.05 0,0"
         style="fill:#67696c;fill-opacity:1;fill-rule:nonzero;stroke:none"
         id="path98" />
    </g>
    <g
       id="g100"
       transform="translate(111.411,213.025)">
      <path
         d="m 0,0 27.719,6.519 c -0.616,1.439 -1.106,2.943 -1.46,4.499"
         style="fill:#67696c;fill-opacity:1;fill-rule:nonzero;stroke:none"
         id="path102" />
    </g>
    <g
       id="g104"
       transform="translate(135.14,210.542)">
      <path
         d="m 0,0 c -1.086,-0.816 -1.499,-1.747 -3.042,-3.045 1.557,2.71 2.008,5.147 4.693,6.734 C 3.074,4.526 4.843,4.49 6.147,4.973 5.79,5.522 5.451,6.083 5.134,6.659 2.37,6.007 -0.704,5.779 -2.553,3.841 -4.193,2.122 -3.66,-1.387 -5.437,-3.632 c -1.166,-1.469 -3.927,-0.781 -5.905,-1.922 -0.778,-0.448 -1.362,-0.981 -1.833,-1.583 h 10.316 c 1.532,1.141 1.818,3.196 3.517,5.081 1.409,1.56 3.147,0.987 5.481,1.5 1.216,0.269 2.34,0.753 3.399,1.336 C 9.121,1.199 8.718,1.632 8.331,2.079 5.496,1.038 2.621,1.961 0,0"
         style="fill:#67696c;fill-opacity:1;fill-rule:nonzero;stroke:none"
         id="path106" />
    </g>
    <g
       id="g108"
       transform="translate(125.984,243.406)">
      <path
         d="m 0,0 v -2.688 l 11.693,-4.906 c 0.356,1.556 0.85,3.061 1.468,4.498"
         style="fill:#67696c;fill-opacity:1;fill-rule:nonzero;stroke:none"
         id="path110" />
    </g>
    <g
       id="g112">
      <g
         id="g114"
         clip-path="url(#clipPath118)">
        <g
           id="g120"
           clip-path="url(#clipPath124)">
          <g
             id="g126">
            <g
               id="g128"
               clip-path="url(#clipPath132)">
              <path
                 d="m 107.192,244.143 v -14.018 c 0.953,4.364 4.439,7.791 9.219,7.791 5.886,0 9.542,-4.524 9.542,-10.224 v -17.808 h 4.781 c 2.641,0.019 4.6,1.757 4.6,4.838 v 13.465 c 0,10.536 -8.575,18.283 -18.923,18.283 -3.332,0 -6.482,-0.841 -9.219,-2.327"
                 style="fill:url(#linearGradient140);stroke:none"
                 id="path142" />
            </g>
          </g>
        </g>
      </g>
    </g>
    <g
       id="g144">
      <g
         id="g146"
         clip-path="url(#clipPath150)">
        <g
           id="g152"
           clip-path="url(#clipPath156)">
          <g
             id="g158">
            <g
               id="g160"
               clip-path="url(#clipPath164)">
              <path
                 d="m 81.773,246.47 c -2.641,-0.021 -4.6,-1.759 -4.6,-4.839 v -13.465 c 0,-10.536 8.574,-18.282 18.923,-18.282 3.33,0 6.482,0.84 9.219,2.326 v 14.019 c -0.954,-4.365 -4.439,-7.792 -9.219,-7.792 -5.888,0 -9.542,4.523 -9.542,10.224 v 17.809"
                 style="fill:url(#linearGradient172);stroke:none"
                 id="path174" />
            </g>
          </g>
        </g>
      </g>
    </g>
    <g
       id="g176"
       transform="translate(66.39,140.331)">
      <path
         d="M 0,0 H 3.508 V -0.831 H 0.946 V -2.762 H 3.395 V -3.593 H 0.946 V -6.6 H 0"
         style="fill:#4a4a52;fill-opacity:1;fill-rule:nonzero;stroke:none"
         id="path178" />
    </g>
    <g
       id="g180"
       transform="translate(73.111,139.442)">
      <path
         d="M 0,0 -1.314,-3.271 H 1.314 Z M -0.464,0.889 H 0.53 l 2.789,-6.6 H 2.288 l -0.671,1.664 h -3.234 l -0.672,-1.664 h -0.993"
         style="fill:#4a4a52;fill-opacity:1;fill-rule:nonzero;stroke:none"
         id="path182" />
    </g>
    <g
       id="g184"
       transform="translate(81.502,139.244)">
      <path
         d="m 0,0 c -0.416,0.246 -0.88,0.369 -1.361,0.369 -1.523,0 -2.534,-1.097 -2.534,-2.582 0,-1.551 1.115,-2.581 2.487,-2.581 0.472,0 1.105,0.123 1.436,0.321 L 0.085,-5.39 c -0.501,-0.208 -1.116,-0.237 -1.503,-0.237 -2.09,0 -3.48,1.344 -3.48,3.443 0,2.033 1.475,3.385 3.49,3.385 0.509,0 1.011,-0.076 1.483,-0.284"
         style="fill:#4a4a52;fill-opacity:1;fill-rule:nonzero;stroke:none"
         id="path186" />
    </g>
    <g
       id="g188"
       transform="translate(87.648,136.464)">
      <path
         d="m 0,0 c 0,-1.853 -0.936,-2.846 -2.563,-2.846 -1.626,0 -2.562,0.993 -2.562,2.846 v 3.867 h 0.946 V 0.123 c 0,-1.268 0.397,-2.137 1.616,-2.137 1.221,0 1.617,0.869 1.617,2.137 V 3.867 H 0"
         style="fill:#4a4a52;fill-opacity:1;fill-rule:nonzero;stroke:none"
         id="path190" />
    </g>
    <g
       id="g192"
       transform="translate(89.189,140.331)">
      <path
         d="m 0,0 h 0.946 v -5.768 h 2.76 V -6.6 H 0"
         style="fill:#4a4a52;fill-opacity:1;fill-rule:nonzero;stroke:none"
         id="path194" />
    </g>
    <g
       id="g196"
       transform="translate(94.389,139.499)">
      <path
         d="m 0,0 h -2.052 v 0.832 h 5.05 V 0 H 0.946 V -5.768 H 0"
         style="fill:#4a4a52;fill-opacity:1;fill-rule:nonzero;stroke:none"
         id="path198" />
    </g>
    <g
       id="g200"
       transform="translate(100.208,142.175)">
      <path
         d="M 0,0 H 1.031 L -0.208,-1.361 H -0.841 Z M -1.957,-1.844 H 1.741 V -2.676 H -1.011 V -4.605 H 1.495 V -5.436 H -1.011 V -7.612 H 1.741 V -8.444 H -1.957"
         style="fill:#4a4a52;fill-opacity:1;fill-rule:nonzero;stroke:none"
         id="path202" />
    </g>
    <g
       id="g204"
       transform="translate(67.335,124.351)">
      <path
         d="m 0,0 h 0.993 c 1.626,0 2.525,0.785 2.525,2.487 0,1.542 -1.05,2.449 -2.411,2.449 H 0 Z M -0.946,5.769 H 1.003 C 2.96,5.769 4.52,4.558 4.52,2.525 4.52,0.312 3.178,-0.831 1.003,-0.831 h -1.949"
         style="fill:#4a4a52;fill-opacity:1;fill-rule:nonzero;stroke:none"
         id="path206" />
    </g>
    <g
       id="g208"
       transform="translate(73.111,130.12)">
      <path
         d="M 0,0 H 3.697 V -0.832 H 0.946 v -1.93 H 3.452 V -3.594 H 0.946 V -5.769 H 3.697 V -6.601 H 0"
         style="fill:#4a4a52;fill-opacity:1;fill-rule:nonzero;stroke:none"
         id="path210" />
    </g>
    <g
       id="g212"
       transform="translate(81.085,129.127)">
      <path
         d="m 0,0 c -0.482,0.188 -0.747,0.273 -1.239,0.273 -0.529,0 -1.153,-0.189 -1.153,-0.878 0,-1.268 2.837,-0.975 2.837,-3.15 0,-1.408 -1.088,-1.966 -2.412,-1.966 -0.463,0 -0.917,0.132 -1.352,0.274 l 0.094,0.879 c 0.322,-0.132 0.89,-0.321 1.372,-0.321 0.539,0 1.295,0.303 1.295,1.078 0,1.475 -2.836,1.069 -2.836,3.121 0,1.172 0.926,1.796 2.118,1.796 0.434,0 0.955,-0.076 1.409,-0.237"
         style="fill:#4a4a52;fill-opacity:1;fill-rule:nonzero;stroke:none"
         id="path214" />
    </g>
    <g
       id="g216"
       transform="translate(88.441,129.127)">
      <path
         d="m 0,0 c -0.483,0.188 -0.747,0.273 -1.238,0.273 -0.53,0 -1.154,-0.189 -1.154,-0.878 0,-1.268 2.837,-0.975 2.837,-3.15 0,-1.408 -1.088,-1.966 -2.412,-1.966 -0.463,0 -0.917,0.132 -1.352,0.274 l 0.094,0.879 c 0.322,-0.132 0.889,-0.321 1.372,-0.321 0.539,0 1.295,0.303 1.295,1.078 0,1.475 -2.837,1.069 -2.837,3.121 0,1.172 0.927,1.796 2.119,1.796 0.434,0 0.954,-0.076 1.408,-0.237"
         style="fill:#4a4a52;fill-opacity:1;fill-rule:nonzero;stroke:none"
         id="path218" />
    </g>
    <g
       id="g220"
       transform="translate(94.556,129.032)">
      <path
         d="m 0,0 c -0.416,0.246 -0.88,0.369 -1.361,0.369 -1.523,0 -2.535,-1.097 -2.535,-2.582 0,-1.55 1.116,-2.581 2.487,-2.581 0.473,0 1.106,0.123 1.437,0.321 L 0.085,-5.39 c -0.501,-0.208 -1.116,-0.237 -1.503,-0.237 -2.091,0 -3.48,1.344 -3.48,3.443 0,2.033 1.474,3.385 3.489,3.385 0.51,0 1.012,-0.075 1.485,-0.283"
         style="fill:#4a4a52;fill-opacity:1;fill-rule:nonzero;stroke:none"
         id="path222" />
    </g>
    <path
       d="m 95.649,123.519 h 0.94559 v 6.6 H 95.649 Z"
       style="fill:#4a4a52;fill-opacity:1;fill-rule:nonzero;stroke:none"
       id="path224" />
    <g
       id="g226"
       transform="translate(98.159,130.12)">
      <path
         d="M 0,0 H 3.698 V -0.832 H 0.946 v -1.93 H 3.452 V -3.594 H 0.946 V -5.769 H 3.698 V -6.601 H 0"
         style="fill:#4a4a52;fill-opacity:1;fill-rule:nonzero;stroke:none"
         id="path228" />
    </g>
    <g
       id="g230"
       transform="translate(103.105,130.12)">
      <path
         d="M 0,0 H 1.286 L 4.198,-5.315 H 4.217 V 0 H 5.162 V -6.601 H 3.952 L 0.964,-1.173 H 0.945 V -6.601 H 0"
         style="fill:#4a4a52;fill-opacity:1;fill-rule:nonzero;stroke:none"
         id="path232" />
    </g>
    <g
       id="g234"
       transform="translate(114.36,129.032)">
      <path
         d="m 0,0 c -0.416,0.246 -0.879,0.369 -1.361,0.369 -1.522,0 -2.534,-1.097 -2.534,-2.582 0,-1.55 1.115,-2.581 2.487,-2.581 0.473,0 1.105,0.123 1.436,0.321 L 0.085,-5.39 c -0.501,-0.208 -1.115,-0.237 -1.503,-0.237 -2.09,0 -3.48,1.344 -3.48,3.443 0,2.033 1.475,3.385 3.49,3.385 0.51,0 1.011,-0.075 1.483,-0.283"
         style="fill:#4a4a52;fill-opacity:1;fill-rule:nonzero;stroke:none"
         id="path236" />
    </g>
    <g
       id="g238"
       transform="translate(115.456,130.12)">
      <path
         d="M 0,0 H 3.697 V -0.832 H 0.945 v -1.93 H 3.451 V -3.594 H 0.945 V -5.769 H 3.697 V -6.601 H 0"
         style="fill:#4a4a52;fill-opacity:1;fill-rule:nonzero;stroke:none"
         id="path240" />
    </g>
    <g
       id="g242"
       transform="translate(123.43,129.127)">
      <path
         d="m 0,0 c -0.482,0.188 -0.747,0.273 -1.239,0.273 -0.53,0 -1.153,-0.189 -1.153,-0.878 0,-1.268 2.836,-0.975 2.836,-3.15 0,-1.408 -1.087,-1.966 -2.411,-1.966 -0.463,0 -0.917,0.132 -1.353,0.274 l 0.095,0.879 c 0.322,-0.132 0.889,-0.321 1.371,-0.321 0.539,0 1.296,0.303 1.296,1.078 0,1.475 -2.837,1.069 -2.837,3.121 0,1.172 0.927,1.796 2.118,1.796 0.435,0 0.955,-0.076 1.409,-0.237"
         style="fill:#4a4a52;fill-opacity:1;fill-rule:nonzero;stroke:none"
         id="path244" />
    </g>
    <path
       d="m 66.05,145.958 h 80.409 v 0.93903 H 66.05 Z"
       style="fill:#58ab46;fill-opacity:1;fill-rule:nonzero;stroke:none"
       id="path246" />
    <path
       d="m 66.05,145.959 h 80.409 v 1.8769 H 66.05 Z"
       style="fill:#58ab46;fill-opacity:1;fill-rule:nonzero;stroke:none"
       id="path248" />
  </g>
</svg>
