<?xml version="1.0" encoding="UTF-8" standalone="no"?>
<!-- Created with Inkscape (http://www.inkscape.org/) -->
<!-- Extracted from PDF "Université de Namur - Charte graphique" by Jules Dejaeghere :) -->

<svg
   version="1.1"
   id="svg14501"
   width="139.78265"
   height="154.89465"
   viewBox="0 0 139.78265 154.89465"
   xmlns="http://www.w3.org/2000/svg"
   xmlns:svg="http://www.w3.org/2000/svg">
  <defs
     id="defs14505" />
  <g
     id="g14509"
     transform="matrix(1.3333333,0,0,-1.3333333,-103.89333,604.87194)">
    <path
       d="M 77.92,337.483 H 182.757 V 453.654 H 77.92 Z"
       style="fill:#ffffff;fill-opacity:1;fill-rule:nonzero;stroke:none"
       id="path15535" />
    <g
       id="g15537"
       transform="translate(143.788,443.737)">
      <path
         d="m 0,0 c -6.852,0 -12.411,-5.532 -12.457,-12.374 2.894,1.57 6.225,2.458 9.745,2.458 10.94,0 20.004,-8.19 20.004,-19.328 v -14.235 c 0,-3.256 -2.071,-5.093 -4.862,-5.114 H 7.376 v 18.826 c 0,6.026 -3.866,10.809 -10.088,10.809 -5.053,0 -8.738,-3.623 -9.747,-8.237 V -63.468 C -10.095,-54.914 0,-55.442 0,-55.442 h 16.612 c 6.881,0 12.439,5.579 12.439,12.46 V 0"
         style="fill:#231f20;fill-opacity:1;fill-rule:nonzero;stroke:none"
         id="path15539" />
    </g>
    <g
       id="g15541"
       transform="translate(125.103,372.334)">
      <path
         d="M 0,0 H 6.596 V -1.941 H 2.515 V -4.424 H 6.609 V -6.366 H 2.515 v -2.801 h 4.091 v -1.941 H 0"
         style="fill:#231f20;fill-opacity:1;fill-rule:nonzero;stroke:none"
         id="path15543" />
    </g>
    <g
       id="g15545"
       transform="translate(87.836,372.334)">
      <path
         d="m 0,0 h 2.61 v -7.496 c 0,-1.114 0.414,-1.798 1.464,-1.798 1.051,0 1.465,0.684 1.465,1.798 V 0 h 2.61 V -7.082 C 8.149,-9.836 6.573,-11.3 4.074,-11.3 1.575,-11.3 0,-9.836 0,-7.082"
         style="fill:#231f20;fill-opacity:1;fill-rule:nonzero;stroke:none"
         id="path15547" />
    </g>
    <g
       id="g15549"
       transform="translate(98.404,372.334)">
      <path
         d="M 0,0 H 3.056 L 6.287,-7.702 H 6.319 V 0 H 8.611 V -11.108 H 5.523 L 2.324,-3.071 H 2.292 v -8.037 H 0"
         style="fill:#231f20;fill-opacity:1;fill-rule:nonzero;stroke:none"
         id="path15551" />
    </g>
    <path
       d="m 109.544,361.226 h 2.61 v 11.108 h -2.61 z"
       style="fill:#231f20;fill-opacity:1;fill-rule:nonzero;stroke:none"
       id="path15553" />
    <g
       id="g15555"
       transform="translate(113.809,372.334)">
      <path
         d="M 0,0 H 2.801 L 4.758,-8.101 H 4.79 L 6.796,0 H 9.469 L 6.111,-11.108 H 3.31"
         style="fill:#231f20;fill-opacity:1;fill-rule:nonzero;stroke:none"
         id="path15557" />
    </g>
    <g
       id="g15559"
       transform="translate(136.524,367.592)">
      <path
         d="m 0,0 h 0.812 c 1.003,0 1.529,0.668 1.529,1.464 0,0.461 -0.144,1.401 -1.545,1.401 H 0 Z M -2.514,4.742 H 1.561 C 3.391,4.742 4.95,3.93 4.95,1.878 4.95,1.417 4.886,-0.414 2.738,-0.843 V -0.875 C 3.551,-0.971 3.869,-1.416 4.282,-2.738 L 5.428,-6.366 H 2.69 L 1.831,-3.39 c -0.429,1.512 -0.779,1.512 -1.735,1.512 v -4.488 h -2.61"
         style="fill:#231f20;fill-opacity:1;fill-rule:nonzero;stroke:none"
         id="path15561" />
    </g>
    <g
       id="g15563"
       transform="translate(149.972,370.075)">
      <path
         d="m 0,0 c -0.621,0.319 -1.495,0.572 -2.196,0.572 -0.843,0 -1.479,-0.381 -1.479,-1.209 0,-2.021 4.376,-1.083 4.376,-5.029 0,-2.102 -1.671,-3.374 -3.883,-3.374 -1.354,0 -2.514,0.317 -2.992,0.461 l 0.143,2.166 c 0.779,-0.304 1.464,-0.686 2.435,-0.686 0.827,0 1.623,0.415 1.623,1.321 0,2.149 -4.377,1.099 -4.377,5.061 0,0.335 0.128,3.168 3.851,3.168 1.02,0 1.657,-0.175 2.611,-0.382"
         style="fill:#231f20;fill-opacity:1;fill-rule:nonzero;stroke:none"
         id="path15565" />
    </g>
    <path
       d="m 152.778,361.226 h 2.61 v 11.108 h -2.61 z"
       style="fill:#231f20;fill-opacity:1;fill-rule:nonzero;stroke:none"
       id="path15567" />
    <g
       id="g15569"
       transform="translate(159.59,370.329)">
      <path
         d="M 0,0 H -2.42 V 2.005 H 5.029 V 0 H 2.61 V -9.103 H 0"
         style="fill:#231f20;fill-opacity:1;fill-rule:nonzero;stroke:none"
         id="path15571" />
    </g>
    <g
       id="g15573"
       transform="translate(166.231,372.334)">
      <path
         d="M 0,0 H 6.596 V -1.941 H 2.515 V -4.424 H 6.609 V -6.366 H 2.515 v -2.801 h 4.091 v -1.941 H 0"
         style="fill:#231f20;fill-opacity:1;fill-rule:nonzero;stroke:none"
         id="path15575" />
    </g>
    <g
       id="g15577"
       transform="translate(90.446,349.324)">
      <path
         d="m 0,0 h 0.828 c 1.894,0 2.737,1.496 2.737,3.517 0,2.292 -0.875,3.709 -2.896,3.709 H 0 Z m -2.61,9.167 h 3.946 c 2.499,0 4.967,-1.465 4.967,-5.65 0,-3.836 -2.499,-5.46 -5.301,-5.46 H -2.61"
         style="fill:#231f20;fill-opacity:1;fill-rule:nonzero;stroke:none"
         id="path15579" />
    </g>
    <g
       id="g15581"
       transform="translate(98.404,358.491)">
      <path
         d="M 0,0 H 6.414 V -1.942 H 2.515 V -4.425 H 6.223 V -6.366 H 2.515 v -2.801 h 4.09 v -1.942 H 0"
         style="fill:#231f20;fill-opacity:1;fill-rule:nonzero;stroke:none"
         id="path15583" />
    </g>
    <g
       id="g15585"
       transform="translate(117.145,358.491)">
      <path
         d="M 0,0 H 3.056 L 6.287,-7.702 H 6.319 V 0 H 8.611 V -11.109 H 5.523 L 2.324,-3.071 H 2.292 v -8.038 H 0"
         style="fill:#231f20;fill-opacity:1;fill-rule:nonzero;stroke:none"
         id="path15587" />
    </g>
    <g
       id="g15589"
       transform="translate(132.866,356.358)">
      <path
         d="M 0,0 H -0.032 L -1.353,-4.615 H 1.146 Z M 1.655,-6.493 H -1.831 L -2.594,-8.976 H -5.109 L -1.417,2.133 H 1.449 L 5.012,-8.976 H 2.34"
         style="fill:#231f20;fill-opacity:1;fill-rule:nonzero;stroke:none"
         id="path15591" />
    </g>
    <g
       id="g15593"
       transform="translate(149,356.167)">
      <path
         d="M 0,0 H -0.033 L -2.53,-8.785 H -4.25 L -6.653,0 H -6.686 V -8.785 H -9.072 V 2.324 h 3.931 l 1.799,-7.147 h 0.032 l 1.941,7.147 H 2.387 V -8.785 H 0"
         style="fill:#231f20;fill-opacity:1;fill-rule:nonzero;stroke:none"
         id="path15595" />
    </g>
    <g
       id="g15597"
       transform="translate(154.025,358.491)">
      <path
         d="m 0,0 h 2.61 v -7.496 c 0,-1.114 0.412,-1.799 1.464,-1.799 1.051,0 1.464,0.685 1.464,1.799 V 0 h 2.61 V -7.083 C 8.148,-9.836 6.573,-11.3 4.074,-11.3 1.575,-11.3 0,-9.836 0,-7.083"
         style="fill:#231f20;fill-opacity:1;fill-rule:nonzero;stroke:none"
         id="path15599" />
    </g>
    <g
       id="g15601"
       transform="translate(167.41,353.748)">
      <path
         d="m 0,0 h 0.812 c 1.002,0 1.528,0.669 1.528,1.465 0,0.462 -0.144,1.4 -1.544,1.4 H 0 Z M -2.515,4.743 H 1.56 c 1.831,0 3.39,-0.811 3.39,-2.864 0,-0.462 -0.064,-2.292 -2.212,-2.722 V -0.875 C 3.55,-0.97 3.868,-1.417 4.281,-2.737 L 5.428,-6.366 H 2.69 l -0.86,2.977 c -0.428,1.511 -0.779,1.511 -1.734,1.511 v -4.488 h -2.611"
         style="fill:#231f20;fill-opacity:1;fill-rule:nonzero;stroke:none"
         id="path15603" />
    </g>
    <path
       d="m 166.24,374.318 h 6.6 v 1.983 h -6.6 z"
       style="fill:#231f20;fill-opacity:1;fill-rule:nonzero;stroke:none"
       id="path15605" />
    <g
       id="g15607"
       transform="translate(131.329,431.361)">
      <path
         d="M 0,0 V -0.082 L 0.002,0.001 0,0"
         style="fill:#ffffff;fill-opacity:1;fill-rule:nonzero;stroke:none"
         id="path15609" />
    </g>
    <g
       id="g15611"
       transform="translate(172.839,434.772)">
      <path
         d="m 0,0 c -4.802,-4.674 -7.785,-11.207 -7.785,-18.437 0,-7.093 2.872,-13.514 7.515,-18.168 0.176,0.835 0.27,1.7 0.27,2.587 v 0.896 c -3.276,3.999 -5.245,9.112 -5.245,14.686 0,5.572 1.969,10.684 5.245,14.683"
         style="fill:#4a4a4c;fill-opacity:1;fill-rule:nonzero;stroke:none"
         id="path15613" />
    </g>
    <g
       id="g15615"
       transform="translate(160.2,437.118)">
      <path
         d="m 0,0 c 2.03,-0.908 2.022,-2.843 3.3,-5.023 0.668,-1.135 1.525,-2.111 2.459,-2.985 0.287,0.555 0.592,1.098 0.914,1.631 -1.98,2.515 -1.986,5.712 -4.82,7.706 C 0.675,2.158 -0.392,2.268 -2.201,3.397 1.032,2.716 3.63,3.062 6.101,0.879 c 1.316,-1.166 1.856,-2.973 2.778,-4.124 0.436,0.536 0.89,1.057 1.365,1.56 C 8.677,0.889 7.445,3.922 4.879,5.153 2.615,6.241 -0.737,4.56 -3.574,5.614 -4.081,5.802 -4.465,6.163 -4.791,6.619 H -9.025 C -8.519,5.216 -8.032,3.782 -7.009,2.57 -5.296,0.545 -2.841,1.269 0,0"
         style="fill:#4a4a4c;fill-opacity:1;fill-rule:nonzero;stroke:none"
         id="path15617" />
    </g>
    <g
       id="g15619"
       transform="translate(160.622,418.733)">
      <path
         d="M 0,0 C 0.793,-0.363 1.543,-0.761 2.271,-0.966 2.307,-0.269 2.368,0.423 2.454,1.106 1.388,1.552 0.321,2.08 -0.746,2.533 -0.441,1.718 -0.191,0.872 0,0"
         style="fill:#4a4a4c;fill-opacity:1;fill-rule:nonzero;stroke:none"
         id="path15621" />
    </g>
    <g
       id="g15623"
       transform="translate(146.643,413.128)">
      <path
         d="M 0,0 C 1.71,-0.42 2.971,0.331 4.516,1.072 4.487,2.808 4.137,4.436 3.499,5.869 2.743,5.265 1.929,4.743 0.991,4.481 c -1.91,-0.533 -3.843,1.771 -6.243,2.026 -3.346,0.357 -5.287,-1.735 -8.363,-3.301 2.17,0.178 3.116,0.806 4.581,0.833 C -5.333,4.109 -3.409,0.838 0,0"
         style="fill:#4a4a4c;fill-opacity:1;fill-rule:nonzero;stroke:none"
         id="path15625" />
    </g>
    <g
       id="g15627"
       transform="translate(163.176,412.077)">
      <path
         d="m 0,0 c -0.094,0.613 -0.165,1.233 -0.218,1.859 -0.674,0.192 -1.291,0.466 -1.88,0.775 L -2.095,2.415 V 0.403 C -1.404,0.218 -0.703,0.089 0,0"
         style="fill:#4a4a4c;fill-opacity:1;fill-rule:nonzero;stroke:none"
         id="path15629" />
    </g>
    <g
       id="g15631"
       transform="translate(161.081,409.076)">
      <path
         d="m 0,0 v -4.664 l 4.012,0.944 c -0.65,1.521 -1.17,3.11 -1.543,4.755"
         style="fill:#4a4a4c;fill-opacity:1;fill-rule:nonzero;stroke:none"
         id="path15633" />
    </g>
    <g
       id="g15635"
       transform="translate(151.163,404.915)">
      <path
         d="M 0,0 -15.373,-6.451 0,-2.835"
         style="fill:#4a4a4c;fill-opacity:1;fill-rule:nonzero;stroke:none"
         id="path15637" />
    </g>
    <g
       id="g15639"
       transform="translate(162.621,399.739)">
      <path
         d="M 0,0 C 1.503,0.885 3.374,0.848 4.752,1.357 4.374,1.937 4.016,2.531 3.681,3.14 1.942,2.73 0.089,2.476 -1.54,1.907 V 0.519 c 0,-0.784 -0.121,-1.485 -0.342,-2.098 C -1.385,-0.993 -0.783,-0.462 0,0"
         style="fill:#4a4a4c;fill-opacity:1;fill-rule:nonzero;stroke:none"
         id="path15641" />
    </g>
    <g
       id="g15643"
       transform="translate(160.875,395.839)">
      <path
         d="m 0,0 c -1.148,-0.863 -1.584,-1.847 -3.215,-3.219 0.757,1.319 1.267,2.576 1.874,3.713 -0.796,-0.718 -1.851,-1.123 -3.053,-1.183 -0.269,-1.125 -0.631,-2.237 -1.353,-3.15 -1.233,-1.554 -4.152,-0.827 -6.243,-2.032 -0.822,-0.473 -1.44,-1.038 -1.938,-1.674 h 10.907 c 1.618,1.207 1.92,3.378 3.716,5.371 1.49,1.65 3.329,1.045 5.795,1.586 1.286,0.284 2.474,0.796 3.594,1.413 C 9.643,1.268 9.217,1.726 8.807,2.198 5.81,1.099 2.771,2.073 0,0"
         style="fill:#4a4a4c;fill-opacity:1;fill-rule:nonzero;stroke:none"
         id="path15645" />
    </g>
    <g
       id="g15647"
       transform="translate(152.909,430.178)">
      <path
         d="m 0,0 c 2.052,-1.426 3.809,-3.228 5.162,-5.323 l 5.486,-2.302 c 0.377,1.646 0.899,3.235 1.551,4.755"
         style="fill:#4a4a4c;fill-opacity:1;fill-rule:nonzero;stroke:none"
         id="path15649" />
    </g>
    <g
       id="g15651"
       transform="translate(116.887,443.737)">
      <path
         d="m 0,0 h -29.051 v -42.982 c 0,-6.881 5.559,-12.46 12.44,-12.46 H 0 c 0,0 10.095,0.528 12.459,-8.026 v 17.334 c -2.895,-1.571 -6.225,-2.459 -9.746,-2.459 -10.941,0 -20.005,8.189 -20.005,19.327 v 14.235 c 0,3.256 2.071,5.094 4.863,5.115 h 5.054 v -18.826 c 0,-6.027 3.865,-10.81 10.088,-10.81 5.052,0 8.738,3.624 9.746,8.238 v 18.856 C 12.459,-5.577 6.881,0 0,0"
         style="fill:#231f20;fill-opacity:1;fill-rule:nonzero;stroke:none"
         id="path15653" />
    </g>
    <g
       id="g15655"
       transform="translate(119.6,404.185)">
      <path
         d="m 0,0 c -6.223,0 -10.088,4.783 -10.088,10.809 v 18.826 h -5.054 c -2.792,-0.021 -4.864,-1.859 -4.864,-5.115 V 10.285 c 0,-11.138 9.065,-19.327 20.006,-19.327 3.52,0 6.852,0.888 9.746,2.458 V 8.237 C 8.738,3.623 5.053,0 0,0"
         style="fill:#ffffff;fill-opacity:1;fill-rule:nonzero;stroke:none"
         id="path15657" />
    </g>
    <path
       d="m 56.794,319.191 h 155.59 V 474.779 H 56.794 Z"
       style="fill:none;stroke:#231f20;stroke-width:0.25;stroke-linecap:butt;stroke-linejoin:miter;stroke-miterlimit:4;stroke-dasharray:none;stroke-opacity:1"
       id="path15659" />
    <path
       d="M 56.669,524.49 H 425.015 M 56.669,269.481 h 368.346"
       style="fill:none;stroke:#9b9da0;stroke-width:0.5;stroke-linecap:butt;stroke-linejoin:miter;stroke-miterlimit:4;stroke-dasharray:1.9911, 1.9911;stroke-dashoffset:0;stroke-opacity:1"
       id="path15789" />
    <text
       xml:space="preserve"
       transform="matrix(1,0,0,-1,240.8415,559.9077)"
       style="font-variant:normal;font-size:7.9966px;font-family:HelveticaNeueLTStd;-inkscape-font-specification:HelveticaNeueLTStd-LtCn;writing-mode:lr-tb;fill:#4a4a52;fill-opacity:1;fill-rule:nonzero;stroke:none"
       id="text16079"><tspan
         x="0 4.2781811 8.740284 12.194815 17.728462 21.326933 23.398052 27.628254 31.23472 34.689251 38.28772 41.742252 43.757397 45.31673 47.307884 51.67403 55.536388 58.902954 62.389473 65.987946 67.507294 70.96183 74.560295 76.911301 80.07795 82.045113 85.499649"
         y="0"
         id="tspan16073">UNamur_négatif_2couleurs.ai</tspan><tspan
         x="-184.17769 -179.89951 -175.43741 -171.98288 -166.44923 -162.85075 -160.77963 -156.54944 -152.91898 -149.46445 -147.9451 -146.0739 -144.08273 -140.6282 0.0159932 4.2941742 8.7570763 12.211608 17.745255 21.343725 23.414845 27.677032 31.283499 32.802853 36.257385 39.855854 43.158451 45.125614 48.580143"
         y="255.01157"
         id="tspan16075">UNamur_noir.aiUNamur_blanc.ai</tspan><tspan
         x="-184.18568 -179.9075 -175.4454 -171.98688 -166.44923 -162.84676 -160.77563 -156.60141 -153.1069 -151.58356 -148.12502 -145.838 -141.57581 -137.97334 -136.44998 -132.99146 -129.38899 -126.08239 -124.11123 -120.6527 -0.0239898 4.2541914 8.7170935 12.175623 17.713268 21.315737 23.386856 27.561081 31.055595 32.578949 36.037479 38.324505 42.586693 46.189159 47.712513 51.171043 54.77351 58.080105 60.051266 63.509796"
         y="510.02316"
         id="tspan16077">UNamur_ﬁlet_blanc.aiUNamur_ﬁlet_blanc.ai</tspan></text>
  </g>
</svg>
