<?xml version="1.0" encoding="UTF-8" standalone="no"?>
<!-- Created with Inkscape (http://www.inkscape.org/) -->
<!-- Extracted from PDF "Université de Namur - Charte graphique" by Jules Dejaeghere :) -->

<svg
   version="1.1"
   id="svg14501"
   width="139.784"
   height="154.89333"
   viewBox="0 0 139.784 154.89332"
   xmlns="http://www.w3.org/2000/svg"
   xmlns:svg="http://www.w3.org/2000/svg">
  <defs
     id="defs14505">
    <clipPath
       clipPathUnits="userSpaceOnUse"
       id="clipPath14617">
      <path
         d="m 135.58,690.245 h 29.751 V 651.569 H 135.58 Z"
         id="path14615" />
    </clipPath>
    <clipPath
       clipPathUnits="userSpaceOnUse"
       id="clipPath14623">
      <path
         d="m 135.58,687.786 v -14.819 c 1.007,4.614 4.693,8.237 9.746,8.237 6.223,0 10.087,-4.783 10.087,-10.808 v -18.827 h 5.055 c 2.791,0.022 4.863,1.859 4.863,5.115 v 14.235 c 0,11.138 -9.064,19.326 -20.005,19.326 -3.521,0 -6.853,-0.888 -9.746,-2.459"
         id="path14621" />
    </clipPath>
    <clipPath
       clipPathUnits="userSpaceOnUse"
       id="clipPath14631">
      <path
         d="M 135.58012,690.24464 H 165.331 v -38.67561 h -29.75088 z"
         id="path14629" />
    </clipPath>
    <linearGradient
       x1="0"
       y1="0"
       x2="1"
       y2="0"
       gradientUnits="userSpaceOnUse"
       gradientTransform="matrix(29.751,0,0,-29.751,135.58,670.907)"
       spreadMethod="pad"
       id="linearGradient14639">
      <stop
         style="stop-opacity:1;stop-color:#898b8e"
         offset="0"
         id="stop14633" />
      <stop
         style="stop-opacity:1;stop-color:#ffffff"
         offset="0.225006"
         id="stop14635" />
      <stop
         style="stop-opacity:1;stop-color:#ffffff"
         offset="1"
         id="stop14637" />
    </linearGradient>
    <clipPath
       clipPathUnits="userSpaceOnUse"
       id="clipPath14649">
      <path
         d="m 103.845,690.246 h 29.751 v -38.677 h -29.751 z"
         id="path14647" />
    </clipPath>
    <clipPath
       clipPathUnits="userSpaceOnUse"
       id="clipPath14655">
      <path
         d="m 108.708,690.246 c -2.792,-0.022 -4.863,-1.859 -4.863,-5.115 v -14.235 c 0,-11.139 9.063,-19.327 20.005,-19.327 3.521,0 6.852,0.888 9.746,2.459 v 14.82 c -1.008,-4.614 -4.693,-8.238 -9.746,-8.238 -6.223,0 -10.088,4.784 -10.088,10.81 v 18.826 h -5.054"
         id="path14653" />
    </clipPath>
    <clipPath
       clipPathUnits="userSpaceOnUse"
       id="clipPath14663">
      <path
         d="M 103.84545,690.24597 H 133.596 v -38.67594 h -29.75055 z"
         id="path14661" />
    </clipPath>
    <linearGradient
       x1="0"
       y1="0"
       x2="1"
       y2="0"
       gradientUnits="userSpaceOnUse"
       gradientTransform="matrix(29.751,0,0,-29.751,103.845,670.908)"
       spreadMethod="pad"
       id="linearGradient14671">
      <stop
         style="stop-opacity:1;stop-color:#ffffff"
         offset="0"
         id="stop14665" />
      <stop
         style="stop-opacity:1;stop-color:#ffffff"
         offset="0.774994"
         id="stop14667" />
      <stop
         style="stop-opacity:1;stop-color:#898b8e"
         offset="1"
         id="stop14669" />
    </linearGradient>
  </defs>
  <g
     id="g14509"
     transform="matrix(1.3333333,0,0,-1.3333333,-109.56,946.77331)">

    <g
       id="g14513"
       transform="translate(133.596,687.704)">
      <path
         d="M 0,0 C 0,6.881 -5.578,12.458 -12.459,12.458 H -41.51 v -42.982 c 0,-6.881 5.559,-12.46 12.44,-12.46 h 16.611 c 0,0 10.095,0.528 12.459,-8.026"
         style="fill:#919395;fill-opacity:1;fill-rule:nonzero;stroke:none"
         id="path14515" />
    </g>
    <g
       id="g14517"
       transform="translate(135.58,687.704)">
      <path
         d="M 0,0 C 0,6.881 5.577,12.458 12.458,12.458 H 41.51 v -42.982 c 0,-6.881 -5.559,-12.46 -12.44,-12.46 H 12.458 c 0,0 -10.094,0.528 -12.458,-8.026"
         style="fill:#231f20;fill-opacity:1;fill-rule:nonzero;stroke:none"
         id="path14519" />
    </g>
    <g
       id="g14521"
       transform="translate(129.354,628.761)">
      <path
         d="M 0,0 H 6.595 V -1.942 H 2.515 V -4.425 H 6.608 V -6.367 H 2.515 v -2.801 h 4.09 v -1.941 H 0"
         style="fill:#231f20;fill-opacity:1;fill-rule:nonzero;stroke:none"
         id="path14523" />
    </g>
    <g
       id="g14525"
       transform="translate(92.087,628.761)">
      <path
         d="m 0,0 h 2.61 v -7.496 c 0,-1.115 0.414,-1.798 1.464,-1.798 1.051,0 1.465,0.683 1.465,1.798 V 0 h 2.61 v -7.082 c 0,-2.754 -1.576,-4.219 -4.075,-4.219 C 1.575,-11.301 0,-9.836 0,-7.082"
         style="fill:#231f20;fill-opacity:1;fill-rule:nonzero;stroke:none"
         id="path14527" />
    </g>
    <g
       id="g14529"
       transform="translate(102.654,628.761)">
      <path
         d="M 0,0 H 3.055 L 6.286,-7.703 H 6.318 V 0 H 8.61 V -11.109 H 5.522 L 2.324,-3.072 H 2.292 v -8.037 H 0"
         style="fill:#231f20;fill-opacity:1;fill-rule:nonzero;stroke:none"
         id="path14531" />
    </g>
    <path
       d="m 113.794,617.652 h 2.61 v 11.109 h -2.61 z"
       style="fill:#231f20;fill-opacity:1;fill-rule:nonzero;stroke:none"
       id="path14533" />
    <g
       id="g14535"
       transform="translate(118.059,628.761)">
      <path
         d="M 0,0 H 2.801 L 4.759,-8.102 H 4.791 L 6.796,0 H 9.47 L 6.111,-11.109 H 3.31"
         style="fill:#231f20;fill-opacity:1;fill-rule:nonzero;stroke:none"
         id="path14537" />
    </g>
    <g
       id="g14539"
       transform="translate(140.774,624.018)">
      <path
         d="m 0,0 h 0.812 c 1.004,0 1.529,0.668 1.529,1.464 0,0.462 -0.144,1.401 -1.545,1.401 H 0 Z m -2.514,4.742 h 4.075 c 1.83,0 3.389,-0.811 3.389,-2.863 0,-0.462 -0.064,-2.292 -2.212,-2.722 V -0.875 C 3.551,-0.971 3.869,-1.416 4.282,-2.737 L 5.428,-6.366 H 2.69 L 1.832,-3.39 c -0.43,1.512 -0.78,1.512 -1.736,1.512 v -4.488 h -2.61"
         style="fill:#231f20;fill-opacity:1;fill-rule:nonzero;stroke:none"
         id="path14541" />
    </g>
    <g
       id="g14543"
       transform="translate(154.222,626.501)">
      <path
         d="m 0,0 c -0.62,0.319 -1.495,0.573 -2.196,0.573 -0.842,0 -1.479,-0.382 -1.479,-1.21 0,-2.021 4.376,-1.082 4.376,-5.029 0,-2.102 -1.671,-3.374 -3.883,-3.374 -1.354,0 -2.514,0.318 -2.992,0.462 l 0.143,2.165 c 0.78,-0.304 1.464,-0.686 2.435,-0.686 0.828,0 1.623,0.415 1.623,1.321 0,2.149 -4.377,1.099 -4.377,5.061 0,0.335 0.128,3.168 3.851,3.168 1.02,0 1.657,-0.175 2.611,-0.382"
         style="fill:#231f20;fill-opacity:1;fill-rule:nonzero;stroke:none"
         id="path14545" />
    </g>
    <path
       d="m 157.028,617.652 h 2.61 v 11.109 h -2.61 z"
       style="fill:#231f20;fill-opacity:1;fill-rule:nonzero;stroke:none"
       id="path14547" />
    <g
       id="g14549"
       transform="translate(163.84,626.755)">
      <path
         d="M 0,0 H -2.42 V 2.006 H 5.029 V 0 H 2.61 V -9.103 H 0"
         style="fill:#231f20;fill-opacity:1;fill-rule:nonzero;stroke:none"
         id="path14551" />
    </g>
    <g
       id="g14553"
       transform="translate(170.482,628.761)">
      <path
         d="M 0,0 H 6.595 V -1.942 H 2.514 V -4.425 H 6.608 V -6.367 H 2.514 v -2.801 h 4.091 v -1.941 H 0"
         style="fill:#231f20;fill-opacity:1;fill-rule:nonzero;stroke:none"
         id="path14555" />
    </g>
    <g
       id="g14557"
       transform="translate(94.697,605.75)">
      <path
         d="m 0,0 h 0.828 c 1.894,0 2.738,1.496 2.738,3.517 0,2.292 -0.876,3.709 -2.897,3.709 H 0 Z m -2.61,9.167 h 3.947 c 2.498,0 4.967,-1.465 4.967,-5.65 0,-3.836 -2.5,-5.459 -5.301,-5.459 H -2.61"
         style="fill:#919395;fill-opacity:1;fill-rule:nonzero;stroke:none"
         id="path14559" />
    </g>
    <g
       id="g14561"
       transform="translate(102.654,614.917)">
      <path
         d="M 0,0 H 6.414 V -1.942 H 2.515 V -4.425 H 6.223 V -6.366 H 2.515 v -2.801 h 4.09 v -1.942 H 0"
         style="fill:#919395;fill-opacity:1;fill-rule:nonzero;stroke:none"
         id="path14563" />
    </g>
    <g
       id="g14565"
       transform="translate(121.396,614.917)">
      <path
         d="M 0,0 H 3.055 L 6.286,-7.702 H 6.318 V 0 H 8.61 V -11.109 H 5.522 L 2.324,-3.071 H 2.292 v -8.038 H 0"
         style="fill:#231f20;fill-opacity:1;fill-rule:nonzero;stroke:none"
         id="path14567" />
    </g>
    <g
       id="g14569"
       transform="translate(137.116,612.784)">
      <path
         d="M 0,0 H -0.032 L -1.353,-4.615 H 1.146 Z M 1.655,-6.493 H -1.83 L -2.594,-8.976 H -5.109 L -1.417,2.133 H 1.449 L 5.013,-8.976 H 2.34"
         style="fill:#231f20;fill-opacity:1;fill-rule:nonzero;stroke:none"
         id="path14571" />
    </g>
    <g
       id="g14573"
       transform="translate(153.251,612.593)">
      <path
         d="m 0,0 h -0.033 l -2.498,-8.785 h -1.72 L -6.653,0 H -6.686 V -8.785 H -9.072 V 2.324 h 3.93 l 1.799,-7.147 h 0.032 L -1.37,2.324 H 2.387 V -8.785 H 0"
         style="fill:#231f20;fill-opacity:1;fill-rule:nonzero;stroke:none"
         id="path14575" />
    </g>
    <g
       id="g14577"
       transform="translate(158.275,614.917)">
      <path
         d="m 0,0 h 2.61 v -7.495 c 0,-1.115 0.413,-1.8 1.464,-1.8 1.051,0 1.464,0.685 1.464,1.8 V 0 h 2.61 V -7.083 C 8.148,-9.835 6.573,-11.3 4.074,-11.3 1.575,-11.3 0,-9.835 0,-7.083"
         style="fill:#231f20;fill-opacity:1;fill-rule:nonzero;stroke:none"
         id="path14579" />
    </g>
    <g
       id="g14581"
       transform="translate(171.66,610.175)">
      <path
         d="m 0,0 h 0.812 c 1.003,0 1.528,0.668 1.528,1.464 0,0.462 -0.144,1.4 -1.544,1.4 H 0 Z m -2.515,4.742 h 4.076 c 1.83,0 3.389,-0.811 3.389,-2.864 0,-0.462 -0.064,-2.292 -2.212,-2.722 V -0.876 C 3.55,-0.971 3.869,-1.418 4.281,-2.738 L 5.428,-6.367 H 2.69 L 1.831,-3.39 c -0.429,1.511 -0.78,1.511 -1.735,1.511 v -4.488 h -2.611"
         style="fill:#231f20;fill-opacity:1;fill-rule:nonzero;stroke:none"
         id="path14583" />
    </g>
    <path
       d="m 170.491,630.744 h 6.599 v 1.983 h -6.599 z"
       style="fill:#919395;fill-opacity:1;fill-rule:nonzero;stroke:none"
       id="path14585" />
    <g
       id="g14587"
       transform="translate(177.089,658.076)">
      <path
         d="m 0,0 c -3.276,3.999 -5.244,9.112 -5.244,14.684 0,5.574 1.968,10.686 5.244,14.684 V 33.12 C -4.802,28.446 -7.785,21.914 -7.785,14.684 -7.785,7.591 -4.913,1.17 -0.269,-3.484 -0.094,-2.649 0,-1.784 0,-0.896"
         style="fill:#4a4a4c;fill-opacity:1;fill-rule:nonzero;stroke:none"
         id="path14589" />
    </g>
    <g
       id="g14591"
       transform="translate(157.441,696.114)">
      <path
         d="m 0,0 c 1.713,-2.026 4.168,-1.302 7.009,-2.571 2.03,-0.907 2.022,-2.843 3.3,-5.023 0.669,-1.135 1.526,-2.111 2.46,-2.985 0.287,0.554 0.59,1.099 0.913,1.631 -1.981,2.515 -1.986,5.711 -4.821,7.707 -1.176,0.829 -2.244,0.938 -4.053,2.068 3.234,-0.682 5.831,-0.336 8.303,-2.519 1.315,-1.166 1.856,-2.973 2.777,-4.123 0.436,0.536 0.891,1.057 1.365,1.56 -1.567,2.573 -2.799,5.606 -5.364,6.838 C 9.624,3.669 6.272,1.989 3.436,3.043 2.929,3.232 2.545,3.591 2.218,4.048 H -2.015 C -1.51,2.645 -1.022,1.212 0,0"
         style="fill:#4a4a4c;fill-opacity:1;fill-rule:nonzero;stroke:none"
         id="path14593" />
    </g>
    <g
       id="g14595"
       transform="translate(158.793,673.76)">
      <path
         d="M 0,0 3.703,2.132 C 5.442,1.964 6.934,0.831 8.351,0.433 8.387,1.131 8.448,1.822 8.534,2.505 5.764,3.662 2.991,5.382 0.201,4.871 -2.269,4.42 -3.994,1.09 -6.908,0.275 c -1.911,-0.532 -3.844,1.772 -6.244,2.026 -3.346,0.357 -5.286,-1.735 -8.363,-3.301 2.17,0.179 3.116,0.806 4.582,0.834 3.7,0.069 5.623,-3.201 9.034,-4.04 2.577,-0.632 4.137,1.396 7.183,2.04 2.176,0.458 3.306,-1.11 5.62,-2.122 C 6.109,-4.813 7.368,-5.096 8.633,-5.257 8.54,-4.645 8.468,-4.024 8.416,-3.398 5.345,-2.526 3.461,0.051 0,0"
         style="fill:#4a4a4c;fill-opacity:1;fill-rule:nonzero;stroke:none"
         id="path14597" />
    </g>
    <g
       id="g14599"
       transform="translate(140.041,654.89)">
      <path
         d="m 0,0 29.302,6.892 c -0.65,1.521 -1.17,3.111 -1.543,4.756"
         style="fill:#4a4a4c;fill-opacity:1;fill-rule:nonzero;stroke:none"
         id="path14601" />
    </g>
    <g
       id="g14603"
       transform="translate(165.125,652.265)">
      <path
         d="m 0,0 c -1.148,-0.862 -1.584,-1.847 -3.215,-3.218 1.645,2.864 2.121,5.44 4.961,7.117 C 3.249,4.785 5.12,4.747 6.499,5.257 6.121,5.837 5.763,6.431 5.427,7.04 2.506,6.35 -0.743,6.111 -2.698,4.06 -4.432,2.244 -3.869,-1.465 -5.747,-3.839 c -1.233,-1.554 -4.152,-0.827 -6.242,-2.032 -0.823,-0.473 -1.441,-1.038 -1.939,-1.674 h 10.907 c 1.618,1.207 1.92,3.378 3.716,5.371 1.49,1.65 3.329,1.045 5.796,1.586 1.285,0.284 2.474,0.796 3.593,1.413 C 9.643,1.269 9.217,1.725 8.808,2.198 5.81,1.099 2.771,2.073 0,0"
         style="fill:#4a4a4c;fill-opacity:1;fill-rule:nonzero;stroke:none"
         id="path14605" />
    </g>
    <g
       id="g14607"
       transform="translate(155.447,687.007)">
      <path
         d="m 0,0 v -2.841 l 12.36,-5.187 c 0.377,1.646 0.899,3.235 1.552,4.755"
         style="fill:#4a4a4c;fill-opacity:1;fill-rule:nonzero;stroke:none"
         id="path14609" />
    </g>
    <g
       id="g14611">
      <g
         id="g14613"
         clip-path="url(#clipPath14617)">
        <g
           id="g14619"
           clip-path="url(#clipPath14623)">
          <g
             id="g14625">
            <g
               id="g14627"
               clip-path="url(#clipPath14631)">
              <path
                 d="m 135.58,687.786 v -14.819 c 1.007,4.614 4.693,8.237 9.746,8.237 6.223,0 10.087,-4.783 10.087,-10.808 v -18.827 h 5.055 c 2.791,0.022 4.863,1.859 4.863,5.115 v 14.235 c 0,11.138 -9.064,19.326 -20.005,19.326 -3.521,0 -6.853,-0.888 -9.746,-2.459"
                 style="fill:url(#linearGradient14639);stroke:none"
                 id="path14641" />
            </g>
          </g>
        </g>
      </g>
    </g>
    <g
       id="g14643">
      <g
         id="g14645"
         clip-path="url(#clipPath14649)">
        <g
           id="g14651"
           clip-path="url(#clipPath14655)">
          <g
             id="g14657">
            <g
               id="g14659"
               clip-path="url(#clipPath14663)">
              <path
                 d="m 108.708,690.246 c -2.792,-0.022 -4.863,-1.859 -4.863,-5.115 v -14.235 c 0,-11.139 9.063,-19.327 20.005,-19.327 3.521,0 6.852,0.888 9.746,2.459 v 14.82 c -1.008,-4.614 -4.693,-8.238 -9.746,-8.238 -6.223,0 -10.088,4.784 -10.088,10.81 v 18.826 h -5.054"
                 style="fill:url(#linearGradient14671);stroke:none"
                 id="path14673" />
            </g>
          </g>
        </g>
      </g>
    </g>
    <path
       d="M 56.794,574.2 H 212.383 V 729.789 H 56.794 Z"
       style="fill:none;stroke:#231f20;stroke-width:0.25;stroke-linecap:butt;stroke-linejoin:miter;stroke-miterlimit:4;stroke-dasharray:none;stroke-opacity:1"
       id="path14675" />
  </g>
</svg>
